# Blender 4.0.2
# www.blender.org
mtllib BR-Bag.mtl
o Bag_Handles02
v 1.074154 0.954120 -1.165143
v 1.074848 0.954120 -1.167956
v 1.076665 0.954120 -1.169695
v 1.078911 0.954120 -1.169695
v 1.080729 0.954120 -1.167956
v 1.081423 0.954120 -1.165143
v 1.080729 0.954120 -1.162329
v 1.078911 0.954120 -1.160590
v 1.076665 0.954120 -1.160590
v 1.074848 0.954120 -1.162329
v 1.165011 0.954120 -1.165143
v 1.164317 0.954120 -1.167956
v 1.162500 0.954120 -1.169695
v 1.160253 0.954120 -1.169695
v 1.158436 0.954120 -1.167956
v 1.157742 0.954120 -1.165143
v 1.158436 0.954120 -1.162329
v 1.160253 0.954120 -1.160590
v 1.162500 0.954120 -1.160590
v 1.164317 0.954120 -1.162329
v 1.158925 0.982837 -1.170105
v 1.158323 0.982398 -1.172918
v 1.156750 0.981250 -1.174657
v 1.154805 0.979830 -1.174657
v 1.153231 0.978681 -1.172918
v 1.152630 0.978242 -1.170105
v 1.153231 0.978681 -1.167291
v 1.154805 0.979830 -1.165552
v 1.156750 0.981250 -1.165552
v 1.158323 0.982398 -1.167291
v 1.142297 1.003692 -1.178265
v 1.141950 1.001763 -1.180450
v 1.141041 0.999209 -1.181127
v 1.139918 0.997005 -1.180037
v 1.139009 0.995992 -1.177597
v 1.138662 0.996558 -1.174738
v 1.139009 0.998486 -1.172552
v 1.139918 1.001040 -1.171875
v 1.141041 1.003245 -1.172965
v 1.141950 1.004257 -1.175406
v 1.119582 1.010589 -1.181675
v 1.119582 1.008556 -1.183809
v 1.119582 1.005726 -1.184349
v 1.119582 1.003180 -1.183091
v 1.119582 1.001891 -1.180514
v 1.119582 1.002352 -1.177602
v 1.119582 1.004385 -1.175469
v 1.119582 1.007215 -1.174929
v 1.119582 1.009761 -1.176187
v 1.119582 1.011050 -1.178764
v 1.096868 1.003692 -1.178265
v 1.097215 1.001763 -1.180450
v 1.098124 0.999209 -1.181127
v 1.099247 0.997005 -1.180037
v 1.100155 0.995992 -1.177597
v 1.100502 0.996558 -1.174738
v 1.100155 0.998486 -1.172552
v 1.099247 1.001040 -1.171875
v 1.098124 1.003245 -1.172965
v 1.097215 1.004257 -1.175406
v 1.080240 0.982837 -1.170105
v 1.080841 0.982398 -1.172918
v 1.082415 0.981250 -1.174657
v 1.084360 0.979830 -1.174657
v 1.085934 0.978681 -1.172918
v 1.086535 0.978242 -1.170105
v 1.085934 0.978681 -1.167291
v 1.084360 0.979830 -1.165552
v 1.082415 0.981250 -1.165552
v 1.080841 0.982398 -1.167291
v 1.074357 0.951841 -1.164969
v 1.075051 0.951841 -1.167782
v 1.076868 0.951841 -1.169521
v 1.079114 0.951841 -1.169521
v 1.080931 0.951841 -1.167782
v 1.081625 0.951841 -1.164969
v 1.080931 0.951841 -1.162155
v 1.079114 0.951841 -1.160416
v 1.076868 0.951841 -1.160416
v 1.075051 0.951841 -1.162155
v 1.165213 0.951841 -1.164969
v 1.164519 0.951841 -1.167782
v 1.162702 0.951841 -1.169521
v 1.160456 0.951841 -1.169521
v 1.158639 0.951841 -1.167782
v 1.157945 0.951841 -1.164969
v 1.158639 0.951841 -1.162155
v 1.160456 0.951841 -1.160416
v 1.162702 0.951841 -1.160416
v 1.164519 0.951841 -1.162155
v 1.074154 0.953706 -1.120538
v 1.074848 0.953706 -1.123352
v 1.076665 0.953706 -1.125091
v 1.078911 0.953706 -1.125091
v 1.080729 0.953706 -1.123352
v 1.081423 0.953706 -1.120538
v 1.080729 0.953706 -1.117725
v 1.078911 0.953706 -1.115986
v 1.076665 0.953706 -1.115986
v 1.074848 0.953706 -1.117725
v 1.165011 0.953706 -1.120538
v 1.164317 0.953706 -1.123352
v 1.162500 0.953706 -1.125091
v 1.160253 0.953706 -1.125091
v 1.158436 0.953706 -1.123352
v 1.157742 0.953706 -1.120538
v 1.158436 0.953706 -1.117725
v 1.160253 0.953706 -1.115986
v 1.162500 0.953706 -1.115986
v 1.164317 0.953706 -1.117725
v 1.158925 0.982423 -1.125500
v 1.158323 0.981984 -1.128314
v 1.156750 0.980836 -1.130053
v 1.154805 0.979416 -1.130053
v 1.153231 0.978267 -1.128314
v 1.152630 0.977828 -1.125500
v 1.153231 0.978267 -1.122687
v 1.154805 0.979416 -1.120948
v 1.156750 0.980836 -1.120948
v 1.158323 0.981984 -1.122687
v 1.142297 1.003445 -1.126503
v 1.141950 1.002614 -1.129296
v 1.141041 1.000581 -1.130985
v 1.139918 0.998123 -1.130922
v 1.139009 0.996178 -1.129134
v 1.138662 0.995489 -1.126302
v 1.139009 0.996320 -1.123508
v 1.139918 0.998353 -1.121820
v 1.141041 1.000811 -1.121882
v 1.141950 1.002756 -1.123671
v 1.119582 1.011137 -1.126697
v 1.119582 1.010189 -1.129488
v 1.119582 1.007848 -1.131168
v 1.119582 1.005009 -1.131097
v 1.119582 1.002757 -1.129300
v 1.119582 1.001951 -1.126465
v 1.119582 1.002899 -1.123675
v 1.119582 1.005239 -1.121994
v 1.119582 1.008078 -1.122066
v 1.119582 1.010331 -1.123863
v 1.096868 1.003445 -1.126503
v 1.097215 1.002614 -1.129296
v 1.098124 1.000581 -1.130985
v 1.099247 0.998123 -1.130922
v 1.100155 0.996178 -1.129134
v 1.100502 0.995489 -1.126302
v 1.100155 0.996320 -1.123508
v 1.099247 0.998353 -1.121820
v 1.098124 1.000811 -1.121882
v 1.097215 1.002756 -1.123671
v 1.080240 0.982423 -1.125500
v 1.080841 0.981984 -1.128314
v 1.082415 0.980836 -1.130053
v 1.084360 0.979416 -1.130053
v 1.085934 0.978267 -1.128314
v 1.086535 0.977828 -1.125500
v 1.085934 0.978267 -1.122687
v 1.084360 0.979416 -1.120948
v 1.082415 0.980836 -1.120948
v 1.080841 0.981984 -1.122687
v 1.074357 0.951427 -1.120364
v 1.075051 0.951427 -1.123178
v 1.076868 0.951427 -1.124917
v 1.079114 0.951427 -1.124917
v 1.080931 0.951427 -1.123178
v 1.081625 0.951427 -1.120364
v 1.080931 0.951427 -1.117551
v 1.079114 0.951427 -1.115812
v 1.076868 0.951427 -1.115812
v 1.075051 0.951427 -1.117551
v 1.165213 0.951427 -1.120364
v 1.164519 0.951427 -1.123178
v 1.162702 0.951427 -1.124917
v 1.160456 0.951427 -1.124917
v 1.158639 0.951427 -1.123178
v 1.157945 0.951427 -1.120364
v 1.158639 0.951427 -1.117551
v 1.160456 0.951427 -1.115812
v 1.162702 0.951427 -1.115812
v 1.164519 0.951427 -1.117551
vn 0.9587 0.1626 -0.2333
vn 0.7116 0.0251 -0.7021
vn 0.0584 -0.1723 -0.9833
vn -0.6406 -0.2771 -0.7161
vn -0.9399 -0.2472 -0.2356
vn -0.9599 -0.1559 0.2331
vn -0.7138 -0.0131 0.7002
vn -0.0584 0.1723 0.9833
vn 0.6452 0.2651 0.7166
vn 0.9416 0.2406 0.2355
vn 0.7820 0.4928 -0.3816
vn 0.5499 0.1655 -0.8187
vn 0.0203 -0.3036 -0.9526
vn -0.5059 -0.6060 -0.6138
vn -0.7645 -0.6346 -0.1136
vn -0.7884 -0.4846 0.3790
vn -0.5535 -0.1620 0.8170
vn -0.0106 0.2962 0.9551
vn 0.5167 0.5957 0.6149
vn 0.7648 0.6342 0.1136
vn 0.3077 0.6887 -0.6565
vn 0.2003 0.1838 -0.9623
vn -0.0000 -0.4432 -0.8964
vn -0.2003 -0.8763 -0.4382
vn -0.3077 -0.9398 0.1486
vn -0.3077 -0.6887 0.6565
vn -0.2003 -0.1838 0.9623
vn -0.0000 0.4432 0.8964
vn 0.2003 0.8763 0.4382
vn 0.3077 0.9398 -0.1486
vn -0.3077 0.6887 -0.6565
vn -0.2003 0.1838 -0.9623
vn 0.2003 -0.8763 -0.4382
vn 0.3077 -0.9398 0.1486
vn 0.3077 -0.6887 0.6565
vn 0.2003 -0.1838 0.9623
vn -0.2003 0.8763 0.4382
vn -0.3077 0.9398 -0.1486
vn -0.7820 0.4928 -0.3816
vn -0.5499 0.1655 -0.8187
vn -0.0203 -0.3036 -0.9526
vn 0.5059 -0.6060 -0.6138
vn 0.7645 -0.6346 -0.1136
vn 0.7884 -0.4846 0.3790
vn 0.5535 -0.1620 0.8170
vn 0.0106 0.2962 0.9551
vn -0.5167 0.5957 0.6149
vn -0.7648 0.6342 0.1136
vn -0.9587 0.1626 -0.2333
vn -0.7116 0.0251 -0.7021
vn -0.0584 -0.1723 -0.9833
vn 0.6406 -0.2771 -0.7161
vn 0.9399 -0.2472 -0.2356
vn 0.9599 -0.1559 0.2331
vn 0.7138 -0.0131 0.7002
vn 0.0584 0.1723 0.9833
vn -0.6452 0.2651 0.7166
vn -0.9416 0.2406 0.2355
vn -0.9656 -0.1041 -0.2382
vn -0.9687 -0.0679 0.2389
vn -0.0000 -0.0762 -0.9971
vn -0.6867 -0.1159 -0.7176
vn -0.6914 -0.0063 0.7225
vn -0.0000 0.0762 0.9971
vn 0.9687 0.0679 -0.2389
vn 0.6914 0.0063 -0.7225
vn 0.6867 0.1159 0.7176
vn 0.9656 0.1041 0.2382
vn 0.7623 0.5915 -0.2628
vn 0.5352 0.3897 -0.7495
vn 0.0194 -0.0314 -0.9993
vn -0.5080 -0.4381 -0.7416
vn -0.7537 -0.6086 -0.2481
vn -0.7631 -0.5904 0.2627
vn -0.5368 -0.3881 0.7491
vn -0.0193 0.0313 0.9993
vn 0.5098 0.4363 0.7414
vn 0.7545 0.6076 0.2480
vn 0.3077 0.9009 -0.3062
vn 0.2003 0.5714 -0.7959
vn -0.0000 -0.0253 -0.9997
vn -0.2003 -0.6109 -0.7660
vn -0.3077 -0.9152 -0.2602
vn -0.3077 -0.9009 0.3062
vn -0.2003 -0.5714 0.7959
vn -0.0000 0.0253 0.9997
vn 0.2003 0.6109 0.7660
vn 0.3077 0.9152 0.2602
vn -0.3077 0.9009 -0.3062
vn -0.2003 0.5714 -0.7959
vn 0.2003 -0.6109 -0.7660
vn 0.3077 -0.9152 -0.2602
vn 0.3077 -0.9009 0.3062
vn 0.2003 -0.5714 0.7959
vn -0.2003 0.6109 0.7660
vn -0.3077 0.9152 0.2602
vn -0.7623 0.5915 -0.2628
vn -0.5352 0.3897 -0.7495
vn -0.0194 -0.0314 -0.9993
vn 0.5080 -0.4381 -0.7416
vn 0.7537 -0.6086 -0.2481
vn 0.7631 -0.5904 0.2627
vn 0.5368 -0.3881 0.7491
vn 0.0193 0.0313 0.9993
vn -0.5098 0.4363 0.7414
vn -0.7545 0.6076 0.2480
vt 0.831501 0.462470
vt 0.828951 0.474500
vt 0.828700 0.474316
vt 0.831210 0.462470
vt 0.828040 0.473835
vt 0.830449 0.462470
vt 0.827226 0.473240
vt 0.829508 0.462470
vt 0.826566 0.472759
vt 0.828747 0.462470
vt 0.826314 0.472575
vt 0.828456 0.462470
vt 0.821986 0.483237
vt 0.821840 0.482429
vt 0.821460 0.481359
vt 0.820989 0.480435
vt 0.820608 0.480011
vt 0.820463 0.480248
vt 0.820608 0.481056
vt 0.820989 0.482126
vt 0.821460 0.483049
vt 0.821840 0.483474
vt 0.812470 0.486126
vt 0.812470 0.485274
vt 0.812470 0.484089
vt 0.812470 0.483022
vt 0.812470 0.482482
vt 0.812470 0.482675
vt 0.812470 0.483527
vt 0.812470 0.484713
vt 0.812470 0.485779
vt 0.812470 0.486319
vt 0.802954 0.483237
vt 0.803100 0.482429
vt 0.803481 0.481359
vt 0.803951 0.480435
vt 0.804332 0.480011
vt 0.804477 0.480248
vt 0.804332 0.481056
vt 0.803951 0.482126
vt 0.803481 0.483049
vt 0.803100 0.483474
vt 0.795989 0.474500
vt 0.796240 0.474316
vt 0.796900 0.473835
vt 0.797715 0.473240
vt 0.798374 0.472759
vt 0.798626 0.472575
vt 0.793439 0.462470
vt 0.793730 0.462470
vt 0.794491 0.462470
vt 0.795432 0.462470
vt 0.796193 0.462470
vt 0.796484 0.462470
vt 0.828541 0.461515
vt 0.828832 0.461515
vt 0.794576 0.461515
vt 0.795517 0.461515
vt 0.793815 0.461515
vt 0.829593 0.461515
vt 0.830534 0.461515
vt 0.796278 0.461515
vt 0.796569 0.461515
vt 0.831295 0.461515
vt 0.793524 0.461515
vt 0.831586 0.461515
vt 0.831501 0.462296
vt 0.828951 0.474327
vt 0.828700 0.474143
vt 0.831210 0.462296
vt 0.828040 0.473662
vt 0.830449 0.462296
vt 0.827226 0.473067
vt 0.829508 0.462296
vt 0.826566 0.472586
vt 0.828747 0.462296
vt 0.826314 0.472402
vt 0.828456 0.462296
vt 0.821986 0.483133
vt 0.821840 0.482785
vt 0.821460 0.481934
vt 0.820989 0.480904
vt 0.820608 0.480089
vt 0.820463 0.479800
vt 0.820608 0.480148
vt 0.820989 0.481000
vt 0.821460 0.482030
vt 0.821840 0.482845
vt 0.812470 0.486356
vt 0.812470 0.485958
vt 0.812470 0.484978
vt 0.812470 0.483789
vt 0.812470 0.482845
vt 0.812470 0.482507
vt 0.812470 0.482905
vt 0.812470 0.483885
vt 0.812470 0.485074
vt 0.812470 0.486018
vt 0.802954 0.483133
vt 0.803100 0.482785
vt 0.803481 0.481934
vt 0.803951 0.480904
vt 0.804332 0.480089
vt 0.804477 0.479800
vt 0.804332 0.480148
vt 0.803951 0.481000
vt 0.803481 0.482030
vt 0.803100 0.482845
vt 0.795989 0.474327
vt 0.796240 0.474143
vt 0.796900 0.473662
vt 0.797715 0.473067
vt 0.798374 0.472586
vt 0.798626 0.472402
vt 0.793439 0.462296
vt 0.793730 0.462296
vt 0.794491 0.462296
vt 0.795432 0.462296
vt 0.796193 0.462296
vt 0.796484 0.462296
vt 0.828541 0.461342
vt 0.828832 0.461342
vt 0.794576 0.461342
vt 0.795517 0.461342
vt 0.793815 0.461342
vt 0.829593 0.461342
vt 0.830534 0.461342
vt 0.796278 0.461342
vt 0.796569 0.461342
vt 0.831295 0.461342
vt 0.793524 0.461342
vt 0.831586 0.461342
s 0
usemtl Gradient_Colour
f 11/1/1 12/4/1 22/3/1 21/2/1
f 12/4/2 13/6/2 23/5/2 22/3/2
f 13/6/3 14/8/3 24/7/3 23/5/3
f 14/8/4 15/10/4 25/9/4 24/7/4
f 15/10/5 16/12/5 26/11/5 25/9/5
f 16/12/6 17/10/6 27/9/6 26/11/6
f 17/10/7 18/8/7 28/7/7 27/9/7
f 18/8/8 19/6/8 29/5/8 28/7/8
f 19/6/9 20/4/9 30/3/9 29/5/9
f 20/4/10 11/1/10 21/2/10 30/3/10
f 21/2/11 22/3/11 32/14/11 31/13/11
f 22/3/12 23/5/12 33/15/12 32/14/12
f 23/5/13 24/7/13 34/16/13 33/15/13
f 24/7/14 25/9/14 35/17/14 34/16/14
f 25/9/15 26/11/15 36/18/15 35/17/15
f 26/11/16 27/9/16 37/19/16 36/18/16
f 27/9/17 28/7/17 38/20/17 37/19/17
f 28/7/18 29/5/18 39/21/18 38/20/18
f 29/5/19 30/3/19 40/22/19 39/21/19
f 30/3/20 21/2/20 31/13/20 40/22/20
f 31/13/21 32/14/21 42/24/21 41/23/21
f 32/14/22 33/15/22 43/25/22 42/24/22
f 33/15/23 34/16/23 44/26/23 43/25/23
f 34/16/24 35/17/24 45/27/24 44/26/24
f 35/17/25 36/18/25 46/28/25 45/27/25
f 36/18/26 37/19/26 47/29/26 46/28/26
f 37/19/27 38/20/27 48/30/27 47/29/27
f 38/20/28 39/21/28 49/31/28 48/30/28
f 39/21/29 40/22/29 50/32/29 49/31/29
f 40/22/30 31/13/30 41/23/30 50/32/30
f 41/23/31 42/24/31 52/34/31 51/33/31
f 42/24/32 43/25/32 53/35/32 52/34/32
f 43/25/23 44/26/23 54/36/23 53/35/23
f 44/26/33 45/27/33 55/37/33 54/36/33
f 45/27/34 46/28/34 56/38/34 55/37/34
f 46/28/35 47/29/35 57/39/35 56/38/35
f 47/29/36 48/30/36 58/40/36 57/39/36
f 48/30/28 49/31/28 59/41/28 58/40/28
f 49/31/37 50/32/37 60/42/37 59/41/37
f 50/32/38 41/23/38 51/33/38 60/42/38
f 51/33/39 52/34/39 62/44/39 61/43/39
f 52/34/40 53/35/40 63/45/40 62/44/40
f 53/35/41 54/36/41 64/46/41 63/45/41
f 54/36/42 55/37/42 65/47/42 64/46/42
f 55/37/43 56/38/43 66/48/43 65/47/43
f 56/38/44 57/39/44 67/47/44 66/48/44
f 57/39/45 58/40/45 68/46/45 67/47/45
f 58/40/46 59/41/46 69/45/46 68/46/46
f 59/41/47 60/42/47 70/44/47 69/45/47
f 60/42/48 51/33/48 61/43/48 70/44/48
f 61/43/49 62/44/49 2/50/49 1/49/49
f 62/44/50 63/45/50 3/51/50 2/50/50
f 63/45/51 64/46/51 4/52/51 3/51/51
f 64/46/52 65/47/52 5/53/52 4/52/52
f 65/47/53 66/48/53 6/54/53 5/53/53
f 66/48/54 67/47/54 7/53/54 6/54/54
f 67/47/55 68/46/55 8/52/55 7/53/55
f 68/46/56 69/45/56 9/51/56 8/52/56
f 69/45/57 70/44/57 10/50/57 9/51/57
f 70/44/58 61/43/58 1/49/58 10/50/58
f 15/10/59 85/56/59 86/55/59 16/12/59
f 16/12/60 86/55/60 87/56/60 17/10/60
f 4/52/61 74/58/61 73/57/61 3/51/61
f 3/51/62 73/57/62 72/59/62 2/50/62
f 17/10/63 87/56/63 88/60/63 18/8/63
f 18/8/64 88/60/64 89/61/64 19/6/64
f 6/54/65 76/63/65 75/62/65 5/53/65
f 5/53/66 75/62/66 74/58/66 4/52/66
f 19/6/67 89/61/67 90/64/67 20/4/67
f 8/52/67 78/58/67 77/62/67 7/53/67
f 7/53/68 77/62/68 76/63/68 6/54/68
f 10/50/63 80/59/63 79/57/63 9/51/63
f 9/51/64 79/57/64 78/58/64 8/52/64
f 1/49/60 71/65/60 80/59/60 10/50/60
f 20/4/68 90/64/68 81/66/68 11/1/68
f 11/1/65 81/66/65 82/64/65 12/4/65
f 12/4/66 82/64/66 83/61/66 13/6/66
f 13/6/61 83/61/61 84/60/61 14/8/61
f 14/8/62 84/60/62 85/56/62 15/10/62
f 2/50/59 72/59/59 71/65/59 1/49/59
f 101/67/1 102/70/1 112/69/1 111/68/1
f 102/70/2 103/72/2 113/71/2 112/69/2
f 103/72/3 104/74/3 114/73/3 113/71/3
f 104/74/4 105/76/4 115/75/4 114/73/4
f 105/76/5 106/78/5 116/77/5 115/75/5
f 106/78/6 107/76/6 117/75/6 116/77/6
f 107/76/7 108/74/7 118/73/7 117/75/7
f 108/74/8 109/72/8 119/71/8 118/73/8
f 109/72/9 110/70/9 120/69/9 119/71/9
f 110/70/10 101/67/10 111/68/10 120/69/10
f 111/68/69 112/69/69 122/80/69 121/79/69
f 112/69/70 113/71/70 123/81/70 122/80/70
f 113/71/71 114/73/71 124/82/71 123/81/71
f 114/73/72 115/75/72 125/83/72 124/82/72
f 115/75/73 116/77/73 126/84/73 125/83/73
f 116/77/74 117/75/74 127/85/74 126/84/74
f 117/75/75 118/73/75 128/86/75 127/85/75
f 118/73/76 119/71/76 129/87/76 128/86/76
f 119/71/77 120/69/77 130/88/77 129/87/77
f 120/69/78 111/68/78 121/79/78 130/88/78
f 121/79/79 122/80/79 132/90/79 131/89/79
f 122/80/80 123/81/80 133/91/80 132/90/80
f 123/81/81 124/82/81 134/92/81 133/91/81
f 124/82/82 125/83/82 135/93/82 134/92/82
f 125/83/83 126/84/83 136/94/83 135/93/83
f 126/84/84 127/85/84 137/95/84 136/94/84
f 127/85/85 128/86/85 138/96/85 137/95/85
f 128/86/86 129/87/86 139/97/86 138/96/86
f 129/87/87 130/88/87 140/98/87 139/97/87
f 130/88/88 121/79/88 131/89/88 140/98/88
f 131/89/89 132/90/89 142/100/89 141/99/89
f 132/90/90 133/91/90 143/101/90 142/100/90
f 133/91/81 134/92/81 144/102/81 143/101/81
f 134/92/91 135/93/91 145/103/91 144/102/91
f 135/93/92 136/94/92 146/104/92 145/103/92
f 136/94/93 137/95/93 147/105/93 146/104/93
f 137/95/94 138/96/94 148/106/94 147/105/94
f 138/96/86 139/97/86 149/107/86 148/106/86
f 139/97/95 140/98/95 150/108/95 149/107/95
f 140/98/96 131/89/96 141/99/96 150/108/96
f 141/99/97 142/100/97 152/110/97 151/109/97
f 142/100/98 143/101/98 153/111/98 152/110/98
f 143/101/99 144/102/99 154/112/99 153/111/99
f 144/102/100 145/103/100 155/113/100 154/112/100
f 145/103/101 146/104/101 156/114/101 155/113/101
f 146/104/102 147/105/102 157/113/102 156/114/102
f 147/105/103 148/106/103 158/112/103 157/113/103
f 148/106/104 149/107/104 159/111/104 158/112/104
f 149/107/105 150/108/105 160/110/105 159/111/105
f 150/108/106 141/99/106 151/109/106 160/110/106
f 151/109/49 152/110/49 92/116/49 91/115/49
f 152/110/50 153/111/50 93/117/50 92/116/50
f 153/111/51 154/112/51 94/118/51 93/117/51
f 154/112/52 155/113/52 95/119/52 94/118/52
f 155/113/53 156/114/53 96/120/53 95/119/53
f 156/114/54 157/113/54 97/119/54 96/120/54
f 157/113/55 158/112/55 98/118/55 97/119/55
f 158/112/56 159/111/56 99/117/56 98/118/56
f 159/111/57 160/110/57 100/116/57 99/117/57
f 160/110/58 151/109/58 91/115/58 100/116/58
f 105/76/59 175/122/59 176/121/59 106/78/59
f 106/78/60 176/121/60 177/122/60 107/76/60
f 94/118/61 164/124/61 163/123/61 93/117/61
f 93/117/62 163/123/62 162/125/62 92/116/62
f 107/76/63 177/122/63 178/126/63 108/74/63
f 108/74/64 178/126/64 179/127/64 109/72/64
f 96/120/65 166/129/65 165/128/65 95/119/65
f 95/119/66 165/128/66 164/124/66 94/118/66
f 109/72/67 179/127/67 180/130/67 110/70/67
f 98/118/67 168/124/67 167/128/67 97/119/67
f 97/119/68 167/128/68 166/129/68 96/120/68
f 100/116/63 170/125/63 169/123/63 99/117/63
f 99/117/64 169/123/64 168/124/64 98/118/64
f 91/115/60 161/131/60 170/125/60 100/116/60
f 110/70/68 180/130/68 171/132/68 101/67/68
f 101/67/65 171/132/65 172/130/65 102/70/65
f 102/70/66 172/130/66 173/127/66 103/72/66
f 103/72/61 173/127/61 174/126/61 104/74/61
f 104/74/62 174/126/62 175/122/62 105/76/62
f 92/116/59 162/125/59 161/131/59 91/115/59
o Bag_MainBody02
v 1.095372 0.878655 -1.172220
v 1.076888 0.885800 -1.178147
v 1.087506 0.879612 -1.175184
v 1.080740 0.882227 -1.177353
v 1.095372 0.878655 -1.116201
v 1.076888 0.885800 -1.110274
v 1.087506 0.879612 -1.113238
v 1.080740 0.882227 -1.111068
v 1.146990 0.878655 -1.172220
v 1.165473 0.885800 -1.178147
v 1.154855 0.879612 -1.175184
v 1.161621 0.882227 -1.177353
v 1.146990 0.878655 -1.116201
v 1.165473 0.885800 -1.110274
v 1.154855 0.879612 -1.113238
v 1.161621 0.882227 -1.111068
v 1.046721 0.943144 -1.178147
v 1.075434 0.961855 -1.162626
v 1.046965 0.952500 -1.176068
v 1.057474 0.959348 -1.170387
v 1.075434 0.961855 -1.125795
v 1.046721 0.943144 -1.110274
v 1.057474 0.959348 -1.118034
v 1.046965 0.952500 -1.112353
v 1.166928 0.961855 -1.162626
v 1.195640 0.943144 -1.178147
v 1.184887 0.959348 -1.170387
v 1.195396 0.952500 -1.176068
v 1.166928 0.961855 -1.125795
v 1.195640 0.943144 -1.110274
v 1.184887 0.959348 -1.118034
v 1.195396 0.952500 -1.112353
v 1.179377 0.904915 -1.178147
v 1.190145 0.924030 -1.178147
v 1.052216 0.924030 -1.178147
v 1.062984 0.904915 -1.178147
v 1.052216 0.924030 -1.110274
v 1.062984 0.904915 -1.110274
v 1.190145 0.924030 -1.110274
v 1.179377 0.904915 -1.110274
vn -0.9611 -0.2763 -0.0000
vn 0.9611 -0.2763 -0.0000
vn -0.0000 -0.0000 1.0000
vn -0.0000 -0.0000 -1.0000
vn -0.1208 -0.9927 -0.0000
vn -0.3606 -0.9327 -0.0000
vn -0.6800 -0.7332 -0.0000
vn -0.0000 -0.9516 0.3074
vn -0.0000 -0.6385 0.7697
vn -0.0000 -0.2170 0.9762
vn 0.1208 -0.9927 -0.0000
vn 0.3606 -0.9327 -0.0000
vn 0.6800 -0.7332 -0.0000
vn -0.0000 -0.9516 -0.3074
vn -0.0000 -0.6385 -0.7697
vn -0.0000 -0.2170 -0.9762
vn -0.0000 -1.0000 -0.0000
vn -0.1382 0.9904 -0.0000
vn -0.5460 0.8378 -0.0000
vn -0.9997 0.0261 -0.0000
vn -0.0000 0.9516 0.3074
vn -0.0000 0.6385 0.7697
vn -0.0000 0.2170 0.9762
vn 0.1382 0.9904 -0.0000
vn 0.5460 0.8378 -0.0000
vn 0.9997 0.0261 -0.0000
vn -0.0000 0.9516 -0.3074
vn -0.0000 0.6385 -0.7697
vn -0.0000 0.2170 -0.9762
vn -0.0000 1.0000 -0.0000
vn 0.8087 -0.5882 -0.0000
vn 0.8713 -0.4908 -0.0000
vn -0.8087 -0.5882 -0.0000
vn -0.8713 -0.4908 -0.0000
vt 0.784249 0.449864
vt 0.781946 0.457872
vt 0.842031 0.449864
vt 0.844333 0.457872
vt 0.802328 0.430855
vt 0.799032 0.431256
vt 0.796198 0.432352
vt 0.794584 0.433849
vt 0.823952 0.430855
vt 0.827247 0.431256
vt 0.830081 0.432352
vt 0.831695 0.433849
vt 0.793975 0.465710
vt 0.786451 0.464660
vt 0.782049 0.461791
vt 0.832304 0.465710
vt 0.839828 0.464660
vt 0.844231 0.461791
vt 0.837520 0.441857
vt 0.788759 0.441857
s 0
usemtl Gradient_Colour
f 215/133/107 217/133/107 202/134/107 197/134/107
f 219/135/108 214/135/108 206/136/108 210/136/108
f 217/133/109 219/135/109 210/136/109 202/134/109
f 214/135/110 215/133/110 197/134/110 206/136/110
f 185/137/111 187/138/111 183/138/111 181/137/111
f 187/138/112 188/139/112 184/139/112 183/138/112
f 188/139/113 186/140/113 182/140/113 184/139/113
f 193/141/114 195/142/114 187/138/114 185/137/114
f 195/142/115 196/143/115 188/139/115 187/138/115
f 196/143/116 194/144/116 186/140/116 188/139/116
f 189/141/117 191/142/117 195/142/117 193/141/117
f 191/142/118 192/143/118 196/143/118 195/142/118
f 192/143/119 190/144/119 194/144/119 196/143/119
f 181/137/120 183/138/120 191/142/120 189/141/120
f 183/138/121 184/139/121 192/143/121 191/142/121
f 184/139/122 182/140/122 190/144/122 192/143/122
f 185/137/123 181/137/123 189/141/123 193/141/123
f 198/145/124 200/146/124 203/146/124 201/145/124
f 200/146/125 199/147/125 204/147/125 203/146/125
f 199/147/126 197/134/126 202/134/126 204/147/126
f 201/145/127 203/146/127 211/149/127 209/148/127
f 203/146/128 204/147/128 212/150/128 211/149/128
f 204/147/129 202/134/129 210/136/129 212/150/129
f 209/148/130 211/149/130 207/149/130 205/148/130
f 211/149/131 212/150/131 208/150/131 207/149/131
f 212/150/132 210/136/132 206/136/132 208/150/132
f 205/148/133 207/149/133 200/146/133 198/145/133
f 207/149/134 208/150/134 199/147/134 200/146/134
f 208/150/135 206/136/135 197/134/135 199/147/135
f 209/148/136 205/148/136 198/145/136 201/145/136
f 190/144/110 182/140/110 216/152/110 213/151/110
f 213/151/110 216/152/110 215/133/110 214/135/110
f 186/140/109 194/144/109 220/151/109 218/152/109
f 218/152/109 220/151/109 219/135/109 217/133/109
f 194/144/137 190/144/137 213/151/137 220/151/137
f 220/151/138 213/151/138 214/135/138 219/135/138
f 182/140/139 186/140/139 218/152/139 216/152/139
f 216/152/140 218/152/140 217/133/140 215/133/140
