# Blender 4.0.2
# www.blender.org
mtllib Green Towel.mtl
o Towel01
v 1.082774 0.901381 -3.723768
v 1.572106 0.901381 -3.704449
v 1.082774 0.901381 -4.697223
v 1.572106 0.901381 -4.697223
v 1.112999 0.901381 -4.637096
v 1.112999 0.901381 -3.783895
v 1.541882 0.901381 -3.764576
v 1.541882 0.901381 -4.637096
v 1.112999 0.919861 -4.494896
v 1.112999 0.901381 -4.352695
v 1.124563 0.901381 -4.210495
v 1.112999 0.901381 -4.068295
v 1.098352 0.901381 -3.926095
v 1.527235 0.901381 -3.906776
v 1.541882 0.901381 -4.068295
v 1.553447 0.901381 -4.210495
v 1.541882 0.901381 -4.352696
v 1.541882 0.919861 -4.494896
v 1.082774 0.919861 -4.534980
v 1.082774 0.901381 -4.372738
v 1.094339 0.901381 -4.210495
v 1.082774 0.901381 -4.048253
v 1.068128 0.901381 -3.886010
v 1.557459 0.901381 -3.866692
v 1.572106 0.901381 -4.048253
v 1.583671 0.901381 -4.210495
v 1.572106 0.901381 -4.372738
v 1.572106 0.919861 -4.534981
v 1.220219 0.901381 -3.783895
v 1.327440 0.901381 -3.783895
v 1.434661 0.901381 -3.764576
v 1.434661 0.901381 -4.637096
v 1.327440 0.901381 -4.637096
v 1.220219 0.901381 -4.637096
v 1.205107 0.901381 -3.723768
v 1.327440 0.901381 -3.723768
v 1.449773 0.901381 -3.704449
v 1.449773 0.901381 -4.697223
v 1.327440 0.901381 -4.697223
v 1.205107 0.901381 -4.697223
v 1.420014 0.901381 -3.926095
v 1.312793 0.901381 -3.926095
v 1.205573 0.901381 -3.926095
v 1.434661 0.901381 -4.068295
v 1.327440 0.901381 -4.068295
v 1.220219 0.901381 -4.068295
v 1.446226 0.901381 -4.210495
v 1.339005 0.901381 -4.210495
v 1.231784 0.901381 -4.210495
v 1.434661 0.901381 -4.352696
v 1.327440 0.901381 -4.352695
v 1.220219 0.901381 -4.352695
v 1.434661 0.919861 -4.494896
v 1.327440 0.919861 -4.494896
v 1.220219 0.919861 -4.494896
v 1.082774 0.899052 -3.723768
v 1.572106 0.899052 -3.704449
v 1.082521 0.899083 -4.696619
v 1.572359 0.899083 -4.696619
v 1.112814 0.899088 -4.636331
v 1.112999 0.899052 -3.783895
v 1.541882 0.899052 -3.764576
v 1.542067 0.899088 -4.636331
v 1.113022 0.917535 -4.495121
v 1.113059 0.899069 -4.353257
v 1.124563 0.899052 -4.210495
v 1.112999 0.899052 -4.068295
v 1.098352 0.899052 -3.926095
v 1.527235 0.899052 -3.906776
v 1.541882 0.899052 -4.068295
v 1.553447 0.899052 -4.210495
v 1.541821 0.899069 -4.353257
v 1.541858 0.917535 -4.495121
v 1.082525 0.917554 -4.534544
v 1.082964 0.899088 -4.373493
v 1.094339 0.899052 -4.210495
v 1.082774 0.899052 -4.048253
v 1.068128 0.899052 -3.886010
v 1.557459 0.899052 -3.866692
v 1.572106 0.899052 -4.048253
v 1.583671 0.899052 -4.210495
v 1.571933 0.899082 -4.373428
v 1.572355 0.917554 -4.534544
v 1.220219 0.899052 -3.783895
v 1.327440 0.899052 -3.783895
v 1.434661 0.899052 -3.764576
v 1.434661 0.899073 -4.636453
v 1.327440 0.899073 -4.636453
v 1.220219 0.899073 -4.636453
v 1.205107 0.899052 -3.723768
v 1.327440 0.899052 -3.723768
v 1.449773 0.899052 -3.704449
v 1.449773 0.899052 -4.697223
v 1.327440 0.899052 -4.697223
v 1.205107 0.899052 -4.697223
v 1.420014 0.899052 -3.926095
v 1.312793 0.899052 -3.926095
v 1.205573 0.899052 -3.926095
v 1.434661 0.899052 -4.068295
v 1.327440 0.899052 -4.068295
v 1.220219 0.899052 -4.068295
v 1.446226 0.899052 -4.210495
v 1.339005 0.899052 -4.210495
v 1.231784 0.899052 -4.210495
v 1.434661 0.899073 -4.353339
v 1.327440 0.899073 -4.353339
v 1.220219 0.899073 -4.353339
v 1.434661 0.917532 -4.494896
v 1.327440 0.917532 -4.494896
v 1.220219 0.917532 -4.494896
vn -0.0000 0.9917 -0.1289
vn 0.1959 0.9735 -0.1182
vn -0.0000 1.0000 -0.0000
vn -0.1959 0.9735 -0.1182
vn 0.1190 0.9857 0.1197
vn -0.1190 0.9857 0.1197
vn -0.0000 0.9917 0.1289
vn 0.0001 -0.9916 0.1294
vn -0.1948 -0.9736 0.1187
vn -0.0000 -1.0000 -0.0000
vn 0.0002 -1.0000 0.0003
vn 0.1948 -0.9736 0.1187
vn -0.1178 -0.9857 -0.1204
vn 0.0002 -1.0000 -0.0002
vn -0.0003 -1.0000 -0.0001
vn 0.1179 -0.9857 -0.1204
vn -0.0000 -1.0000 -0.0001
vn -0.0001 -0.9916 -0.1292
vn 0.0001 -0.9916 -0.1292
vn -0.0000 -0.9916 -0.1293
vn -0.0002 -1.0000 0.0003
vn -0.0000 -1.0000 0.0003
vn -0.0001 -0.9916 0.1294
vn -0.0000 -0.9916 0.1293
vn -0.9959 -0.0000 0.0899
vn -0.0000 -0.0000 1.0000
vn 0.9943 0.1056 -0.0120
vn -0.0025 -0.1292 -0.9916
vn -0.9943 0.1056 -0.0120
vn -0.9999 0.0127 0.0028
vn -0.9962 -0.0523 0.0703
vn -0.9975 -0.0000 -0.0711
vn -0.9959 -0.0000 -0.0899
vn 0.9959 -0.0000 -0.0899
vn 0.9968 -0.0000 0.0804
vn 0.9975 -0.0000 0.0711
vn 0.9971 -0.0267 -0.0715
vn 0.9999 0.0162 0.0032
vn -0.1560 -0.0000 0.9878
vn 0.0025 -0.1292 -0.9916
vn -0.0000 -0.0000 -1.0000
vt 0.690097 0.206053
vt 0.696572 0.206053
vt 0.696572 0.214639
vt 0.690097 0.214639
vt 0.805627 0.200994
vt 0.805494 0.204805
vt 0.804517 0.206482
vt 0.804647 0.202139
vt 0.809777 0.179041
vt 0.806238 0.178968
vt 0.805292 0.176990
vt 0.809349 0.177074
vt 0.819651 0.183184
vt 0.820423 0.178633
vt 0.821552 0.176693
vt 0.820722 0.181929
vt 0.815415 0.204996
vt 0.818720 0.205059
vt 0.819538 0.206769
vt 0.815785 0.206697
vt 0.819088 0.201255
vt 0.819958 0.202435
vt 0.819250 0.196840
vt 0.820162 0.197450
vt 0.819892 0.192599
vt 0.820855 0.192619
vt 0.819804 0.188248
vt 0.820819 0.187648
vt 0.805629 0.183511
vt 0.804675 0.182218
vt 0.805979 0.187971
vt 0.805020 0.187330
vt 0.806223 0.192328
vt 0.805259 0.192309
vt 0.805731 0.196574
vt 0.804762 0.197147
vt 0.690097 0.161952
vt 0.696572 0.161952
vt 0.695688 0.170539
vt 0.689213 0.171705
vt 0.696572 0.180292
vt 0.690097 0.180292
vt 0.697270 0.188879
vt 0.690796 0.188879
vt 0.696572 0.197466
vt 0.690097 0.197466
vt 0.670674 0.197466
vt 0.677148 0.197466
vt 0.677148 0.206053
vt 0.670674 0.206053
vt 0.683623 0.197466
vt 0.683623 0.206053
vt 0.671372 0.188879
vt 0.677847 0.188879
vt 0.684321 0.188879
vt 0.670674 0.180292
vt 0.677148 0.180292
vt 0.683623 0.180292
vt 0.669789 0.171705
vt 0.676264 0.171705
vt 0.682738 0.171705
vt 0.670674 0.163118
vt 0.677148 0.163118
vt 0.683623 0.163118
vt 0.808802 0.204868
vt 0.808274 0.206554
vt 0.812109 0.204932
vt 0.812030 0.206626
vt 0.816884 0.178560
vt 0.817494 0.176609
vt 0.813313 0.179113
vt 0.813405 0.177158
vt 0.677148 0.214639
vt 0.670674 0.214639
vt 0.683623 0.214639
s 0
usemtl Gradient_Colour
f 53/1/1 18/2/1 8/3/1 32/4/1
f 9/5/2 5/6/2 3/7/2 19/8/2
f 29/9/3 6/10/3 1/11/3 35/12/3
f 14/13/3 7/14/3 2/15/3 24/16/3
f 32/17/3 8/18/3 4/19/3 38/20/3
f 8/18/4 18/21/4 28/22/4 4/19/4
f 18/21/5 17/23/5 27/24/5 28/22/5
f 17/23/3 16/25/3 26/26/3 27/24/3
f 16/25/3 15/27/3 25/28/3 26/26/3
f 15/27/3 14/13/3 24/16/3 25/28/3
f 6/10/3 13/29/3 23/30/3 1/11/3
f 13/29/3 12/31/3 22/32/3 23/30/3
f 12/31/3 11/33/3 21/34/3 22/32/3
f 11/33/3 10/35/3 20/36/3 21/34/3
f 10/35/6 9/5/6 19/8/6 20/36/6
f 31/37/3 7/38/3 14/39/3 41/40/3
f 41/40/3 14/39/3 15/41/3 44/42/3
f 44/42/3 15/41/3 16/43/3 47/44/3
f 47/44/3 16/43/3 17/45/3 50/46/3
f 50/46/7 17/45/7 18/2/7 53/1/7
f 10/47/7 52/48/7 55/49/7 9/50/7
f 52/48/7 51/51/7 54/52/7 55/49/7
f 51/51/7 50/46/7 53/1/7 54/52/7
f 11/53/3 49/54/3 52/48/3 10/47/3
f 49/54/3 48/55/3 51/51/3 52/48/3
f 48/55/3 47/44/3 50/46/3 51/51/3
f 12/56/3 46/57/3 49/54/3 11/53/3
f 46/57/3 45/58/3 48/55/3 49/54/3
f 45/58/3 44/42/3 47/44/3 48/55/3
f 13/59/3 43/60/3 46/57/3 12/56/3
f 43/60/3 42/61/3 45/58/3 46/57/3
f 42/61/3 41/40/3 44/42/3 45/58/3
f 6/62/3 29/63/3 43/60/3 13/59/3
f 29/63/3 30/64/3 42/61/3 43/60/3
f 30/64/3 31/37/3 41/40/3 42/61/3
f 5/6/3 34/65/3 40/66/3 3/7/3
f 34/65/3 33/67/3 39/68/3 40/66/3
f 33/67/3 32/17/3 38/20/3 39/68/3
f 7/14/3 31/69/3 37/70/3 2/15/3
f 31/69/3 30/71/3 36/72/3 37/70/3
f 30/71/3 29/9/3 35/12/3 36/72/3
f 9/50/1 55/49/1 34/73/1 5/74/1
f 55/49/1 54/52/1 33/75/1 34/73/1
f 54/52/1 53/1/1 32/4/1 33/75/1
f 108/1/8 87/4/8 63/3/8 73/2/8
f 64/5/9 74/8/9 58/7/9 60/6/9
f 84/9/10 90/12/10 56/11/10 61/10/10
f 69/13/10 79/16/10 57/15/10 62/14/10
f 87/17/11 93/20/11 59/19/11 63/18/11
f 63/18/12 59/19/12 83/22/12 73/21/12
f 73/21/13 83/22/13 82/24/13 72/23/13
f 72/23/14 82/24/14 81/26/14 71/25/14
f 71/25/10 81/26/10 80/28/10 70/27/10
f 70/27/10 80/28/10 79/16/10 69/13/10
f 61/10/10 56/11/10 78/30/10 68/29/10
f 68/29/10 78/30/10 77/32/10 67/31/10
f 67/31/10 77/32/10 76/34/10 66/33/10
f 66/33/15 76/34/15 75/36/15 65/35/15
f 65/35/16 75/36/16 74/8/16 64/5/16
f 86/37/10 96/40/10 69/39/10 62/38/10
f 96/40/10 99/42/10 70/41/10 69/39/10
f 99/42/10 102/44/10 71/43/10 70/41/10
f 102/44/17 105/46/17 72/45/17 71/43/17
f 105/46/18 108/1/18 73/2/18 72/45/18
f 65/47/19 64/50/19 110/49/19 107/48/19
f 107/48/20 110/49/20 109/52/20 106/51/20
f 106/51/20 109/52/20 108/1/20 105/46/20
f 66/53/17 65/47/17 107/48/17 104/54/17
f 104/54/17 107/48/17 106/51/17 103/55/17
f 103/55/17 106/51/17 105/46/17 102/44/17
f 67/56/10 66/53/10 104/54/10 101/57/10
f 101/57/10 104/54/10 103/55/10 100/58/10
f 100/58/10 103/55/10 102/44/10 99/42/10
f 68/59/10 67/56/10 101/57/10 98/60/10
f 98/60/10 101/57/10 100/58/10 97/61/10
f 97/61/10 100/58/10 99/42/10 96/40/10
f 61/62/10 68/59/10 98/60/10 84/63/10
f 84/63/10 98/60/10 97/61/10 85/64/10
f 85/64/10 97/61/10 96/40/10 86/37/10
f 60/6/21 58/7/21 95/66/21 89/65/21
f 89/65/22 95/66/22 94/68/22 88/67/22
f 88/67/22 94/68/22 93/20/22 87/17/22
f 62/14/10 57/15/10 92/70/10 86/69/10
f 86/69/10 92/70/10 91/72/10 85/71/10
f 85/71/10 91/72/10 90/12/10 84/9/10
f 64/50/23 60/74/23 89/73/23 110/49/23
f 110/49/24 89/73/24 88/75/24 109/52/24
f 109/52/24 88/75/24 87/4/24 108/1/24
f 1/11/25 23/30/25 78/30/25 56/11/25
f 2/15/26 37/70/26 92/70/26 57/15/26
f 4/19/27 28/22/27 83/22/27 59/19/27
f 3/7/28 40/66/28 95/66/28 58/7/28
f 19/8/29 3/7/29 58/7/29 74/8/29
f 20/36/30 19/8/30 74/8/30 75/36/30
f 21/34/31 20/36/31 75/36/31 76/34/31
f 22/32/32 21/34/32 76/34/32 77/32/32
f 23/30/33 22/32/33 77/32/33 78/30/33
f 24/16/34 2/15/34 57/15/34 79/16/34
f 25/28/35 24/16/35 79/16/35 80/28/35
f 26/26/36 25/28/36 80/28/36 81/26/36
f 27/24/37 26/26/37 81/26/37 82/24/37
f 28/22/38 27/24/38 82/24/38 83/22/38
f 35/12/26 1/11/26 56/11/26 90/12/26
f 36/72/26 35/12/26 90/12/26 91/72/26
f 37/70/39 36/72/39 91/72/39 92/70/39
f 38/20/40 4/19/40 59/19/40 93/20/40
f 39/68/41 38/20/41 93/20/41 94/68/41
f 40/66/41 39/68/41 94/68/41 95/66/41
