# Blender 4.0.2
# www.blender.org
mtllib Orange Towel.mtl
o Towel04
v 3.244303 0.983472 -3.975288
v 2.992596 0.980295 -4.135175
v 3.239532 1.010020 -3.968305
v 2.987825 1.006843 -4.128191
v 3.227520 1.026427 -3.949719
v 2.975812 1.023250 -4.109606
v 3.212853 1.026427 -3.926630
v 2.961145 1.023250 -4.086516
v 3.201135 1.010020 -3.907856
v 2.949427 1.006843 -4.067743
v 3.196842 0.983472 -3.900570
v 2.945134 0.980295 -4.060456
v 3.201613 0.956925 -3.907553
v 2.949905 0.953748 -4.067440
v 3.213626 0.940517 -3.926139
v 2.961918 0.937340 -4.086026
v 3.228292 0.940517 -3.949228
v 2.976584 0.937340 -4.109115
v 3.240010 0.956925 -3.968002
v 2.988302 0.953748 -4.127888
v 3.213626 0.940517 -3.926139
v 2.961918 0.937340 -4.086026
v 3.213626 0.935816 -3.841676
v 2.961918 0.937340 -3.967483
v 2.961918 0.937340 -4.012765
v 2.961918 0.937340 -4.042401
v 2.961918 0.937340 -4.072037
v 3.213626 0.940517 -3.912150
v 3.213626 0.939300 -3.882514
v 3.213626 0.945522 -3.852879
v 3.153891 0.939763 -3.964083
v 3.153891 0.947691 -3.845540
v 3.153891 0.939763 -3.950094
v 3.153891 0.938835 -3.920458
v 3.153891 0.943735 -3.890822
v 3.057904 0.938552 -4.011065
v 3.057904 0.938088 -3.981430
v 3.057904 0.945119 -3.951794
v 3.057904 0.938552 -4.025054
v 3.057904 0.944797 -3.897339
v 3.242320 0.983452 -3.975746
v 2.993853 0.980316 -4.133574
v 3.237622 1.009593 -3.968869
v 2.989155 1.006457 -4.126698
v 3.225793 1.025749 -3.950568
v 2.977326 1.022613 -4.108396
v 3.211351 1.025749 -3.927832
v 2.962884 1.022613 -4.085660
v 3.199812 1.009593 -3.909346
v 2.951345 1.006457 -4.067174
v 3.195585 0.983452 -3.902171
v 2.947117 0.980316 -4.059999
v 3.200283 0.957311 -3.909047
v 2.951815 0.954174 -4.066875
v 3.213001 0.941327 -3.926845
v 2.964031 0.937873 -4.084874
v 3.226554 0.941154 -3.950085
v 2.978086 0.938018 -4.107913
v 3.238092 0.957311 -3.968571
v 2.989625 0.954174 -4.126399
v 3.215295 0.941212 -3.925074
v 2.963799 0.937962 -4.084826
v 3.214426 0.936677 -3.841110
v 2.961428 0.938222 -3.967747
v 2.961602 0.938231 -4.013011
v 2.961842 0.938241 -4.042493
v 2.961912 0.938244 -4.072030
v 3.213613 0.941420 -3.912127
v 3.213645 0.940199 -3.882600
v 3.214096 0.946415 -3.852647
v 3.155663 0.940425 -3.962952
v 3.154161 0.948593 -3.845378
v 3.153881 0.940667 -3.950077
v 3.153955 0.939735 -3.920511
v 3.154139 0.944633 -3.890779
v 3.057898 0.939455 -4.011054
v 3.057901 0.938988 -3.981506
v 3.057793 0.946016 -3.951954
v 3.059676 0.939213 -4.023924
v 3.057707 0.945695 -3.897465
vn 0.5082 0.3034 -0.8061
vn 0.3121 0.8032 -0.5073
vn -0.0090 0.9999 -0.0057
vn -0.3266 0.8032 0.4982
vn -0.5136 0.3034 0.8026
vn -0.5082 -0.3034 0.8061
vn -0.3121 -0.8032 0.5073
vn 0.0090 -0.9999 0.0057
vn -0.8441 -0.0107 -0.5361
vn 0.3266 -0.8032 -0.4982
vn 0.5136 -0.3034 -0.8026
vn 0.8441 0.0107 0.5361
vn -0.0485 -0.9937 -0.1012
vn 0.0126 -0.9999 -0.0000
vn 0.0332 -0.9988 -0.0362
vn -0.0981 -0.9781 0.1835
vn -0.1276 -0.9723 0.1957
vn 0.0251 -0.9994 -0.0235
vn -0.0135 -0.9992 0.0364
vn 0.0813 -0.9967 -0.0032
vn 0.0152 -0.9999 -0.0078
vn -0.0307 -0.9926 0.1177
vn 0.3116 0.8033 -0.5075
vn -0.0093 0.9999 -0.0062
vn 0.8444 0.0127 0.5356
vn -0.8448 -0.0150 -0.5349
vn -0.0815 0.9909 0.1075
vn 0.0483 0.9938 0.1005
vn -0.0017 0.9998 -0.0177
vn -0.0333 0.9988 0.0364
vn 0.0981 0.9782 -0.1832
vn 0.1275 0.9723 -0.1957
vn -0.0252 0.9994 0.0237
vn -0.0006 0.9998 -0.0189
vn 0.0135 0.9992 -0.0364
vn -0.0811 0.9967 0.0031
vn 0.0001 0.9998 -0.0204
vn -0.0152 0.9999 0.0079
vn 0.0307 0.9926 -0.1178
vn 0.1553 0.7565 -0.6353
vn 0.5887 -0.2231 -0.7769
vn -0.1258 -0.3125 0.9416
vn -0.6099 0.7909 -0.0513
vn 0.8234 -0.4253 -0.3756
vn -0.9102 -0.4141 -0.0018
vn -0.9768 -0.2143 -0.0040
vn -0.9990 -0.0453 -0.0012
vn 0.6769 -0.7345 0.0479
vn 1.0000 -0.0040 -0.0007
vn 0.9625 -0.2670 0.0485
vn -0.4751 0.0020 0.8799
vn -0.5866 -0.0488 0.8084
vt 0.065812 0.525276
vt 0.051195 0.524895
vt 0.051743 0.526049
vt 0.066405 0.526429
vt 0.052543 0.526502
vt 0.067267 0.526882
vt 0.053291 0.526072
vt 0.068071 0.526455
vt 0.053697 0.524917
vt 0.068505 0.525303
vt 0.053601 0.523483
vt 0.068398 0.523871
vt 0.053042 0.522326
vt 0.067793 0.522715
vt 0.052238 0.521890
vt 0.066927 0.522278
vt 0.051499 0.522333
vt 0.066133 0.522719
vt 0.051102 0.523479
vt 0.065709 0.523862
vt 0.063446 0.522187
vt 0.057846 0.522039
vt 0.067234 0.521401
vt 0.070161 0.519484
vt 0.070294 0.517806
vt 0.069240 0.519630
vt 0.067641 0.522093
vt 0.064154 0.522001
vt 0.069142 0.521639
vt 0.065649 0.521560
vt 0.060028 0.521434
vt 0.061622 0.521378
vt 0.058545 0.521853
vt 0.064402 0.520623
vt 0.055880 0.520907
vt 0.058162 0.520291
vt 0.052929 0.521704
vt 0.054399 0.521307
s 0
usemtl Gradient_Colour
f 1/1/1 2/2/1 4/3/1 3/4/1
f 3/4/2 4/3/2 6/5/2 5/6/2
f 5/6/3 6/5/3 8/7/3 7/8/3
f 7/8/4 8/7/4 10/9/4 9/10/4
f 9/10/5 10/9/5 12/11/5 11/12/5
f 11/12/6 12/11/6 14/13/6 13/14/6
f 13/14/7 14/13/7 16/15/7 15/16/7
f 15/16/8 16/15/8 18/17/8 17/18/8
f 4/3/9 2/2/9 20/19/9 18/17/9 16/15/9 14/13/9 12/11/9 10/9/9 8/7/9 6/5/9
f 17/18/10 18/17/10 20/19/10 19/20/10
f 19/20/11 20/19/11 2/2/11 1/1/11
f 1/1/12 3/4/12 5/6/12 7/8/12 9/10/12 11/12/12 13/14/12 15/16/12 17/18/12 19/20/12
f 16/15/9 15/16/9 21/16/9 31/21/9 39/22/9 22/15/9
f 35/23/13 30/24/13 23/25/13 32/26/13
f 31/21/14 21/16/14 28/27/14 33/28/14
f 33/28/15 28/27/15 29/29/15 34/30/15
f 34/30/16 29/29/16 30/24/16 35/23/16
f 37/31/17 34/30/17 35/23/17 38/32/17
f 36/33/18 33/28/18 34/30/18 37/31/18
f 39/22/14 31/21/14 33/28/14 36/33/14
f 38/32/19 35/23/19 32/26/19 40/34/19
f 25/35/20 38/32/20 40/34/20 24/36/20
f 22/15/14 39/22/14 36/33/14 27/37/14
f 27/37/21 36/33/21 37/31/21 26/38/21
f 26/38/22 37/31/22 38/32/22 25/35/22
f 41/1/6 43/4/6 44/3/6 42/2/6
f 43/4/7 45/6/7 46/5/7 44/3/7
f 45/6/8 47/8/8 48/7/8 46/5/8
f 47/8/10 49/10/10 50/9/10 48/7/10
f 49/10/11 51/12/11 52/11/11 50/9/11
f 51/12/1 53/14/1 54/13/1 52/11/1
f 53/14/23 55/16/23 56/15/23 54/13/23
f 55/16/24 57/18/24 58/17/24 56/15/24
f 44/3/25 46/5/25 48/7/25 50/9/25 52/11/25 54/13/25 56/15/25 58/17/25 60/19/25 42/2/25
f 57/18/4 59/20/4 60/19/4 58/17/4
f 59/20/5 41/1/5 42/2/5 60/19/5
f 41/1/26 59/20/26 57/18/26 55/16/26 53/14/26 51/12/26 49/10/26 47/8/26 45/6/26 43/4/26
f 56/15/27 62/15/27 79/22/27 71/21/27 61/16/27 55/16/27
f 75/23/28 72/26/28 63/25/28 70/24/28
f 71/21/29 73/28/29 68/27/29 61/16/29
f 73/28/30 74/30/30 69/29/30 68/27/30
f 74/30/31 75/23/31 70/24/31 69/29/31
f 77/31/32 78/32/32 75/23/32 74/30/32
f 76/33/33 77/31/33 74/30/33 73/28/33
f 79/22/34 76/33/34 73/28/34 71/21/34
f 78/32/35 80/34/35 72/26/35 75/23/35
f 65/35/36 64/36/36 80/34/36 78/32/36
f 62/15/37 67/37/37 76/33/37 79/22/37
f 67/37/38 66/38/38 77/31/38 76/33/38
f 66/38/39 65/35/39 78/32/39 77/31/39
f 16/15/40 22/15/40 62/15/40 56/15/40
f 21/16/41 15/16/41 55/16/41 61/16/41
f 32/26/42 23/25/42 63/25/42 72/26/42
f 22/15/43 27/37/43 67/37/43 62/15/43
f 23/25/44 30/24/44 70/24/44 63/25/44
f 25/35/45 24/36/45 64/36/45 65/35/45
f 26/38/46 25/35/46 65/35/46 66/38/46
f 27/37/47 26/38/47 66/38/47 67/37/47
f 28/27/48 21/16/48 61/16/48 68/27/48
f 29/29/49 28/27/49 68/27/49 69/29/49
f 30/24/50 29/29/50 69/29/50 70/24/50
f 40/34/51 32/26/51 72/26/51 80/34/51
f 24/36/52 40/34/52 80/34/52 64/36/52
