# Blender 4.0.2
# www.blender.org
mtllib Y-Bag.mtl
o Bag_Handles04
v 1.561114 0.979538 -1.164436
v 1.561808 0.979538 -1.167250
v 1.563625 0.979538 -1.168989
v 1.565871 0.979538 -1.168989
v 1.567688 0.979538 -1.167250
v 1.568383 0.979538 -1.164436
v 1.567688 0.979538 -1.161623
v 1.565871 0.979538 -1.159884
v 1.563625 0.979538 -1.159884
v 1.561808 0.979538 -1.161623
v 1.651971 0.979538 -1.164436
v 1.651277 0.979538 -1.167250
v 1.649459 0.979538 -1.168989
v 1.647213 0.979538 -1.168989
v 1.645396 0.979538 -1.167250
v 1.644702 0.979538 -1.164436
v 1.645396 0.979538 -1.161623
v 1.647213 0.979538 -1.159884
v 1.649459 0.979538 -1.159884
v 1.651277 0.979538 -1.161623
v 1.645885 1.025580 -1.169398
v 1.645283 1.024876 -1.172212
v 1.643710 1.023035 -1.173951
v 1.641765 1.020758 -1.173951
v 1.640191 1.018916 -1.172212
v 1.639590 1.018213 -1.169398
v 1.640191 1.018916 -1.166584
v 1.641765 1.020758 -1.164845
v 1.643710 1.023035 -1.164845
v 1.645283 1.024876 -1.166584
v 1.629256 1.059016 -1.177559
v 1.628909 1.055924 -1.179744
v 1.628001 1.051829 -1.180421
v 1.626878 1.048294 -1.179331
v 1.625969 1.046671 -1.176890
v 1.625622 1.047578 -1.174031
v 1.625969 1.050669 -1.171846
v 1.626878 1.054765 -1.171169
v 1.628001 1.058299 -1.172259
v 1.628909 1.059923 -1.174699
v 1.606542 1.070075 -1.180969
v 1.606542 1.066814 -1.183102
v 1.606542 1.062277 -1.183643
v 1.606542 1.058195 -1.182384
v 1.606542 1.056129 -1.179807
v 1.606542 1.056867 -1.176896
v 1.606542 1.060128 -1.174763
v 1.606542 1.064665 -1.174222
v 1.606542 1.068747 -1.175481
v 1.606542 1.070813 -1.178058
v 1.583828 1.059016 -1.177559
v 1.584175 1.055924 -1.179744
v 1.585084 1.051829 -1.180421
v 1.586207 1.048294 -1.179331
v 1.587115 1.046671 -1.176890
v 1.587462 1.047578 -1.174031
v 1.587115 1.050669 -1.171846
v 1.586207 1.054765 -1.171169
v 1.585084 1.058299 -1.172259
v 1.584175 1.059923 -1.174699
v 1.567200 1.025580 -1.169398
v 1.567801 1.024876 -1.172212
v 1.569375 1.023035 -1.173951
v 1.571320 1.020758 -1.173951
v 1.572894 1.018916 -1.172212
v 1.573495 1.018213 -1.169398
v 1.572894 1.018916 -1.166584
v 1.571320 1.020758 -1.164845
v 1.569375 1.023035 -1.164845
v 1.567801 1.024876 -1.166584
v 1.561317 0.975884 -1.164262
v 1.562011 0.975884 -1.167076
v 1.563828 0.975884 -1.168815
v 1.566074 0.975884 -1.168815
v 1.567891 0.975884 -1.167076
v 1.568585 0.975884 -1.164262
v 1.567891 0.975884 -1.161449
v 1.566074 0.975884 -1.159710
v 1.563828 0.975884 -1.159710
v 1.562011 0.975884 -1.161449
v 1.652173 0.975884 -1.164262
v 1.651479 0.975884 -1.167076
v 1.649662 0.975884 -1.168815
v 1.647416 0.975884 -1.168815
v 1.645599 0.975884 -1.167076
v 1.644905 0.975884 -1.164262
v 1.645599 0.975884 -1.161449
v 1.647416 0.975884 -1.159710
v 1.649662 0.975884 -1.159710
v 1.651479 0.975884 -1.161449
v 1.561114 0.978874 -1.119832
v 1.561808 0.978874 -1.122646
v 1.563625 0.978874 -1.124385
v 1.565871 0.978874 -1.124385
v 1.567688 0.978874 -1.122646
v 1.568383 0.978874 -1.119832
v 1.567688 0.978874 -1.117018
v 1.565871 0.978874 -1.115279
v 1.563625 0.978874 -1.115279
v 1.561808 0.978874 -1.117018
v 1.651971 0.978874 -1.119832
v 1.651277 0.978874 -1.122646
v 1.649459 0.978874 -1.124385
v 1.647213 0.978874 -1.124385
v 1.645396 0.978874 -1.122646
v 1.644702 0.978874 -1.119832
v 1.645396 0.978874 -1.117018
v 1.647213 0.978874 -1.115279
v 1.649459 0.978874 -1.115279
v 1.651277 0.978874 -1.117018
v 1.645885 1.024916 -1.124794
v 1.645283 1.024212 -1.127607
v 1.643710 1.022371 -1.129346
v 1.641765 1.020094 -1.129346
v 1.640191 1.018253 -1.127607
v 1.639590 1.017549 -1.124794
v 1.640191 1.018253 -1.121980
v 1.641765 1.020094 -1.120241
v 1.643710 1.022371 -1.120241
v 1.645283 1.024212 -1.121980
v 1.629256 1.058620 -1.125796
v 1.628909 1.057288 -1.128590
v 1.628001 1.054029 -1.130278
v 1.626878 1.050087 -1.130216
v 1.625969 1.046968 -1.128427
v 1.625622 1.045865 -1.125595
v 1.625969 1.047197 -1.122802
v 1.626878 1.050456 -1.121114
v 1.628001 1.054398 -1.121176
v 1.628909 1.057516 -1.122965
v 1.606542 1.070953 -1.125991
v 1.606542 1.069432 -1.128782
v 1.606542 1.065680 -1.130462
v 1.606542 1.061128 -1.130390
v 1.606542 1.057517 -1.128594
v 1.606542 1.056224 -1.125759
v 1.606542 1.057745 -1.122968
v 1.606542 1.061497 -1.121288
v 1.606542 1.066049 -1.121360
v 1.606542 1.069660 -1.123156
v 1.583828 1.058620 -1.125796
v 1.584175 1.057288 -1.128590
v 1.585084 1.054029 -1.130278
v 1.586207 1.050087 -1.130216
v 1.587115 1.046968 -1.128427
v 1.587462 1.045865 -1.125595
v 1.587115 1.047197 -1.122802
v 1.586207 1.050456 -1.121114
v 1.585084 1.054398 -1.121176
v 1.584175 1.057516 -1.122965
v 1.567200 1.024916 -1.124794
v 1.567801 1.024212 -1.127607
v 1.569375 1.022371 -1.129346
v 1.571320 1.020094 -1.129346
v 1.572894 1.018253 -1.127607
v 1.573495 1.017549 -1.124794
v 1.572894 1.018253 -1.121980
v 1.571320 1.020094 -1.120241
v 1.569375 1.022371 -1.120241
v 1.567801 1.024212 -1.121980
v 1.561317 0.975220 -1.119658
v 1.562011 0.975220 -1.122472
v 1.563828 0.975220 -1.124211
v 1.566074 0.975220 -1.124211
v 1.567891 0.975220 -1.122472
v 1.568585 0.975220 -1.119658
v 1.567891 0.975220 -1.116844
v 1.566074 0.975220 -1.115105
v 1.563828 0.975220 -1.115105
v 1.562011 0.975220 -1.116844
v 1.652173 0.975220 -1.119658
v 1.651479 0.975220 -1.122472
v 1.649662 0.975220 -1.124211
v 1.647416 0.975220 -1.124211
v 1.645599 0.975220 -1.122472
v 1.644905 0.975220 -1.119658
v 1.645599 0.975220 -1.116844
v 1.647416 0.975220 -1.115105
v 1.649662 0.975220 -1.115105
v 1.651479 0.975220 -1.116844
vn 0.9665 0.1022 -0.2352
vn 0.7118 0.0156 -0.7022
vn 0.0589 -0.1085 -0.9924
vn -0.6562 -0.1771 -0.7335
vn -0.9579 -0.1572 -0.2401
vn -0.9671 -0.0980 0.2348
vn -0.7138 -0.0081 0.7003
vn -0.0589 0.1085 0.9924
vn 0.6595 0.1690 0.7325
vn 0.9587 0.1528 0.2398
vn 0.8474 0.3330 -0.4135
vn 0.5545 0.1041 -0.8256
vn 0.0209 -0.1950 -0.9806
vn -0.5744 -0.4292 -0.6970
vn -0.8804 -0.4558 -0.1308
vn -0.8518 -0.3266 0.4095
vn -0.5579 -0.1019 0.8236
vn -0.0109 0.1899 0.9817
vn 0.5838 0.4199 0.6949
vn 0.8806 0.4555 0.1308
vn 0.3651 0.5097 -0.7790
vn 0.2024 0.1159 -0.9724
vn -0.0000 -0.2947 -0.9556
vn -0.2749 -0.7501 -0.6014
vn -0.4535 -0.8639 0.2191
vn -0.3651 -0.5097 0.7790
vn -0.2024 -0.1159 0.9724
vn -0.0000 0.2947 0.9556
vn 0.2749 0.7501 0.6014
vn 0.4535 0.8639 -0.2191
vn -0.3651 0.5097 -0.7790
vn -0.2024 0.1159 -0.9724
vn 0.2749 -0.7501 -0.6014
vn 0.4535 -0.8639 0.2191
vn 0.3651 -0.5097 0.7790
vn 0.2024 -0.1159 0.9724
vn -0.2749 0.7501 0.6014
vn -0.4535 0.8639 -0.2191
vn -0.8474 0.3330 -0.4135
vn -0.5545 0.1041 -0.8256
vn -0.0209 -0.1950 -0.9806
vn 0.5744 -0.4292 -0.6970
vn 0.8804 -0.4558 -0.1308
vn 0.8518 -0.3266 0.4095
vn 0.5579 -0.1019 0.8236
vn 0.0109 0.1899 0.9817
vn -0.5838 0.4199 0.6949
vn -0.8806 0.4555 0.1308
vn -0.9665 0.1022 -0.2352
vn -0.7118 0.0156 -0.7022
vn -0.0589 -0.1085 -0.9924
vn 0.6562 -0.1771 -0.7335
vn 0.9579 -0.1572 -0.2401
vn 0.9671 -0.0980 0.2348
vn 0.7138 -0.0081 0.7003
vn 0.0589 0.1085 0.9924
vn -0.6595 0.1690 0.7325
vn -0.9587 0.1528 0.2398
vn -0.9688 -0.0651 -0.2390
vn -0.9700 -0.0424 0.2393
vn -0.0000 -0.0476 -0.9989
vn -0.6896 -0.0726 -0.7206
vn -0.6914 -0.0039 0.7225
vn -0.0000 0.0476 0.9989
vn 0.9700 0.0424 -0.2393
vn 0.6914 0.0039 -0.7225
vn 0.6896 0.0726 0.7206
vn 0.9688 0.0651 0.2390
vn 0.8597 0.4160 -0.2964
vn 0.5619 0.2552 -0.7869
vn 0.0194 -0.0196 -0.9996
vn -0.5407 -0.2908 -0.7893
vn -0.8569 -0.4315 -0.2821
vn -0.8602 -0.4151 0.2961
vn -0.5634 -0.2540 0.7862
vn -0.0193 0.0195 0.9996
vn 0.5424 0.2895 0.7887
vn 0.8574 0.4306 0.2819
vn 0.4334 0.7914 -0.4312
vn 0.2239 0.3983 -0.8895
vn -0.0000 -0.0158 -0.9999
vn -0.2280 -0.4336 -0.8718
vn -0.4404 -0.8169 -0.3724
vn -0.4334 -0.7914 0.4312
vn -0.2239 -0.3983 0.8895
vn -0.0000 0.0158 0.9999
vn 0.2280 0.4336 0.8718
vn 0.4404 0.8169 0.3724
vn -0.4334 0.7914 -0.4312
vn -0.2239 0.3983 -0.8895
vn 0.2280 -0.4336 -0.8718
vn 0.4404 -0.8169 -0.3724
vn 0.4334 -0.7914 0.4312
vn 0.2239 -0.3983 0.8895
vn -0.2280 0.4336 0.8718
vn -0.4404 0.8169 0.3724
vn -0.8597 0.4160 -0.2964
vn -0.5619 0.2552 -0.7869
vn -0.0194 -0.0196 -0.9996
vn 0.5407 -0.2908 -0.7893
vn 0.8569 -0.4315 -0.2821
vn 0.8602 -0.4151 0.2961
vn 0.5634 -0.2540 0.7862
vn 0.0193 0.0195 0.9996
vn -0.5424 0.2895 0.7887
vn -0.8574 0.4306 0.2819
vt 0.956542 0.607536
vt 0.955142 0.614144
vt 0.955003 0.614043
vt 0.956382 0.607536
vt 0.954641 0.613779
vt 0.955964 0.607536
vt 0.954194 0.613452
vt 0.955447 0.607536
vt 0.953831 0.613187
vt 0.955029 0.607536
vt 0.953693 0.613087
vt 0.954870 0.607536
vt 0.951315 0.618943
vt 0.951236 0.618499
vt 0.951026 0.617911
vt 0.950768 0.617404
vt 0.950559 0.617171
vt 0.950479 0.617301
vt 0.950559 0.617745
vt 0.950768 0.618332
vt 0.951026 0.618840
vt 0.951236 0.619073
vt 0.946089 0.620530
vt 0.946089 0.620062
vt 0.946089 0.619411
vt 0.946089 0.618825
vt 0.946089 0.618528
vt 0.946089 0.618634
vt 0.946089 0.619102
vt 0.946089 0.619753
vt 0.946089 0.620339
vt 0.946089 0.620636
vt 0.940862 0.618943
vt 0.940942 0.618499
vt 0.941151 0.617911
vt 0.941409 0.617404
vt 0.941619 0.617171
vt 0.941698 0.617301
vt 0.941619 0.617745
vt 0.941409 0.618332
vt 0.941151 0.618840
vt 0.940942 0.619073
vt 0.937036 0.614144
vt 0.937174 0.614043
vt 0.937536 0.613779
vt 0.937984 0.613452
vt 0.938346 0.613187
vt 0.938484 0.613087
vt 0.935635 0.607536
vt 0.935795 0.607536
vt 0.936213 0.607536
vt 0.936730 0.607536
vt 0.937148 0.607536
vt 0.937308 0.607536
vt 0.954916 0.607012
vt 0.955076 0.607012
vt 0.936260 0.607012
vt 0.936777 0.607012
vt 0.935842 0.607012
vt 0.955494 0.607012
vt 0.956011 0.607012
vt 0.937195 0.607012
vt 0.937355 0.607012
vt 0.956429 0.607012
vt 0.935682 0.607012
vt 0.956589 0.607012
vt 0.956542 0.607441
vt 0.955142 0.614049
vt 0.955003 0.613948
vt 0.956382 0.607441
vt 0.954641 0.613683
vt 0.955964 0.607441
vt 0.954194 0.613357
vt 0.955447 0.607441
vt 0.953831 0.613092
vt 0.955029 0.607441
vt 0.953693 0.612991
vt 0.954870 0.607441
vt 0.951315 0.618886
vt 0.951236 0.618695
vt 0.951026 0.618227
vt 0.950768 0.617661
vt 0.950559 0.617214
vt 0.950479 0.617055
vt 0.950559 0.617246
vt 0.950768 0.617714
vt 0.951026 0.618280
vt 0.951236 0.618727
vt 0.946089 0.620656
vt 0.946089 0.620438
vt 0.946089 0.619899
vt 0.946089 0.619246
vt 0.946089 0.618727
vt 0.946089 0.618542
vt 0.946089 0.618760
vt 0.946089 0.619299
vt 0.946089 0.619952
vt 0.946089 0.620470
vt 0.940862 0.618886
vt 0.940942 0.618695
vt 0.941151 0.618227
vt 0.941409 0.617661
vt 0.941619 0.617214
vt 0.941698 0.617055
vt 0.941619 0.617246
vt 0.941409 0.617714
vt 0.941151 0.618280
vt 0.940942 0.618727
vt 0.937036 0.614049
vt 0.937174 0.613948
vt 0.937536 0.613683
vt 0.937984 0.613357
vt 0.938346 0.613092
vt 0.938484 0.612991
vt 0.935635 0.607441
vt 0.935795 0.607441
vt 0.936213 0.607441
vt 0.936730 0.607441
vt 0.937148 0.607441
vt 0.937308 0.607441
vt 0.954916 0.606916
vt 0.955076 0.606916
vt 0.936260 0.606916
vt 0.936777 0.606916
vt 0.935842 0.606916
vt 0.955494 0.606916
vt 0.956011 0.606916
vt 0.937195 0.606916
vt 0.937355 0.606916
vt 0.956429 0.606916
vt 0.935682 0.606916
vt 0.956589 0.606916
s 0
usemtl Gradient_Colour
f 11/1/1 12/4/1 22/3/1 21/2/1
f 12/4/2 13/6/2 23/5/2 22/3/2
f 13/6/3 14/8/3 24/7/3 23/5/3
f 14/8/4 15/10/4 25/9/4 24/7/4
f 15/10/5 16/12/5 26/11/5 25/9/5
f 16/12/6 17/10/6 27/9/6 26/11/6
f 17/10/7 18/8/7 28/7/7 27/9/7
f 18/8/8 19/6/8 29/5/8 28/7/8
f 19/6/9 20/4/9 30/3/9 29/5/9
f 20/4/10 11/1/10 21/2/10 30/3/10
f 21/2/11 22/3/11 32/14/11 31/13/11
f 22/3/12 23/5/12 33/15/12 32/14/12
f 23/5/13 24/7/13 34/16/13 33/15/13
f 24/7/14 25/9/14 35/17/14 34/16/14
f 25/9/15 26/11/15 36/18/15 35/17/15
f 26/11/16 27/9/16 37/19/16 36/18/16
f 27/9/17 28/7/17 38/20/17 37/19/17
f 28/7/18 29/5/18 39/21/18 38/20/18
f 29/5/19 30/3/19 40/22/19 39/21/19
f 30/3/20 21/2/20 31/13/20 40/22/20
f 31/13/21 32/14/21 42/24/21 41/23/21
f 32/14/22 33/15/22 43/25/22 42/24/22
f 33/15/23 34/16/23 44/26/23 43/25/23
f 34/16/24 35/17/24 45/27/24 44/26/24
f 35/17/25 36/18/25 46/28/25 45/27/25
f 36/18/26 37/19/26 47/29/26 46/28/26
f 37/19/27 38/20/27 48/30/27 47/29/27
f 38/20/28 39/21/28 49/31/28 48/30/28
f 39/21/29 40/22/29 50/32/29 49/31/29
f 40/22/30 31/13/30 41/23/30 50/32/30
f 41/23/31 42/24/31 52/34/31 51/33/31
f 42/24/32 43/25/32 53/35/32 52/34/32
f 43/25/23 44/26/23 54/36/23 53/35/23
f 44/26/33 45/27/33 55/37/33 54/36/33
f 45/27/34 46/28/34 56/38/34 55/37/34
f 46/28/35 47/29/35 57/39/35 56/38/35
f 47/29/36 48/30/36 58/40/36 57/39/36
f 48/30/28 49/31/28 59/41/28 58/40/28
f 49/31/37 50/32/37 60/42/37 59/41/37
f 50/32/38 41/23/38 51/33/38 60/42/38
f 51/33/39 52/34/39 62/44/39 61/43/39
f 52/34/40 53/35/40 63/45/40 62/44/40
f 53/35/41 54/36/41 64/46/41 63/45/41
f 54/36/42 55/37/42 65/47/42 64/46/42
f 55/37/43 56/38/43 66/48/43 65/47/43
f 56/38/44 57/39/44 67/47/44 66/48/44
f 57/39/45 58/40/45 68/46/45 67/47/45
f 58/40/46 59/41/46 69/45/46 68/46/46
f 59/41/47 60/42/47 70/44/47 69/45/47
f 60/42/48 51/33/48 61/43/48 70/44/48
f 61/43/49 62/44/49 2/50/49 1/49/49
f 62/44/50 63/45/50 3/51/50 2/50/50
f 63/45/51 64/46/51 4/52/51 3/51/51
f 64/46/52 65/47/52 5/53/52 4/52/52
f 65/47/53 66/48/53 6/54/53 5/53/53
f 66/48/54 67/47/54 7/53/54 6/54/54
f 67/47/55 68/46/55 8/52/55 7/53/55
f 68/46/56 69/45/56 9/51/56 8/52/56
f 69/45/57 70/44/57 10/50/57 9/51/57
f 70/44/58 61/43/58 1/49/58 10/50/58
f 15/10/59 85/56/59 86/55/59 16/12/59
f 16/12/60 86/55/60 87/56/60 17/10/60
f 4/52/61 74/58/61 73/57/61 3/51/61
f 3/51/62 73/57/62 72/59/62 2/50/62
f 17/10/63 87/56/63 88/60/63 18/8/63
f 18/8/64 88/60/64 89/61/64 19/6/64
f 6/54/65 76/63/65 75/62/65 5/53/65
f 5/53/66 75/62/66 74/58/66 4/52/66
f 19/6/67 89/61/67 90/64/67 20/4/67
f 8/52/67 78/58/67 77/62/67 7/53/67
f 7/53/68 77/62/68 76/63/68 6/54/68
f 10/50/63 80/59/63 79/57/63 9/51/63
f 9/51/64 79/57/64 78/58/64 8/52/64
f 1/49/60 71/65/60 80/59/60 10/50/60
f 20/4/68 90/64/68 81/66/68 11/1/68
f 11/1/65 81/66/65 82/64/65 12/4/65
f 12/4/66 82/64/66 83/61/66 13/6/66
f 13/6/61 83/61/61 84/60/61 14/8/61
f 14/8/62 84/60/62 85/56/62 15/10/62
f 2/50/59 72/59/59 71/65/59 1/49/59
f 101/67/1 102/70/1 112/69/1 111/68/1
f 102/70/2 103/72/2 113/71/2 112/69/2
f 103/72/3 104/74/3 114/73/3 113/71/3
f 104/74/4 105/76/4 115/75/4 114/73/4
f 105/76/5 106/78/5 116/77/5 115/75/5
f 106/78/6 107/76/6 117/75/6 116/77/6
f 107/76/7 108/74/7 118/73/7 117/75/7
f 108/74/8 109/72/8 119/71/8 118/73/8
f 109/72/9 110/70/9 120/69/9 119/71/9
f 110/70/10 101/67/10 111/68/10 120/69/10
f 111/68/69 112/69/69 122/80/69 121/79/69
f 112/69/70 113/71/70 123/81/70 122/80/70
f 113/71/71 114/73/71 124/82/71 123/81/71
f 114/73/72 115/75/72 125/83/72 124/82/72
f 115/75/73 116/77/73 126/84/73 125/83/73
f 116/77/74 117/75/74 127/85/74 126/84/74
f 117/75/75 118/73/75 128/86/75 127/85/75
f 118/73/76 119/71/76 129/87/76 128/86/76
f 119/71/77 120/69/77 130/88/77 129/87/77
f 120/69/78 111/68/78 121/79/78 130/88/78
f 121/79/79 122/80/79 132/90/79 131/89/79
f 122/80/80 123/81/80 133/91/80 132/90/80
f 123/81/81 124/82/81 134/92/81 133/91/81
f 124/82/82 125/83/82 135/93/82 134/92/82
f 125/83/83 126/84/83 136/94/83 135/93/83
f 126/84/84 127/85/84 137/95/84 136/94/84
f 127/85/85 128/86/85 138/96/85 137/95/85
f 128/86/86 129/87/86 139/97/86 138/96/86
f 129/87/87 130/88/87 140/98/87 139/97/87
f 130/88/88 121/79/88 131/89/88 140/98/88
f 131/89/89 132/90/89 142/100/89 141/99/89
f 132/90/90 133/91/90 143/101/90 142/100/90
f 133/91/81 134/92/81 144/102/81 143/101/81
f 134/92/91 135/93/91 145/103/91 144/102/91
f 135/93/92 136/94/92 146/104/92 145/103/92
f 136/94/93 137/95/93 147/105/93 146/104/93
f 137/95/94 138/96/94 148/106/94 147/105/94
f 138/96/86 139/97/86 149/107/86 148/106/86
f 139/97/95 140/98/95 150/108/95 149/107/95
f 140/98/96 131/89/96 141/99/96 150/108/96
f 141/99/97 142/100/97 152/110/97 151/109/97
f 142/100/98 143/101/98 153/111/98 152/110/98
f 143/101/99 144/102/99 154/112/99 153/111/99
f 144/102/100 145/103/100 155/113/100 154/112/100
f 145/103/101 146/104/101 156/114/101 155/113/101
f 146/104/102 147/105/102 157/113/102 156/114/102
f 147/105/103 148/106/103 158/112/103 157/113/103
f 148/106/104 149/107/104 159/111/104 158/112/104
f 149/107/105 150/108/105 160/110/105 159/111/105
f 150/108/106 141/99/106 151/109/106 160/110/106
f 151/109/49 152/110/49 92/116/49 91/115/49
f 152/110/50 153/111/50 93/117/50 92/116/50
f 153/111/51 154/112/51 94/118/51 93/117/51
f 154/112/52 155/113/52 95/119/52 94/118/52
f 155/113/53 156/114/53 96/120/53 95/119/53
f 156/114/54 157/113/54 97/119/54 96/120/54
f 157/113/55 158/112/55 98/118/55 97/119/55
f 158/112/56 159/111/56 99/117/56 98/118/56
f 159/111/57 160/110/57 100/116/57 99/117/57
f 160/110/58 151/109/58 91/115/58 100/116/58
f 105/76/59 175/122/59 176/121/59 106/78/59
f 106/78/60 176/121/60 177/122/60 107/76/60
f 94/118/61 164/124/61 163/123/61 93/117/61
f 93/117/62 163/123/62 162/125/62 92/116/62
f 107/76/63 177/122/63 178/126/63 108/74/63
f 108/74/64 178/126/64 179/127/64 109/72/64
f 96/120/65 166/129/65 165/128/65 95/119/65
f 95/119/66 165/128/66 164/124/66 94/118/66
f 109/72/67 179/127/67 180/130/67 110/70/67
f 98/118/67 168/124/67 167/128/67 97/119/67
f 97/119/68 167/128/68 166/129/68 96/120/68
f 100/116/63 170/125/63 169/123/63 99/117/63
f 99/117/64 169/123/64 168/124/64 98/118/64
f 91/115/60 161/131/60 170/125/60 100/116/60
f 110/70/68 180/130/68 171/132/68 101/67/68
f 101/67/65 171/132/65 172/130/65 102/70/65
f 102/70/66 172/130/66 173/127/66 103/72/66
f 103/72/61 173/127/61 174/126/61 104/74/61
f 104/74/62 174/126/62 175/122/62 105/76/62
f 92/116/59 162/125/59 161/131/59 91/115/59
o Bag_MainBody04
v 1.579562 0.878795 -1.172220
v 1.559095 0.889157 -1.178147
v 1.570852 0.880183 -1.175184
v 1.563361 0.883976 -1.177353
v 1.579562 0.878795 -1.116201
v 1.559095 0.889157 -1.110274
v 1.570852 0.880183 -1.113238
v 1.563361 0.883976 -1.111068
v 1.636719 0.878795 -1.172220
v 1.657186 0.889157 -1.178147
v 1.645429 0.880183 -1.175184
v 1.652920 0.883976 -1.177353
v 1.636719 0.878795 -1.116201
v 1.657186 0.889157 -1.110274
v 1.645429 0.880183 -1.113238
v 1.652920 0.883976 -1.111068
v 1.525691 0.972318 -1.178147
v 1.557485 0.999452 -1.162626
v 1.525961 0.985885 -1.176068
v 1.537598 0.995817 -1.170387
v 1.557485 0.999452 -1.125795
v 1.525691 0.972318 -1.110274
v 1.537598 0.995817 -1.118034
v 1.525961 0.985885 -1.112353
v 1.658797 0.999452 -1.162626
v 1.690591 0.972318 -1.178147
v 1.678683 0.995817 -1.170387
v 1.690320 0.985885 -1.176068
v 1.658797 0.999452 -1.125795
v 1.690591 0.972318 -1.110274
v 1.678683 0.995817 -1.118034
v 1.690320 0.985885 -1.112353
v 1.672582 0.916877 -1.178147
v 1.684506 0.944598 -1.178147
v 1.531776 0.944598 -1.178147
v 1.543699 0.916877 -1.178147
v 1.531776 0.944598 -1.110274
v 1.543699 0.916877 -1.110274
v 1.684506 0.944598 -1.110274
v 1.672582 0.916877 -1.110274
vn -0.9767 -0.2144 -0.0000
vn 0.9767 -0.2144 -0.0000
vn -0.0000 -0.0000 1.0000
vn -0.0000 -0.0000 -1.0000
vn -0.1574 -0.9875 -0.0000
vn -0.4517 -0.8922 -0.0000
vn -0.7720 -0.6356 -0.0000
vn -0.0000 -0.9056 0.4242
vn -0.0000 -0.4965 0.8680
vn -0.0000 -0.1515 0.9885
vn 0.1574 -0.9875 -0.0000
vn 0.4517 -0.8922 -0.0000
vn 0.7720 -0.6356 -0.0000
vn -0.0000 -0.9056 -0.4242
vn -0.0000 -0.4965 -0.8680
vn -0.0000 -0.1515 -0.9885
vn -0.0000 -1.0000 -0.0000
vn -0.1798 0.9837 -0.0000
vn -0.6492 0.7606 -0.0000
vn -0.9998 0.0199 -0.0000
vn -0.0000 0.9056 0.4242
vn -0.0000 0.4965 0.8680
vn -0.0000 0.1515 0.9885
vn 0.1798 0.9837 -0.0000
vn 0.6492 0.7606 -0.0000
vn 0.9998 0.0199 -0.0000
vn -0.0000 0.9056 -0.4242
vn -0.0000 0.4965 -0.8680
vn -0.0000 0.1515 -0.9885
vn -0.0000 1.0000 -0.0000
vn 0.8742 -0.4856 -0.0000
vn 0.9186 -0.3951 -0.0000
vn -0.8742 -0.4856 -0.0000
vn -0.9186 -0.3951 -0.0000
vt 0.930587 0.600612
vt 0.929323 0.605010
vt 0.962326 0.600612
vt 0.963590 0.605010
vt 0.940518 0.590171
vt 0.938708 0.590391
vt 0.937151 0.590993
vt 0.936265 0.591815
vt 0.952395 0.590171
vt 0.954205 0.590391
vt 0.955762 0.590993
vt 0.956648 0.591815
vt 0.935930 0.609316
vt 0.931797 0.608739
vt 0.929379 0.607163
vt 0.956983 0.609316
vt 0.961116 0.608739
vt 0.963534 0.607163
vt 0.963534 0.607163
vt 0.959848 0.596214
vt 0.933065 0.596214
s 0
usemtl Gradient_Colour
f 215/133/107 217/133/107 202/134/107 197/134/107
f 219/135/108 214/135/108 206/136/108 210/136/108
f 217/133/109 219/135/109 210/136/109 202/134/109
f 214/135/110 215/133/110 197/134/110 206/136/110
f 185/137/111 187/138/111 183/138/111 181/137/111
f 187/138/112 188/139/112 184/139/112 183/138/112
f 188/139/113 186/140/113 182/140/113 184/139/113
f 193/141/114 195/142/114 187/138/114 185/137/114
f 195/142/115 196/143/115 188/139/115 187/138/115
f 196/143/116 194/144/116 186/140/116 188/139/116
f 189/141/117 191/142/117 195/142/117 193/141/117
f 191/142/118 192/143/118 196/143/118 195/142/118
f 192/143/119 190/144/119 194/144/119 196/143/119
f 181/137/120 183/138/120 191/142/120 189/141/120
f 183/138/121 184/139/121 192/143/121 191/142/121
f 184/139/122 182/140/122 190/144/122 192/143/122
f 185/137/123 181/137/123 189/141/123 193/141/123
f 198/145/124 200/146/124 203/146/124 201/145/124
f 200/146/125 199/147/125 204/147/125 203/146/125
f 199/147/126 197/134/126 202/134/126 204/147/126
f 201/145/127 203/146/127 211/149/127 209/148/127
f 203/146/128 204/147/128 212/150/128 211/149/128
f 204/147/129 202/134/129 210/136/129 212/150/129
f 209/148/130 211/149/130 207/149/130 205/148/130
f 211/149/131 212/150/131 208/151/131 207/149/131
f 212/150/132 210/136/132 206/136/132 208/151/132
f 205/148/133 207/149/133 200/146/133 198/145/133
f 207/149/134 208/151/134 199/147/134 200/146/134
f 208/151/135 206/136/135 197/134/135 199/147/135
f 209/148/136 205/148/136 198/145/136 201/145/136
f 190/144/110 182/140/110 216/153/110 213/152/110
f 213/152/110 216/153/110 215/133/110 214/135/110
f 186/140/109 194/144/109 220/152/109 218/153/109
f 218/153/109 220/152/109 219/135/109 217/133/109
f 194/144/137 190/144/137 213/152/137 220/152/137
f 220/152/138 213/152/138 214/135/138 219/135/138
f 182/140/139 186/140/139 218/153/139 216/153/139
f 216/153/140 218/153/140 217/133/140 215/133/140
