# Blender 4.0.2
# www.blender.org
mtllib Sand castle S.mtl
o Sand_castle_S
v 0.083829 2.001389 0.626019
v 0.083829 2.340099 0.626019
v 0.110011 2.001389 0.824298
v 0.110011 2.340099 0.824298
v -0.088714 2.001389 0.625302
v -0.088714 2.340099 0.625302
v -0.116423 2.001389 0.823373
v -0.116423 2.340099 0.823373
v -0.387347 2.001389 0.498859
v -0.387347 2.340099 0.498859
v -0.510088 2.001389 0.656766
v -0.510088 2.340099 0.656766
v -0.507263 2.001389 0.375228
v -0.507263 2.340099 0.375228
v -0.667948 2.001389 0.494309
v -0.667948 2.340099 0.494309
v -0.626751 2.001389 0.074083
v -0.626751 2.340099 0.074083
v -0.825403 2.001389 0.097267
v -0.825403 2.340099 0.097267
v -0.623455 2.001389 -0.098238
v -0.623455 2.340099 -0.098238
v -0.821077 2.001389 -0.128987
v -0.821077 2.340099 -0.128987
v -0.492583 2.001389 -0.394635
v -0.492583 2.340099 -0.394635
v -0.648604 2.001389 -0.519764
v -0.648604 2.340099 -0.519764
v -0.367365 2.001389 -0.512711
v -0.367365 2.340099 -0.512711
v -0.483978 2.001389 -0.675196
v -0.483978 2.340099 -0.675196
v -0.064596 2.001389 -0.627428
v -0.064596 2.340099 -0.627428
v -0.084777 2.001389 -0.826407
v -0.084777 2.340099 -0.826407
v 0.107508 2.001389 -0.621553
v 0.107508 2.340099 -0.621553
v 0.141291 2.001389 -0.818680
v 0.141291 2.340099 -0.818680
v 0.401680 2.001389 -0.486246
v 0.401680 2.340099 -0.486246
v 0.529169 2.001389 -0.640345
v 0.529169 2.340099 -0.640345
v 0.517921 2.001389 -0.359437
v 0.517921 2.340099 -0.359437
v 0.682168 2.001389 -0.473555
v 0.682168 2.340099 -0.473555
v 0.627870 2.001389 -0.055034
v 0.627870 2.340099 -0.055034
v 0.827131 2.001389 -0.072208
v 0.827131 2.340099 -0.072208
v 0.619417 2.001389 0.116859
v 0.619417 2.340099 0.116859
v 0.816001 2.001389 0.153668
v 0.816001 2.340099 0.153668
v 0.479669 2.001389 0.408817
v 0.479669 2.340099 0.408817
v 0.631811 2.001389 0.538637
v 0.631811 2.340099 0.538637
v 0.351265 2.001389 0.523228
v 0.351265 2.340099 0.523228
v 0.462862 2.001389 0.689199
v 0.462862 2.340099 0.689199
v -0.000039 -0.041945 -1.000129
v -0.000039 2.119334 -0.844927
v 0.195051 -0.041945 -0.980914
v 0.164773 2.119334 -0.828695
v 0.382644 -0.041945 -0.924008
v 0.323251 2.119334 -0.780621
v 0.555531 -0.041945 -0.831598
v 0.469306 2.119334 -0.702553
v 0.707067 -0.041945 -0.707236
v 0.597324 2.119334 -0.597492
v 0.831430 -0.041945 -0.555699
v 0.702385 2.119334 -0.469474
v 0.923840 -0.041945 -0.382812
v 0.780453 2.119334 -0.323419
v 0.980746 -0.041945 -0.195219
v 0.828527 2.119334 -0.164941
v 0.999961 -0.041945 -0.000129
v 0.844759 2.119334 -0.000129
v 0.980746 -0.041945 0.194962
v 0.828527 2.119334 0.164683
v 0.923840 -0.041945 0.382555
v 0.780453 2.119334 0.323162
v 0.831430 -0.041945 0.555441
v 0.702385 2.119334 0.469216
v 0.707067 -0.041945 0.706978
v 0.597324 2.119334 0.597234
v 0.555531 -0.041945 0.831341
v 0.469306 2.119334 0.702296
v 0.382644 -0.041945 0.923751
v 0.323251 2.119334 0.780363
v 0.195051 -0.041945 0.980656
v 0.164773 2.119334 0.828437
v -0.000039 -0.041945 0.999871
v -0.000039 2.119334 0.844670
v -0.195130 -0.041945 0.980656
v -0.164851 2.119334 0.828437
v -0.382723 -0.041945 0.923751
v -0.323330 2.119334 0.780363
v -0.555609 -0.041945 0.831341
v -0.469384 2.119334 0.702296
v -0.707146 -0.041945 0.706978
v -0.597402 2.119334 0.597234
v -0.831509 -0.041945 0.555441
v -0.702464 2.119334 0.469216
v -0.923919 -0.041945 0.382555
v -0.780531 2.119334 0.323162
v -0.980824 -0.041945 0.194962
v -0.828605 2.119334 0.164683
v -1.000039 -0.041945 -0.000129
v -0.844838 2.119334 -0.000129
v -0.980824 -0.041945 -0.195219
v -0.828605 2.119334 -0.164941
v -0.923919 -0.041945 -0.382812
v -0.780531 2.119334 -0.323419
v -0.831509 -0.041945 -0.555699
v -0.702464 2.119334 -0.469474
v -0.707146 -0.041945 -0.707236
v -0.597402 2.119334 -0.597492
v -0.555609 -0.041945 -0.831598
v -0.469384 2.119334 -0.702553
v -0.382723 -0.041945 -0.924008
v -0.323330 2.119334 -0.780621
v -0.195130 -0.041945 -0.980914
v -0.164851 2.119334 -0.828695
vn 0.9914 -0.0000 -0.1309
vn -0.0041 -0.0000 1.0000
vn -0.9904 -0.0000 -0.1385
vn 0.0042 -0.0000 -1.0000
vn -0.0000 -1.0000 -0.0000
vn -0.0000 1.0000 -0.0000
vn 0.7895 -0.0000 0.6137
vn -0.7172 -0.0000 0.6969
vn -0.5954 -0.0000 -0.8034
vn 0.7178 -0.0000 -0.6962
vn 0.1159 -0.0000 0.9933
vn -0.9998 -0.0000 -0.0191
vn 0.1537 -0.0000 -0.9881
vn 0.9998 -0.0000 0.0191
vn -0.6256 -0.0000 0.7801
vn -0.6865 -0.0000 -0.7271
vn 0.8124 -0.0000 -0.5831
vn 0.6861 -0.0000 0.7275
vn -0.9949 -0.0000 0.1009
vn 0.0342 -0.0000 -0.9994
vn 0.9856 -0.0000 0.1689
vn -0.0341 -0.0000 0.9994
vn -0.7705 -0.0000 -0.6374
vn 0.7369 -0.0000 -0.6760
vn 0.5706 -0.0000 0.8212
vn -0.7372 -0.0000 0.6757
vn -0.0859 -0.0000 -0.9963
vn 0.9988 -0.0000 0.0492
vn -0.1840 -0.0000 0.9829
vn -0.9988 -0.0000 -0.0491
vn 0.6491 -0.0000 -0.7607
vn 0.6653 -0.0000 0.7466
vn -0.8299 -0.0000 0.5580
vn -0.6653 -0.0000 -0.7466
vn 0.0978 0.0713 -0.9927
vn 0.2895 0.0713 -0.9545
vn 0.4702 0.0713 -0.8797
vn 0.6328 0.0713 -0.7710
vn 0.7710 0.0713 -0.6328
vn 0.8797 0.0713 -0.4702
vn 0.9545 0.0713 -0.2895
vn 0.9927 0.0713 -0.0978
vn 0.9927 0.0713 0.0978
vn 0.9545 0.0713 0.2895
vn 0.8797 0.0713 0.4702
vn 0.7710 0.0713 0.6328
vn 0.6328 0.0713 0.7710
vn 0.4702 0.0713 0.8797
vn 0.2895 0.0713 0.9545
vn 0.0978 0.0713 0.9927
vn -0.0978 0.0713 0.9927
vn -0.2895 0.0713 0.9545
vn -0.4702 0.0713 0.8797
vn -0.6328 0.0713 0.7710
vn -0.7710 0.0713 0.6328
vn -0.8797 0.0713 0.4702
vn -0.9545 0.0713 0.2895
vn -0.9927 0.0713 0.0978
vn -0.9927 0.0713 -0.0978
vn -0.9545 0.0713 -0.2895
vn -0.8797 0.0713 -0.4702
vn -0.7710 0.0713 -0.6328
vn -0.6328 0.0713 -0.7710
vn -0.4702 0.0713 -0.8797
vn -0.2895 0.0713 -0.9545
vn -0.0978 0.0713 -0.9927
vt 0.815347 0.697009
vt 0.815525 0.706862
vt 0.816656 0.702716
vt 0.816402 0.692710
vt 0.808037 0.702737
vt 0.808306 0.692731
vt 0.809233 0.706876
vt 0.809422 0.697024
vt 0.799493 0.699592
vt 0.798712 0.709342
vt 0.793743 0.706242
vt 0.794841 0.696365
vt 0.788768 0.709429
vt 0.790114 0.699682
vt 0.794900 0.711632
vt 0.795875 0.701984
vt 0.793075 0.707365
vt 0.792001 0.716761
vt 0.785394 0.716387
vt 0.786821 0.706972
vt 0.786648 0.719902
vt 0.787955 0.710677
vt 0.792752 0.719441
vt 0.793755 0.710191
vt 0.798409 0.714673
vt 0.797694 0.723675
vt 0.793429 0.725334
vt 0.794332 0.716436
vt 0.798628 0.727299
vt 0.799268 0.718529
vt 0.801671 0.725242
vt 0.802184 0.716339
vt 0.810693 0.717897
vt 0.810606 0.726706
vt 0.810103 0.729115
vt 0.810210 0.720469
vt 0.816414 0.729025
vt 0.816236 0.720372
vt 0.815570 0.726632
vt 0.815425 0.717819
vt 0.823761 0.715971
vt 0.824327 0.724896
vt 0.827689 0.726867
vt 0.826980 0.718069
vt 0.832651 0.724730
vt 0.831686 0.715794
vt 0.828098 0.723195
vt 0.827337 0.714164
vt 0.831456 0.709498
vt 0.832483 0.718785
vt 0.838751 0.719047
vt 0.837407 0.709775
vt 0.839524 0.715464
vt 0.838083 0.706000
vt 0.832861 0.716069
vt 0.831783 0.706636
vt 0.828259 0.701345
vt 0.829193 0.711021
vt 0.835092 0.708580
vt 0.833797 0.698798
vt 0.829578 0.705579
vt 0.828568 0.695677
vt 0.825006 0.708877
vt 0.824290 0.699107
vt 0.812467 0.683814
vt 0.812467 0.723616
vt 0.816925 0.723418
vt 0.816475 0.683545
vt 0.821279 0.722824
vt 0.820383 0.682739
vt 0.825420 0.721840
vt 0.824088 0.681407
vt 0.829236 0.720476
vt 0.827485 0.679566
vt 0.832605 0.718751
vt 0.830462 0.677245
vt 0.835400 0.716690
vt 0.832906 0.674487
vt 0.837488 0.714334
vt 0.834700 0.671353
vt 0.838737 0.711741
vt 0.835733 0.667925
vt 0.839022 0.708990
vt 0.835903 0.664312
vt 0.838241 0.706180
vt 0.835132 0.660648
vt 0.836331 0.703435
vt 0.833380 0.657094
vt 0.833287 0.700896
vt 0.830654 0.653828
vt 0.829180 0.698712
vt 0.827027 0.651035
vt 0.824168 0.697027
vt 0.822639 0.648890
vt 0.818493 0.695961
vt 0.817698 0.647539
vt 0.812467 0.695596
vt 0.812467 0.647077
vt 0.806441 0.695961
vt 0.807235 0.647539
vt 0.800766 0.697027
vt 0.802295 0.648890
vt 0.795754 0.698712
vt 0.797907 0.651035
vt 0.791647 0.700896
vt 0.794279 0.653828
vt 0.788603 0.703435
vt 0.791554 0.657094
vt 0.786693 0.706180
vt 0.789801 0.660648
vt 0.785912 0.708990
vt 0.789031 0.664312
vt 0.786196 0.711741
vt 0.789201 0.667925
vt 0.787445 0.714334
vt 0.790233 0.671353
vt 0.789534 0.716690
vt 0.792028 0.674487
vt 0.792329 0.718751
vt 0.794471 0.677245
vt 0.795698 0.720476
vt 0.797449 0.679566
vt 0.799513 0.721840
vt 0.800845 0.681407
vt 0.803654 0.722824
vt 0.804551 0.682739
vt 0.808008 0.723418
vt 0.808459 0.683545
s 0
usemtl Material.001
f 1/1/1 2/2/1 4/3/1 3/4/1
f 3/4/2 4/3/2 8/5/2 7/6/2
f 7/6/3 8/5/3 6/7/3 5/8/3
f 5/8/4 6/7/4 2/2/4 1/1/4
f 3/4/5 7/6/5 5/8/5 1/1/5
f 8/5/6 4/3/6 2/2/6 6/7/6
f 9/9/7 10/10/7 12/11/7 11/12/7
f 11/12/8 12/11/8 16/13/8 15/14/8
f 15/14/9 16/13/9 14/15/9 13/16/9
f 13/16/10 14/15/10 10/10/10 9/9/10
f 11/12/5 15/14/5 13/16/5 9/9/5
f 16/13/6 12/11/6 10/10/6 14/15/6
f 17/17/11 18/18/11 20/19/11 19/20/11
f 19/20/12 20/19/12 24/21/12 23/22/12
f 23/22/13 24/21/13 22/23/13 21/24/13
f 21/24/14 22/23/14 18/18/14 17/17/14
f 19/20/5 23/22/5 21/24/5 17/17/5
f 24/21/6 20/19/6 18/18/6 22/23/6
f 25/25/15 26/26/15 28/27/15 27/28/15
f 27/28/16 28/27/16 32/29/16 31/30/16
f 31/30/17 32/29/17 30/31/17 29/32/17
f 29/32/18 30/31/18 26/26/18 25/25/18
f 27/28/5 31/30/5 29/32/5 25/25/5
f 32/29/6 28/27/6 26/26/6 30/31/6
f 33/33/19 34/34/19 36/35/19 35/36/19
f 35/36/20 36/35/20 40/37/20 39/38/20
f 39/38/21 40/37/21 38/39/21 37/40/21
f 37/40/22 38/39/22 34/34/22 33/33/22
f 35/36/5 39/38/5 37/40/5 33/33/5
f 40/37/6 36/35/6 34/34/6 38/39/6
f 41/41/23 42/42/23 44/43/23 43/44/23
f 43/44/24 44/43/24 48/45/24 47/46/24
f 47/46/25 48/45/25 46/47/25 45/48/25
f 45/48/26 46/47/26 42/42/26 41/41/26
f 43/44/5 47/46/5 45/48/5 41/41/5
f 48/45/6 44/43/6 42/42/6 46/47/6
f 49/49/27 50/50/27 52/51/27 51/52/27
f 51/52/28 52/51/28 56/53/28 55/54/28
f 55/54/29 56/53/29 54/55/29 53/56/29
f 53/56/30 54/55/30 50/50/30 49/49/30
f 51/52/5 55/54/5 53/56/5 49/49/5
f 56/53/6 52/51/6 50/50/6 54/55/6
f 57/57/31 58/58/31 60/59/31 59/60/31
f 59/60/32 60/59/32 64/61/32 63/62/32
f 63/62/33 64/61/33 62/63/33 61/64/33
f 61/64/34 62/63/34 58/58/34 57/57/34
f 59/60/5 63/62/5 61/64/5 57/57/5
f 64/61/6 60/59/6 58/58/6 62/63/6
f 65/65/35 66/66/35 68/67/35 67/68/35
f 67/68/36 68/67/36 70/69/36 69/70/36
f 69/70/37 70/69/37 72/71/37 71/72/37
f 71/72/38 72/71/38 74/73/38 73/74/38
f 73/74/39 74/73/39 76/75/39 75/76/39
f 75/76/40 76/75/40 78/77/40 77/78/40
f 77/78/41 78/77/41 80/79/41 79/80/41
f 79/80/42 80/79/42 82/81/42 81/82/42
f 81/82/43 82/81/43 84/83/43 83/84/43
f 83/84/44 84/83/44 86/85/44 85/86/44
f 85/86/45 86/85/45 88/87/45 87/88/45
f 87/88/46 88/87/46 90/89/46 89/90/46
f 89/90/47 90/89/47 92/91/47 91/92/47
f 91/92/48 92/91/48 94/93/48 93/94/48
f 93/94/49 94/93/49 96/95/49 95/96/49
f 95/96/50 96/95/50 98/97/50 97/98/50
f 97/98/51 98/97/51 100/99/51 99/100/51
f 99/100/52 100/99/52 102/101/52 101/102/52
f 101/102/53 102/101/53 104/103/53 103/104/53
f 103/104/54 104/103/54 106/105/54 105/106/54
f 105/106/55 106/105/55 108/107/55 107/108/55
f 107/108/56 108/107/56 110/109/56 109/110/56
f 109/110/57 110/109/57 112/111/57 111/112/57
f 111/112/58 112/111/58 114/113/58 113/114/58
f 113/114/59 114/113/59 116/115/59 115/116/59
f 115/116/60 116/115/60 118/117/60 117/118/60
f 117/118/61 118/117/61 120/119/61 119/120/61
f 119/120/62 120/119/62 122/121/62 121/122/62
f 121/122/63 122/121/63 124/123/63 123/124/63
f 123/124/64 124/123/64 126/125/64 125/126/64
f 68/67/6 66/66/6 128/127/6 126/125/6 124/123/6 122/121/6 120/119/6 118/117/6 116/115/6 114/113/6 112/111/6 110/109/6 108/107/6 106/105/6 104/103/6 102/101/6 100/99/6 98/97/6 96/95/6 94/93/6 92/91/6 90/89/6 88/87/6 86/85/6 84/83/6 82/81/6 80/79/6 78/77/6 76/75/6 74/73/6 72/71/6 70/69/6
f 125/126/65 126/125/65 128/127/65 127/128/65
f 127/128/66 128/127/66 66/66/66 65/65/66
f 65/65/5 67/68/5 69/70/5 71/72/5 73/74/5 75/76/5 77/78/5 79/80/5 81/82/5 83/84/5 85/86/5 87/88/5 89/90/5 91/92/5 93/94/5 95/96/5 97/98/5 99/100/5 101/102/5 103/104/5 105/106/5 107/108/5 109/110/5 111/112/5 113/114/5 115/116/5 117/118/5 119/120/5 121/122/5 123/124/5 125/126/5 127/128/5
