# Blender 4.0.2
# www.blender.org
mtllib Contruction Tape.mtl
o Plane.007
v -0.000000 0.039737 1.000000
v 0.000000 -0.036041 1.000000
v -0.000000 0.039737 -1.000000
v 0.000000 -0.036041 -1.000000
v -0.000000 0.039737 -0.818182
v -0.000000 0.039737 -0.636364
v -0.000000 0.039737 -0.454545
v -0.000000 0.039737 -0.272727
v -0.000000 0.039737 -0.090909
v -0.000000 0.039737 0.090909
v -0.000000 0.039737 0.272727
v -0.000000 0.039737 0.454545
v -0.000000 0.039737 0.636364
v -0.000000 0.039737 0.818182
v 0.000000 -0.036041 0.818182
v 0.000000 -0.036041 0.636364
v 0.000000 -0.036041 0.454545
v 0.000000 -0.036041 0.272727
v 0.000000 -0.036041 0.090909
v 0.000000 -0.036041 -0.090909
v 0.000000 -0.036041 -0.272727
v 0.000000 -0.036041 -0.454545
v 0.000000 -0.036041 -0.636364
v 0.000000 -0.036041 -0.818182
v 0.000000 -0.036041 0.634463
v -0.011000 0.039737 1.000000
v -0.011000 -0.036041 1.000000
v -0.011000 0.039737 -1.000000
v -0.011000 -0.036041 -1.000000
v -0.011000 0.039737 -0.818182
v -0.011000 0.039737 -0.636364
v -0.011000 0.039737 -0.454545
v -0.011000 0.039737 -0.272727
v -0.011000 0.039737 -0.090909
v -0.011000 0.039737 0.090909
v -0.011000 0.039737 0.272727
v -0.011000 0.039737 0.454545
v -0.011000 0.039737 0.636364
v -0.011000 0.039737 0.818182
v -0.011000 -0.036041 0.818182
v -0.011000 -0.036041 0.636364
v -0.011000 -0.036041 0.454545
v -0.011000 -0.036041 0.272727
v -0.011000 -0.036041 0.090909
v -0.011000 -0.036041 -0.090909
v -0.011000 -0.036041 -0.272727
v -0.011000 -0.036041 -0.454545
v -0.011000 -0.036041 -0.636364
v -0.011000 -0.036041 -0.818182
v -0.011000 -0.036041 0.634463
vn 1.0000 -0.0000 -0.0000
vn -1.0000 -0.0000 -0.0000
vn -0.0000 1.0000 -0.0000
vn -0.0000 -0.0000 1.0000
vn -0.0000 -1.0000 -0.0000
vn -0.0000 -0.0000 -1.0000
vt 0.920540 0.940490
vt 0.920642 0.942510
vt 0.916566 0.940462
vt 0.960249 0.940772
vt 0.960115 0.942789
vt 0.956281 0.940744
vt 0.085279 0.522474
vt 0.085176 0.524346
vt 0.081597 0.522448
vt 0.952313 0.940716
vt 0.952225 0.942733
vt 0.952184 0.942733
vt 0.948344 0.940688
vt 0.077915 0.522422
vt 0.077856 0.524294
vt 0.074232 0.522396
vt 0.944374 0.940659
vt 0.944333 0.942677
vt 0.940403 0.940631
vt 0.070549 0.522370
vt 0.070533 0.524242
vt 0.066864 0.522344
vt 0.936432 0.940603
vt 0.936439 0.942621
vt 0.932460 0.940575
vt 0.063180 0.522318
vt 0.063208 0.524190
vt 0.059494 0.522291
vt 0.928487 0.940547
vt 0.928541 0.942566
vt 0.924514 0.940518
vt 0.055808 0.522265
vt 0.055880 0.524139
vt 0.052122 0.522239
vt 0.088835 0.524371
vt 0.956170 0.942761
vt 0.081478 0.524319
vt 0.948280 0.942705
vt 0.074195 0.524268
vt 0.940386 0.942649
vt 0.066871 0.524216
vt 0.932490 0.942594
vt 0.059545 0.524165
vt 0.924592 0.942538
vt 0.048434 0.522213
vt 0.052216 0.524113
vt 0.048551 0.524087
s 0
usemtl Gradient_Colour
f 5/1/1 24/2/1 3/3/1
f 1/4/1 2/5/1 14/6/1
f 14/7/1 15/8/1 13/9/1
f 13/10/1 16/11/1 25/12/1 12/13/1
f 12/14/1 17/15/1 11/16/1
f 11/17/1 18/18/1 10/19/1
f 10/20/1 19/21/1 9/22/1
f 9/23/1 20/24/1 8/25/1
f 8/26/1 21/27/1 7/28/1
f 7/29/1 22/30/1 6/31/1
f 6/32/1 23/33/1 5/34/1
f 14/7/1 2/35/1 15/8/1
f 13/10/1 15/36/1 16/11/1
f 12/14/1 25/37/1 17/15/1
f 11/17/1 17/38/1 18/18/1
f 10/20/1 18/39/1 19/21/1
f 9/23/1 19/40/1 20/24/1
f 8/26/1 20/41/1 21/27/1
f 7/29/1 21/42/1 22/30/1
f 6/32/1 22/43/1 23/33/1
f 5/1/1 23/44/1 24/2/1
f 3/45/1 24/46/1 4/47/1
f 30/1/2 28/3/2 49/2/2
f 26/4/2 39/6/2 27/5/2
f 39/7/2 38/9/2 40/8/2
f 38/10/2 37/13/2 50/12/2 41/11/2
f 37/14/2 36/16/2 42/15/2
f 36/17/2 35/19/2 43/18/2
f 35/20/2 34/22/2 44/21/2
f 34/23/2 33/25/2 45/24/2
f 33/26/2 32/28/2 46/27/2
f 32/29/2 31/31/2 47/30/2
f 31/32/2 30/34/2 48/33/2
f 39/7/2 40/8/2 27/35/2
f 38/10/2 41/11/2 40/36/2
f 37/14/2 42/15/2 50/37/2
f 36/17/2 43/18/2 42/38/2
f 35/20/2 44/21/2 43/39/2
f 34/23/2 45/24/2 44/40/2
f 33/26/2 46/27/2 45/41/2
f 32/29/2 47/30/2 46/42/2
f 31/32/2 48/33/2 47/43/2
f 30/1/2 49/2/2 48/44/2
f 28/45/2 29/47/2 49/46/2
f 1/4/3 14/6/3 39/6/3 26/4/3
f 2/5/4 1/4/4 26/4/4 27/5/4
f 4/47/5 24/46/5 49/46/5 29/47/5
f 3/45/6 4/47/6 29/47/6 28/45/6
f 5/1/3 3/3/3 28/3/3 30/1/3
f 6/32/3 5/34/3 30/34/3 31/32/3
f 7/29/3 6/31/3 31/31/3 32/29/3
f 8/26/3 7/28/3 32/28/3 33/26/3
f 9/23/3 8/25/3 33/25/3 34/23/3
f 10/20/3 9/22/3 34/22/3 35/20/3
f 11/17/3 10/19/3 35/19/3 36/17/3
f 12/14/3 11/16/3 36/16/3 37/14/3
f 13/10/3 12/13/3 37/13/3 38/10/3
f 14/7/3 13/9/3 38/9/3 39/7/3
f 15/8/5 2/35/5 27/35/5 40/8/5
f 16/11/5 15/36/5 40/36/5 41/11/5
f 17/15/5 25/37/5 50/37/5 42/15/5
f 18/18/5 17/38/5 42/38/5 43/18/5
f 19/21/5 18/39/5 43/39/5 44/21/5
f 20/24/5 19/40/5 44/40/5 45/24/5
f 21/27/5 20/41/5 45/41/5 46/27/5
f 22/30/5 21/42/5 46/42/5 47/30/5
f 23/33/5 22/43/5 47/43/5 48/33/5
f 24/2/5 23/44/5 48/44/5 49/2/5
f 25/12/5 16/11/5 41/11/5 50/12/5
