# Blender 4.0.2
# www.blender.org
mtllib Fence Post.mtl
o Fence_Post
v -0.038809 -0.008944 0.039533
v -0.038809 0.608944 0.039533
v -0.038809 -0.008944 -0.039533
v -0.038809 0.608944 -0.039533
v 0.040257 -0.008944 0.039533
v 0.040257 0.608944 0.039533
v 0.040257 -0.008944 -0.039533
v 0.040257 0.608944 -0.039533
v -0.019280 0.629230 0.020005
v -0.019280 0.629230 -0.020005
v 0.020729 0.629230 -0.020005
v 0.020729 0.629230 0.020005
v -0.022802 0.633763 0.023526
v -0.022802 0.633763 -0.023526
v 0.024250 0.633763 -0.023526
v 0.024250 0.633763 0.023526
v -0.001789 0.668205 0.002513
v -0.001789 0.668205 -0.002513
v 0.003237 0.668205 -0.002513
v 0.003237 0.668205 0.002513
v -0.038809 0.146590 0.039533
v -0.038809 0.165062 0.039533
v -0.038809 0.165062 -0.039533
v -0.038809 0.146590 -0.039533
v 0.040257 0.165062 -0.039533
v 0.040257 0.146590 -0.039533
v 0.040257 0.165062 0.039533
v 0.040257 0.146590 0.039533
v -0.036029 0.146590 0.036753
v -0.036029 0.165062 0.036753
v -0.036029 0.165062 -0.036753
v -0.036029 0.146590 -0.036753
v 0.037477 0.165062 -0.036753
v 0.037477 0.146590 -0.036753
v 0.037477 0.165062 0.036753
v 0.037477 0.146590 0.036753
v -0.037937 0.552706 -0.039533
v -0.037937 0.480136 -0.039533
v -0.037937 0.340756 -0.039533
v -0.037937 0.262908 -0.039533
v 0.039385 0.552706 -0.039533
v 0.039385 0.480136 -0.039533
v 0.039385 0.340756 -0.039533
v 0.039385 0.262908 -0.039533
v -0.037937 0.099518 -0.039533
v -0.037937 0.039982 -0.039533
v 0.039385 0.099518 -0.039533
v 0.039385 0.039982 -0.039533
v 0.040257 0.105829 0.039533
v 0.040257 0.031817 0.039533
v -0.038809 0.031817 0.039533
v -0.038809 0.105829 0.039533
v -0.038809 0.559519 -0.039533
v -0.038809 0.473323 -0.039533
v -0.038809 0.347569 -0.039533
v -0.038809 0.256095 -0.039533
v 0.040257 0.559519 -0.039533
v 0.040257 0.473323 -0.039533
v 0.040257 0.347569 -0.039533
v 0.040257 0.256095 -0.039533
v -0.038809 0.106331 -0.039533
v -0.038809 0.033169 -0.039533
v 0.040257 0.106331 -0.039533
v 0.040257 0.033169 -0.039533
vn -0.0000 -0.0000 -1.0000
vn -0.0000 -1.0000 -0.0000
vn -0.7204 0.6935 -0.0000
vn -0.7897 -0.6135 -0.0000
vn -0.0000 0.6935 0.7204
vn -0.0000 0.6935 -0.7204
vn 0.7204 0.6935 -0.0000
vn -0.0000 0.5208 0.8537
vn -0.0000 -0.6135 0.7897
vn -0.0000 -0.6135 -0.7897
vn 0.7897 -0.6135 -0.0000
vn -0.0000 1.0000 -0.0000
vn -0.0000 0.5208 -0.8537
vn 0.8537 0.5208 -0.0000
vn -0.8537 0.5208 -0.0000
vn -0.0000 -0.0000 1.0000
vn 1.0000 -0.0000 -0.0000
vn -1.0000 -0.0000 -0.0000
vt 0.787756 0.484190
vt 0.787756 0.488930
vt 0.795339 0.488930
vt 0.795339 0.484190
vt 0.787756 0.429674
vt 0.795339 0.429674
vt 0.789629 0.490876
vt 0.789291 0.491310
vt 0.793466 0.490876
vt 0.793804 0.491310
vt 0.791789 0.494613
vt 0.791306 0.494613
vt 0.795339 0.440681
vt 0.795339 0.444590
vt 0.787756 0.444590
vt 0.787756 0.440681
vt 0.795072 0.444590
vt 0.795339 0.440729
vt 0.788023 0.444590
vt 0.787756 0.440729
vt 0.795339 0.446361
vt 0.787756 0.446361
vt 0.788023 0.446361
vt 0.795072 0.446361
vt 0.795339 0.475924
vt 0.795339 0.455092
vt 0.795339 0.463864
vt 0.787756 0.455092
vt 0.787840 0.455745
vt 0.787840 0.463211
vt 0.795255 0.463211
vt 0.795255 0.455745
vt 0.787756 0.463864
vt 0.787756 0.475924
vt 0.787840 0.476577
vt 0.787840 0.483537
vt 0.795255 0.483537
vt 0.795255 0.476577
vt 0.787756 0.433583
vt 0.787756 0.433713
vt 0.795339 0.433713
vt 0.787840 0.434366
vt 0.787840 0.440076
vt 0.795255 0.440076
vt 0.795255 0.434366
vt 0.795339 0.433583
s 0
usemtl Graident
f 53/1/1 4/2/1 8/3/1 57/4/1
f 3/5/2 7/6/2 5/6/2 1/5/2
f 4/2/3 2/2/3 9/7/3 10/7/3
f 10/7/4 9/7/4 13/8/4 14/8/4
f 2/2/5 6/3/5 12/9/5 9/7/5
f 8/3/6 4/2/6 10/7/6 11/9/6
f 6/3/7 8/3/7 11/9/7 12/9/7
f 13/8/8 16/10/8 20/11/8 17/12/8
f 9/7/9 12/9/9 16/10/9 13/8/9
f 11/9/10 10/7/10 14/8/10 15/10/10
f 12/9/11 11/9/11 15/10/11 16/10/11
f 19/11/12 18/12/12 17/12/12 20/11/12
f 15/10/13 14/8/13 18/12/13 19/11/13
f 16/10/14 15/10/14 19/11/14 20/11/14
f 14/8/15 13/8/15 17/12/15 18/12/15
f 49/13/16 28/14/16 21/15/16 52/16/16
f 28/14/12 26/14/12 34/17/12 36/17/12
f 63/18/17 26/14/17 28/14/17 49/13/17
f 26/14/12 24/15/12 32/19/12 34/17/12
f 61/20/1 24/15/1 26/14/1 63/18/1
f 24/15/12 21/15/12 29/19/12 32/19/12
f 52/16/18 21/15/18 24/15/18 61/20/18
f 27/21/2 22/22/2 30/23/2 35/24/2
f 36/17/16 35/24/16 30/23/16 29/19/16
f 34/17/17 33/24/17 35/24/17 36/17/17
f 32/19/1 31/23/1 33/24/1 34/17/1
f 29/19/18 30/23/18 31/23/18 32/19/18
f 21/15/12 28/14/12 36/17/12 29/19/12
f 22/22/2 23/22/2 31/23/2 30/23/2
f 23/22/2 25/21/2 33/24/2 31/23/2
f 25/21/2 27/21/2 35/24/2 33/24/2
f 27/21/16 6/3/16 2/2/16 22/22/16
f 58/25/17 57/4/17 8/3/17 6/3/17 27/21/17 25/21/17 60/26/17 59/27/17
f 23/22/1 56/28/1 60/26/1 25/21/1
f 40/29/1 39/30/1 43/31/1 44/32/1
f 55/33/1 54/34/1 58/25/1 59/27/1
f 38/35/1 37/36/1 41/37/1 42/38/1
f 22/22/18 2/2/18 4/2/18 53/1/18 54/34/18 55/33/18 56/28/18 23/22/18
f 1/5/18 51/39/18 62/40/18 3/5/18
f 51/39/18 52/16/18 61/20/18 62/40/18
f 3/5/1 62/40/1 64/41/1 7/6/1
f 46/42/1 45/43/1 47/44/1 48/45/1
f 7/6/17 64/41/17 50/46/17 5/6/17
f 64/41/17 63/18/17 49/13/17 50/46/17
f 5/6/16 50/46/16 51/39/16 1/5/16
f 50/46/16 49/13/16 52/16/16 51/39/16
f 37/36/1 38/35/1 54/34/1 53/1/1
f 39/30/1 40/29/1 56/28/1 55/33/1
f 42/38/1 41/37/1 57/4/1 58/25/1
f 44/32/1 43/31/1 59/27/1 60/26/1
f 40/29/1 44/32/1 60/26/1 56/28/1
f 43/31/1 39/30/1 55/33/1 59/27/1
f 38/35/1 42/38/1 58/25/1 54/34/1
f 41/37/1 37/36/1 53/1/1 57/4/1
f 45/43/1 46/42/1 62/40/1 61/20/1
f 48/45/1 47/44/1 63/18/1 64/41/1
f 46/42/1 48/45/1 64/41/1 62/40/1
f 47/44/1 45/43/1 61/20/1 63/18/1
