# Blender 4.0.2
# www.blender.org
mtllib Road_Round_45.mtl
o Road_Round_45
v 3.375300 0.101663 2.061156
v 4.259199 0.101663 2.689998
v 3.397730 0.101663 3.773479
v 3.386224 0.101663 2.070565
v 2.732715 0.101663 2.910000
v 4.253356 0.101663 2.721258
v 3.411464 0.101663 3.744796
v 2.738771 0.101663 2.918889
v -0.024173 0.095095 5.139176
v 1.099941 0.095095 5.045929
v 1.896166 0.101663 3.547895
v 0.977122 0.095095 3.952786
v -0.024173 0.095095 3.977310
v 2.306686 0.101663 4.574544
v 1.095022 0.095095 5.040074
v 0.967284 0.095095 3.964496
v 0.921683 0.101663 3.952681
v -0.024173 0.095095 5.087496
v 1.905679 0.101663 3.575116
v -0.024173 0.095095 4.029755
v 2.327376 0.101663 4.550394
v 1.118022 0.095095 5.029030
v 2.364567 0.095095 4.529071
v 1.077800 0.101663 5.039042
v -0.024173 0.101663 4.046695
v -0.024173 0.101663 5.104436
v 0.923826 0.101663 3.981437
v 1.051564 0.101663 5.057015
v 1.955608 0.095095 3.544318
v 0.952607 0.095095 3.926975
v 1.121258 0.095095 5.022101
v 2.370834 0.095095 4.533453
v 1.051564 -0.124701 5.057015
v 0.923826 -0.124701 3.981437
v -0.024173 -0.124701 5.104436
v -0.024173 -0.124701 4.046695
v 0.965141 0.095095 3.935741
v 1.949136 0.095095 3.558175
v 2.351476 0.095095 4.550074
v 3.448375 0.095095 3.759149
v 1.077800 -0.124701 5.039042
v 2.327376 -0.124701 4.550394
v 1.905679 -0.124701 3.575116
v 0.921683 -0.124701 3.952681
v 1.925250 0.095095 3.525732
v 2.783223 0.095095 2.896331
v 2.306686 -0.124701 4.574544
v 1.896166 -0.124701 3.547895
v 3.441188 0.095095 3.756538
v 2.738771 -0.124701 2.918889
v 3.411464 -0.124701 3.744796
v 2.350144 0.095095 4.557603
v 4.253356 -0.124701 2.721258
v 1.939624 0.095095 3.530955
v 2.782229 0.095095 2.901948
v 2.732715 -0.124701 2.910000
v 3.386224 -0.124701 2.070565
v 3.455583 0.095095 3.735474
v 4.304431 0.095095 2.704979
v 3.429019 0.095095 2.046006
v 2.770489 0.095095 2.892565
v 3.397730 -0.124701 3.773479
v 3.454921 0.095095 3.727856
v 4.296813 0.095095 2.704317
v 2.776173 0.095095 2.893059
v 3.429681 0.095095 2.053624
v 4.259199 -0.124701 2.689998
v 4.305268 0.095095 2.680245
v 3.375300 -0.124701 2.061156
v 3.411228 0.095095 2.045547
v 3.418757 0.122139 2.044215
v 3.418757 0.095095 2.044215
v 4.302657 0.095095 2.673058
v 4.302657 0.122139 2.673058
v 3.441188 0.122139 3.756538
v 3.429681 0.122139 2.053624
v 2.776173 0.122139 2.893059
v 4.296813 0.122139 2.704317
v 3.454921 0.122139 3.727856
v 2.782229 0.122139 2.901948
v 1.939624 0.122139 3.530955
v 2.350144 0.122139 4.557603
v 0.965141 0.122139 3.935741
v -0.024173 0.095095 5.153153
v 1.949136 0.122139 3.558175
v 2.370834 0.122139 4.533453
v 1.121258 0.122139 5.022101
v -0.024173 0.095095 3.980987
v -0.024173 0.122139 4.029755
v -0.024173 0.122139 5.087496
v 0.967284 0.122139 3.964496
v 1.095022 0.122139 5.040074
v -0.024173 -0.034939 4.006088
v 0.049499 -0.034939 0.708269
v -0.024173 -0.034939 5.158088
v -0.024173 -0.034939 -0.050608
v -0.024173 -0.126607 4.006088
v 0.049499 -0.126607 0.708269
v -0.024173 0.119747 -0.050608
v -0.024173 0.119747 -0.050608
v 0.658203 0.119747 0.410186
v 0.049499 0.119747 0.744719
v -0.024173 -0.119747 -0.050608
v -0.024173 -0.119747 -0.050608
v 0.658203 -0.119747 0.410186
v 0.049499 -0.119747 0.744719
v -0.024173 -0.034939 5.158088
v -0.024173 -0.034939 -0.050608
v 2.157717 -0.034939 4.535297
v 3.746577 -0.034939 2.318911
v -0.009697 -0.034939 4.473277
v -0.019712 -0.034939 -0.027362
v -0.019428 -0.034939 -0.025401
v 2.075542 -0.034939 3.755798
v 3.093503 0.122139 2.485447
v -0.019145 -0.034939 -0.023439
v 3.922304 0.122139 3.159631
v 0.664181 0.119747 0.403107
vn -0.0687 -0.0000 -0.9976
vn 0.7919 -0.0000 -0.6106
vn -0.7891 -0.0000 -0.6143
vn 0.0440 -0.0000 0.9990
vn -0.5982 -0.0000 -0.8013
vn 0.5918 -0.0000 0.8061
vn 0.6002 -0.0000 -0.7998
vn -0.9285 -0.0000 0.3713
vn -0.0000 1.0000 -0.0000
vn -0.0000 -1.0000 -0.0000
vn -0.9898 -0.0000 0.1422
vn 0.9179 -0.0000 -0.3969
vn -0.7759 -0.0000 0.6309
vn -0.3582 -0.0000 -0.9336
vn 0.7723 -0.0000 0.6352
vn 0.3642 -0.0000 0.9313
vn -0.0657 -0.0000 -0.9978
vn 0.9930 -0.0000 -0.1179
vn -0.5797 -0.0000 0.8148
vn -1.0000 -0.0000 -0.0000
vn 0.0423 -0.0000 0.9991
vn 0.9998 -0.0000 0.0223
vn 0.4816 0.0069 0.8763
vn 0.5596 -0.0000 -0.8287
vn -0.9957 -0.0000 0.0922
vt 0.423289 0.443611
vt 0.423688 0.443551
vt 0.423688 0.443551
vt 0.423398 0.444069
vt 0.423747 0.443542
vt 0.423755 0.443974
vt 0.423809 0.443960
vt 0.423768 0.443981
vt 0.423379 0.444085
vt 0.423396 0.444064
vt 0.423753 0.443970
vt 0.423260 0.443593
vt 0.423289 0.443608
vt 0.423696 0.443530
vt 0.423686 0.443548
vt 0.423745 0.443540
vt 0.423807 0.443956
vt 0.423826 0.443965
vt 0.423762 0.443520
vt 0.423523 0.443573
vt 0.423579 0.444016
vt 0.423687 0.443550
vt 0.423754 0.443972
vt 0.423581 0.444020
vt 0.423525 0.443576
vt 0.423580 0.442343
vt 0.422935 0.442240
vt 0.424883 0.442551
vt 0.424607 0.442507
vt 0.423574 0.442349
vt 0.424592 0.442510
vt 0.423570 0.444023
vt 0.815149 0.904312
vt 0.815149 0.904312
s 0
usemtl Diffius.001
f 34/1/1 36/2/1 25/3/1 27/1/1
f 62/4/2 50/1/2 8/1/2 3/4/2
f 57/1/3 56/5/3 5/5/3 4/1/3
f 35/6/4 33/4/4 28/4/4 26/6/4
f 50/1/5 48/5/5 11/5/5 8/1/5
f 47/7/6 62/4/6 3/4/6 14/7/6
f 53/4/7 57/1/7 4/1/7 6/4/7
f 48/5/8 47/7/8 14/7/8 11/5/8
f 9/8/9 10/9/9 15/10/9 18/11/9
f 10/9/9 12/12/9 16/13/9 15/10/9
f 12/12/9 13/14/9 20/15/9 16/13/9
f 13/14/10 9/8/10 18/11/10 20/15/10
f 37/16/11 31/17/11 87/17/11 83/16/11
f 42/4/12 43/1/12 19/1/12 21/4/12
f 56/5/13 51/7/13 7/7/13 5/5/13
f 43/1/14 44/5/14 17/5/14 19/1/14
f 44/5/11 41/7/11 24/7/11 17/5/11
f 51/7/15 53/4/15 6/4/15 7/7/15
f 22/18/10 23/9/10 32/10/10 31/17/10
f 23/9/9 29/12/9 38/13/9 32/10/9
f 29/12/9 30/19/9 37/16/9 38/13/9
f 30/19/9 22/18/9 31/17/9 37/16/9
f 7/7/9 6/4/9 4/1/9 5/5/9
f 14/7/9 3/4/9 8/1/9 11/5/9
f 24/7/9 21/4/9 19/1/9 17/5/9
f 26/6/9 28/4/9 27/1/9 25/3/9
f 39/18/9 40/9/9 49/10/9 52/17/9
f 40/9/9 46/12/9 55/13/9 49/10/9
f 46/12/9 45/19/9 54/16/9 55/13/9
f 45/19/9 39/18/9 52/17/9 54/16/9
f 35/6/10 36/2/10 34/1/10 33/4/10
f 41/7/10 44/5/10 43/1/10 42/4/10
f 47/7/10 48/5/10 50/1/10 62/4/10
f 51/7/10 56/5/10 57/1/10 53/4/10
f 58/18/9 59/9/9 64/10/9 63/17/9
f 59/9/9 60/12/9 66/13/9 64/10/9
f 60/12/9 61/19/9 65/16/9 66/13/9
f 61/19/9 58/18/9 63/17/9 65/16/9
f 66/13/3 65/16/3 77/16/3 115/20/3 76/13/3
f 54/16/8 52/17/8 82/17/8 81/16/8
f 31/17/16 32/10/16 86/10/16 87/17/16
f 64/10/7 66/13/7 76/13/7 78/10/7
f 65/16/13 63/17/13 79/17/13 77/16/13
f 70/19/9 68/18/9 73/17/9 72/16/9
f 55/13/5 54/16/5 81/16/5 80/13/5
f 63/17/15 64/10/15 78/10/15 117/21/15 79/17/15
f 49/10/2 55/13/2 80/13/2 75/10/2
f 16/13/17 20/15/17 89/22/17 91/13/17
f 32/10/12 38/13/12 85/13/12 86/10/12
f 38/13/14 37/16/14 83/16/14 85/13/14
f 15/10/18 16/13/18 91/13/18 92/10/18
f 72/16/19 73/17/19 74/17/19 71/16/19
f 52/17/6 49/10/6 75/10/6 82/17/6
f 20/15/20 18/11/20 90/23/20 89/22/20
f 18/11/21 15/10/21 92/10/21 90/23/21
f 79/7/9 117/24/9 115/25/9 77/5/9
f 82/7/9 75/4/9 80/1/9 81/5/9
f 87/7/9 86/4/9 85/1/9 83/5/9
f 90/23/9 92/4/9 91/1/9 89/22/9
f 33/4/18 34/1/18 27/1/18 28/4/18
f 69/5/19 67/7/19 2/7/19 1/5/19
f 36/2/20 35/6/20 26/6/20 25/3/20
f 41/7/16 42/4/16 21/4/16 24/7/16
f 93/26/10 95/27/10 96/28/10 94/29/10
f 93/26/22 97/30/22 98/31/22 94/29/22
f 102/7/9 118/32/9 99/1/9 100/5/9
f 106/7/10 104/5/10 103/1/10 105/4/10
f 99/1/9 103/1/9 104/5/9 100/5/9
f 102/7/23 106/7/23 105/4/23 101/4/23 118/32/23
f 101/4/24 105/4/24 103/1/24 99/1/24
f 100/5/25 104/5/25 106/7/25 102/7/25
f 112/33/9 111/34/9 114/34/9 113/33/9
f 113/33/9 114/34/9 110/33/9 116/33/9
f 118/32/10 101/4/10 99/1/10
f 115/25/9 117/24/9 78/4/9 76/1/9
l 88 84
