# Blender 4.0.2
# www.blender.org
mtllib Road Blocker.mtl
o Cross
v 1.805477 0.867752 -0.145945
v 1.805472 0.867316 -0.152322
v 1.671755 1.004429 -0.155176
v 1.671749 1.003993 -0.161554
v 1.827743 0.889435 -0.147445
v 1.827738 0.888999 -0.153823
v 1.694020 1.026112 -0.156677
v 1.694015 1.025676 -0.163054
v 1.670351 0.891157 -0.149603
v 1.670449 0.890822 -0.155986
v 1.807308 1.024822 -0.154513
v 1.807406 1.024487 -0.160896
v 1.692086 0.868942 -0.148103
v 1.692184 0.868607 -0.154486
v 1.829043 1.002607 -0.153013
v 1.829141 1.002272 -0.159396
vn -0.7156 -0.6969 0.0482
vn -0.6985 0.7140 -0.0482
vn 0.7156 0.6969 -0.0482
vn 0.6985 -0.7140 0.0482
vn 0.0008 0.0682 0.9977
vn -0.0008 -0.0682 -0.9977
vn 0.7154 0.6982 -0.0256
vn -0.7154 -0.6982 0.0256
vn -0.0154 0.0524 0.9985
vn 0.0154 -0.0524 -0.9985
vt 0.942206 0.934424
vt 0.942206 0.934102
vt 0.928066 0.946479
vt 0.928066 0.946802
vt 0.930364 0.948491
vt 0.930364 0.948814
vt 0.944504 0.936113
vt 0.944504 0.936436
vt 0.928066 0.936436
vt 0.928066 0.936113
vt 0.942206 0.948491
vt 0.942206 0.948814
vt 0.944504 0.946479
vt 0.944504 0.946802
vt 0.930364 0.934102
vt 0.930364 0.934424
s 0
usemtl Gradient_Colour
f 1/1/1 3/4/1 4/3/1 2/2/1
f 3/4/2 7/6/2 8/5/2 4/3/2
f 7/6/3 5/8/3 6/7/3 8/5/3
f 5/8/4 1/1/4 2/2/4 6/7/4
f 3/4/5 1/1/5 5/8/5 7/6/5
f 8/5/6 6/7/6 2/2/6 4/3/6
f 9/9/2 11/12/2 12/11/2 10/10/2
f 11/12/7 15/14/7 16/13/7 12/11/7
f 15/14/4 13/16/4 14/15/4 16/13/4
f 13/16/8 9/9/8 10/10/8 14/15/8
f 11/12/9 9/9/9 13/16/9 15/14/9
f 16/13/10 14/15/10 10/10/10 12/11/10
o Stripped_Plank
v 1.321272 0.736916 -0.182176
v 1.321272 0.824649 -0.182176
v 1.321272 0.736916 -0.194049
v 1.321272 0.824649 -0.194049
v 2.175484 0.736916 -0.182176
v 2.175484 0.824649 -0.182176
v 2.175484 0.736916 -0.194049
v 2.175484 0.824649 -0.194049
v 2.068681 0.736916 -0.194049
v 1.961879 0.736916 -0.194049
v 1.855076 0.736916 -0.194049
v 1.748273 0.736916 -0.194049
v 1.641470 0.736916 -0.194049
v 1.534668 0.736916 -0.194049
v 1.427865 0.736916 -0.194049
v 1.321062 0.736916 -0.194049
v 1.427894 0.824649 -0.194049
v 1.534697 0.824649 -0.194049
v 1.641499 0.824649 -0.194049
v 1.748302 0.824649 -0.194049
v 1.855105 0.824649 -0.194049
v 1.961908 0.824649 -0.194049
v 2.068710 0.824649 -0.194049
v 1.321062 0.736916 -0.182176
v 1.427865 0.736916 -0.182176
v 1.534668 0.736916 -0.182176
v 1.641470 0.736916 -0.182176
v 1.748273 0.736916 -0.182176
v 1.855076 0.736916 -0.182176
v 1.961879 0.736916 -0.182176
v 2.068681 0.736916 -0.182176
v 2.068710 0.824649 -0.182176
v 1.961908 0.824649 -0.182176
v 1.855105 0.824649 -0.182176
v 1.748302 0.824649 -0.182176
v 1.641499 0.824649 -0.182176
v 1.534697 0.824649 -0.182176
v 1.427894 0.824649 -0.182176
v 1.321272 0.912382 -0.182176
v 1.321272 1.000115 -0.182176
v 1.321272 0.912382 -0.194049
v 1.321272 1.000115 -0.194049
v 2.175484 0.912382 -0.182176
v 2.175484 1.000115 -0.182176
v 2.175484 0.912382 -0.194049
v 2.175484 1.000115 -0.194049
v 2.068681 0.912382 -0.194049
v 1.961879 0.912382 -0.194049
v 1.855076 0.912382 -0.194049
v 1.748273 0.912382 -0.194049
v 1.641470 0.912382 -0.194049
v 1.534668 0.912382 -0.194049
v 1.427865 0.912382 -0.194049
v 1.321062 0.912382 -0.194049
v 1.427894 1.000115 -0.194049
v 1.534697 1.000115 -0.194049
v 1.641499 1.000115 -0.194049
v 1.748302 1.000115 -0.194049
v 1.855105 1.000115 -0.194049
v 1.961908 1.000115 -0.194049
v 2.068710 1.000115 -0.194049
v 1.321062 0.912382 -0.182176
v 1.427865 0.912382 -0.182176
v 1.534668 0.912382 -0.182176
v 1.641470 0.912382 -0.182176
v 1.748273 0.912382 -0.182176
v 1.855076 0.912382 -0.182176
v 1.961879 0.912382 -0.182176
v 2.068681 0.912382 -0.182176
v 2.068710 1.000115 -0.182176
v 1.961908 1.000115 -0.182176
v 1.855105 1.000115 -0.182176
v 1.748302 1.000115 -0.182176
v 1.641499 1.000115 -0.182176
v 1.534697 1.000115 -0.182176
v 1.427894 1.000115 -0.182176
v 1.321272 1.087848 -0.182176
v 1.321272 1.175581 -0.182176
v 1.321272 1.087848 -0.194049
v 1.321272 1.175581 -0.194049
v 2.175484 1.087848 -0.182176
v 2.175484 1.175581 -0.182176
v 2.175484 1.087848 -0.194049
v 2.175484 1.175581 -0.194049
v 2.068681 1.087848 -0.194049
v 1.961879 1.087848 -0.194049
v 1.855076 1.087848 -0.194049
v 1.748273 1.087848 -0.194049
v 1.641470 1.087848 -0.194049
v 1.534668 1.087848 -0.194049
v 1.427865 1.087848 -0.194049
v 1.321062 1.087848 -0.194049
v 1.427894 1.175581 -0.194049
v 1.534697 1.175581 -0.194049
v 1.641499 1.175581 -0.194049
v 1.748302 1.175581 -0.194049
v 1.855105 1.175581 -0.194049
v 1.961908 1.175581 -0.194049
v 2.068710 1.175581 -0.194049
v 1.321062 1.087848 -0.182176
v 1.427865 1.087848 -0.182176
v 1.534668 1.087848 -0.182176
v 1.641470 1.087848 -0.182176
v 1.748273 1.087848 -0.182176
v 1.855076 1.087848 -0.182176
v 1.961879 1.087848 -0.182176
v 2.068681 1.087848 -0.182176
v 2.068710 1.175581 -0.182176
v 1.961908 1.175581 -0.182176
v 1.855105 1.175581 -0.182176
v 1.748302 1.175581 -0.182176
v 1.641499 1.175581 -0.182176
v 1.534697 1.175581 -0.182176
v 1.427894 1.175581 -0.182176
vn -1.0000 -0.0000 -0.0000
vn -0.0000 -0.0000 -1.0000
vn 1.0000 -0.0000 -0.0000
vn -0.0000 -0.0000 1.0000
vn -0.0000 -1.0000 -0.0000
vn -0.0000 1.0000 -0.0000
vt 0.169958 0.513054
vt 0.169958 0.516451
vt 0.198897 0.513054
vt 0.203032 0.516451
vt 0.203032 0.513054
vt 0.169950 0.513054
vt 0.174086 0.516451
vt 0.083396 0.925134
vt 0.076989 0.925137
vt 0.077054 0.925112
vt 0.083530 0.925109
vt 0.198898 0.516451
vt 0.194762 0.516451
vt 0.070596 0.925140
vt 0.064221 0.925144
vt 0.064151 0.925118
vt 0.070594 0.925115
vt 0.190627 0.516451
vt 0.186492 0.516451
vt 0.057862 0.925147
vt 0.051519 0.925150
vt 0.051316 0.925125
vt 0.057725 0.925121
vt 0.182357 0.516451
vt 0.178222 0.516451
vt 0.045194 0.925153
vt 0.038884 0.925156
vt 0.038549 0.925131
vt 0.044924 0.925128
vt 0.125000 0.500000
vt 0.152778 0.500000
vt 0.152778 0.750000
vt 0.125000 0.750000
vt 0.032769 0.919983
vt 0.039032 0.919973
vt 0.038700 0.919894
vt 0.032372 0.919904
vt 0.174085 0.513054
vt 0.178220 0.513054
vt 0.045311 0.919963
vt 0.051606 0.919953
vt 0.051405 0.919873
vt 0.045044 0.919884
vt 0.182356 0.513054
vt 0.186491 0.513054
vt 0.057918 0.919943
vt 0.064246 0.919933
vt 0.064177 0.919853
vt 0.057783 0.919863
vt 0.190626 0.513054
vt 0.194761 0.513054
vt 0.070591 0.919923
vt 0.076952 0.919913
vt 0.077017 0.919833
vt 0.070589 0.919843
s 0
usemtl Gradient_Colour
f 17/17/11 18/18/11 20/18/11 19/17/11
f 25/19/12 24/20/12 23/21/12
f 23/21/13 24/20/13 22/20/13 21/21/13
f 40/22/14 54/23/14 18/18/14 17/17/14
f 25/19/15 23/21/15 21/21/15 47/19/15
f 33/23/16 20/18/16 18/18/16 54/23/16
f 24/24/16 39/25/16 48/26/16 22/27/16
f 39/28/16 38/29/16 49/29/16 48/28/16
f 38/30/16 37/31/16 50/32/16 49/33/16
f 37/34/16 36/35/16 51/35/16 50/34/16
f 36/36/16 35/37/16 52/38/16 51/39/16
f 35/40/16 34/41/16 53/41/16 52/40/16
f 34/42/16 33/43/16 54/44/16 53/45/16
f 19/46/16 32/47/16 40/48/16 17/49/16
f 32/50/15 31/51/15 41/52/15 40/53/15
f 31/54/15 30/55/15 42/55/15 41/54/15
f 30/56/15 29/57/15 43/58/15 42/59/15
f 29/60/15 28/61/15 44/61/15 43/60/15
f 28/62/15 27/63/15 45/64/15 44/65/15
f 27/66/15 26/67/15 46/67/15 45/66/15
f 26/68/15 25/69/15 47/70/15 46/71/15
f 21/21/14 22/20/14 47/19/14
f 47/70/14 22/27/14 48/26/14 46/71/14
f 46/67/14 48/28/14 49/29/14 45/66/14
f 45/64/14 49/33/14 50/32/14 44/65/14
f 44/61/14 50/34/14 51/35/14 43/60/14
f 43/58/14 51/39/14 52/38/14 42/59/14
f 42/55/14 52/40/14 53/41/14 41/54/14
f 41/52/14 53/45/14 54/44/14 40/53/14
f 19/17/12 20/18/12 33/23/12 32/22/12
f 32/50/12 33/43/12 34/42/12 31/51/12
f 31/54/12 34/41/12 35/40/12 30/55/12
f 30/56/12 35/37/12 36/36/12 29/57/12
f 29/60/12 36/35/12 37/34/12 28/61/12
f 28/62/12 37/31/12 38/30/12 27/63/12
f 27/66/12 38/29/12 39/28/12 26/67/12
f 26/68/12 39/25/12 24/24/12 25/69/12
f 55/17/11 56/18/11 58/18/11 57/17/11
f 63/19/12 62/20/12 61/21/12
f 61/21/13 62/20/13 60/20/13 59/21/13
f 78/22/14 92/23/14 56/18/14 55/17/14
f 63/19/15 61/21/15 59/21/15 85/19/15
f 71/23/16 58/18/16 56/18/16 92/23/16
f 62/24/16 77/25/16 86/26/16 60/27/16
f 77/28/16 76/29/16 87/29/16 86/28/16
f 76/30/16 75/31/16 88/32/16 87/33/16
f 75/34/16 74/35/16 89/35/16 88/34/16
f 74/36/16 73/37/16 90/38/16 89/39/16
f 73/40/16 72/41/16 91/41/16 90/40/16
f 72/42/16 71/43/16 92/44/16 91/45/16
f 57/46/16 70/47/16 78/48/16 55/49/16
f 70/50/15 69/51/15 79/52/15 78/53/15
f 69/54/15 68/55/15 80/55/15 79/54/15
f 68/56/15 67/57/15 81/58/15 80/59/15
f 67/60/15 66/61/15 82/61/15 81/60/15
f 66/62/15 65/63/15 83/64/15 82/65/15
f 65/66/15 64/67/15 84/67/15 83/66/15
f 64/68/15 63/69/15 85/70/15 84/71/15
f 59/21/14 60/20/14 85/19/14
f 85/70/14 60/27/14 86/26/14 84/71/14
f 84/67/14 86/28/14 87/29/14 83/66/14
f 83/64/14 87/33/14 88/32/14 82/65/14
f 82/61/14 88/34/14 89/35/14 81/60/14
f 81/58/14 89/39/14 90/38/14 80/59/14
f 80/55/14 90/40/14 91/41/14 79/54/14
f 79/52/14 91/45/14 92/44/14 78/53/14
f 57/17/12 58/18/12 71/23/12 70/22/12
f 70/50/12 71/43/12 72/42/12 69/51/12
f 69/54/12 72/41/12 73/40/12 68/55/12
f 68/56/12 73/37/12 74/36/12 67/57/12
f 67/60/12 74/35/12 75/34/12 66/61/12
f 66/62/12 75/31/12 76/30/12 65/63/12
f 65/66/12 76/29/12 77/28/12 64/67/12
f 64/68/12 77/25/12 62/24/12 63/69/12
f 93/17/11 94/18/11 96/18/11 95/17/11
f 101/19/12 100/20/12 99/21/12
f 99/21/13 100/20/13 98/20/13 97/21/13
f 116/22/14 130/23/14 94/18/14 93/17/14
f 101/19/15 99/21/15 97/21/15 123/19/15
f 109/23/16 96/18/16 94/18/16 130/23/16
f 100/24/16 115/25/16 124/26/16 98/27/16
f 115/28/16 114/29/16 125/29/16 124/28/16
f 114/30/16 113/31/16 126/32/16 125/33/16
f 113/34/16 112/35/16 127/35/16 126/34/16
f 112/36/16 111/37/16 128/38/16 127/39/16
f 111/40/16 110/41/16 129/41/16 128/40/16
f 110/42/16 109/43/16 130/44/16 129/45/16
f 95/46/16 108/47/16 116/48/16 93/49/16
f 108/50/15 107/51/15 117/52/15 116/53/15
f 107/54/15 106/55/15 118/55/15 117/54/15
f 106/56/15 105/57/15 119/58/15 118/59/15
f 105/60/15 104/61/15 120/61/15 119/60/15
f 104/62/15 103/63/15 121/64/15 120/65/15
f 103/66/15 102/67/15 122/67/15 121/66/15
f 102/68/15 101/69/15 123/70/15 122/71/15
f 97/21/14 98/20/14 123/19/14
f 123/70/14 98/27/14 124/26/14 122/71/14
f 122/67/14 124/28/14 125/29/14 121/66/14
f 121/64/14 125/33/14 126/32/14 120/65/14
f 120/61/14 126/34/14 127/35/14 119/60/14
f 119/58/14 127/39/14 128/38/14 118/59/14
f 118/55/14 128/40/14 129/41/14 117/54/14
f 117/52/14 129/45/14 130/44/14 116/53/14
f 95/17/12 96/18/12 109/23/12 108/22/12
f 108/50/12 109/43/12 110/42/12 107/51/12
f 107/54/12 110/41/12 111/40/12 106/55/12
f 106/56/12 111/37/12 112/36/12 105/57/12
f 105/60/12 112/35/12 113/34/12 104/61/12
f 104/62/12 113/31/12 114/30/12 103/63/12
f 103/66/12 114/29/12 115/28/12 102/67/12
f 102/68/12 115/25/12 100/24/12 101/69/12
o Frame01
v 1.388675 1.113161 -0.189831
v 1.388675 1.151420 -0.189831
v 1.388675 1.113161 -0.215697
v 1.388675 1.151420 -0.215697
v 2.102331 1.113161 -0.189831
v 2.102331 1.151420 -0.189831
v 2.102331 1.113161 -0.215697
v 2.102331 1.151420 -0.215697
vn -1.0000 -0.0000 -0.0000
vn -0.0000 -0.0000 -1.0000
vn 1.0000 -0.0000 -0.0000
vn -0.0000 -0.0000 1.0000
vn -0.0000 -1.0000 -0.0000
vn -0.0000 1.0000 -0.0000
vt 0.916628 0.952666
vt 0.916565 0.954684
vt 0.917248 0.954700
vt 0.917309 0.952726
vt 0.955187 0.954697
vt 0.955170 0.952714
vt 0.955372 0.954681
vt 0.955354 0.952653
s 0
usemtl Gradient_Colour
f 131/72/17 132/73/17 134/74/17 133/75/17
f 133/75/18 134/74/18 138/76/18 137/77/18
f 137/77/19 138/76/19 136/78/19 135/79/19
f 135/79/20 136/78/20 132/73/20 131/72/20
f 133/75/21 137/77/21 135/79/21 131/72/21
f 138/76/22 134/74/22 132/73/22 136/78/22
o Frame02
v 1.388675 0.934430 -0.189831
v 1.388675 0.972689 -0.189831
v 1.388675 0.934430 -0.215697
v 1.388675 0.972689 -0.215697
v 2.102331 0.934430 -0.189831
v 2.102331 0.972689 -0.189831
v 2.102331 0.934430 -0.215697
v 2.102331 0.972689 -0.215697
vn -1.0000 -0.0000 -0.0000
vn -0.0000 -0.0000 -1.0000
vn 1.0000 -0.0000 -0.0000
vn -0.0000 -0.0000 1.0000
vn -0.0000 -1.0000 -0.0000
vn -0.0000 1.0000 -0.0000
vt 0.916924 0.943347
vt 0.916861 0.945326
vt 0.917531 0.945548
vt 0.917591 0.943612
vt 0.955105 0.945505
vt 0.955088 0.943561
vt 0.955287 0.945281
vt 0.955269 0.943293
s 0
usemtl Gradient_Colour
f 139/80/23 140/81/23 142/82/23 141/83/23
f 141/83/24 142/82/24 146/84/24 145/85/24
f 145/85/25 146/84/25 144/86/25 143/87/25
f 143/87/26 144/86/26 140/81/26 139/80/26
f 141/83/27 145/85/27 143/87/27 139/80/27
f 146/84/28 142/82/28 140/81/28 144/86/28
o Frame03
v 1.388675 0.760733 -0.189831
v 1.388675 0.798993 -0.189831
v 1.388675 0.760733 -0.215697
v 1.388675 0.798993 -0.215697
v 2.102331 0.760733 -0.189831
v 2.102331 0.798993 -0.189831
v 2.102331 0.760733 -0.215697
v 2.102331 0.798993 -0.215697
vn -1.0000 -0.0000 -0.0000
vn -0.0000 -0.0000 -1.0000
vn 1.0000 -0.0000 -0.0000
vn -0.0000 -0.0000 1.0000
vn -0.0000 -1.0000 -0.0000
vn -0.0000 1.0000 -0.0000
vt 0.917205 0.934464
vt 0.917144 0.936406
vt 0.917801 0.936822
vt 0.917860 0.934922
vt 0.955027 0.936741
vt 0.955010 0.934832
vt 0.955205 0.936322
vt 0.955187 0.934371
s 0
usemtl Gradient_Colour
f 147/88/29 148/89/29 150/90/29 149/91/29
f 149/91/30 150/90/30 154/92/30 153/93/30
f 153/93/31 154/92/31 152/94/31 151/95/31
f 151/95/32 152/94/32 148/89/32 147/88/32
f 149/91/33 153/93/33 151/95/33 147/88/33
f 154/92/34 150/90/34 148/89/34 152/94/34
o Frame04
v 2.134633 0.422817 -0.189831
v 2.096373 0.422817 -0.189831
v 2.134633 0.422817 -0.215697
v 2.096373 0.422817 -0.215697
v 2.134633 1.156909 -0.189831
v 2.096374 1.156909 -0.189831
v 2.134633 1.156909 -0.215697
v 2.096374 1.156909 -0.215697
v 2.134633 0.511240 -0.215697
v 2.096374 0.511240 -0.215697
v 2.134633 0.511240 -0.189831
v 2.096374 0.511240 -0.189831
v 2.137756 0.422817 -0.217809
v 2.137756 0.422817 -0.187719
v 2.093250 0.422818 -0.187719
v 2.093250 0.422818 -0.217809
v 2.137756 0.511240 -0.217809
v 2.093250 0.511240 -0.187719
v 2.093250 0.511240 -0.217809
v 2.137756 0.511240 -0.187719
v 2.137756 0.467028 -0.217809
v 2.093250 0.467029 -0.187719
v 2.093250 0.467029 -0.217809
v 2.137756 0.467028 -0.187719
v 2.093250 0.422818 -0.397439
v 2.137756 0.422817 -0.397439
v 2.137756 0.434824 -0.397439
v 2.093250 0.434824 -0.397439
v 2.137756 0.422817 -0.082051
v 2.093250 0.422818 -0.082051
v 2.093250 0.430396 -0.082051
v 2.137756 0.430395 -0.082051
vn -0.0000 -1.0000 -0.0000
vn -0.0000 -0.0000 -1.0000
vn -0.0000 1.0000 -0.0000
vn 1.0000 -0.0000 -0.0000
vn -1.0000 -0.0000 -0.0000
vn 0.0001 1.0000 -0.0000
vn -0.0000 -0.0000 1.0000
vn -0.0001 -1.0000 -0.0000
vn -0.0000 0.9843 -0.1765
vn -0.0000 0.9448 0.3276
vt 0.956161 0.917486
vt 0.954208 0.917495
vt 0.954056 0.918312
vt 0.955966 0.918304
vt 0.956151 0.936643
vt 0.954203 0.936647
vt 0.954350 0.954982
vt 0.956337 0.954982
vt 0.954516 0.954973
vt 0.956548 0.954973
vt 0.956354 0.936230
vt 0.954362 0.936234
vt 0.956258 0.926858
vt 0.954129 0.927480
vt 0.954285 0.926865
vt 0.956059 0.927473
s 0
usemtl Gradient_Colour
f 155/96/35 156/97/35 158/98/35 157/99/35
f 163/100/36 164/101/36 162/102/36 161/103/36
f 161/103/37 162/102/37 160/104/37 159/105/37
f 156/97/35 155/96/35 168/96/35 169/97/35
f 163/100/38 161/103/38 159/105/38 165/106/38
f 157/99/35 158/98/35 170/98/35 167/99/35
f 162/102/39 164/101/39 166/107/39 160/104/39
f 166/107/40 164/101/40 173/101/40 172/107/40
f 159/105/41 160/104/41 166/107/41 165/106/41
f 165/106/37 166/107/37 172/107/37 174/106/37
f 168/96/38 178/108/38 186/108/38 183/96/38
f 177/109/39 170/98/39 169/97/39 176/110/39
f 175/111/38 171/100/38 174/106/38 178/108/38
f 175/111/36 177/109/36 173/101/36 171/100/36
f 164/101/37 163/100/37 171/100/37 173/101/37
f 163/100/40 165/106/40 174/106/40 171/100/40
f 158/98/42 156/97/42 169/97/42 170/98/42
f 155/96/42 157/99/42 167/99/42 168/96/42
f 177/109/43 175/111/43 181/111/43 182/109/43
f 167/99/38 175/111/38 178/108/38 168/96/38
f 173/101/39 177/109/39 176/110/39 172/107/39
f 174/106/41 172/107/41 176/110/41 178/108/41
f 180/99/36 179/98/36 182/109/36 181/111/36
f 170/98/39 177/109/39 182/109/39 179/98/39
f 167/99/35 170/98/35 179/98/35 180/99/35
f 175/111/38 167/99/38 180/99/38 181/111/38
f 186/108/41 185/110/41 184/97/41 183/96/41
f 176/110/39 169/97/39 184/97/39 185/110/39
f 169/97/35 168/96/35 183/96/35 184/97/35
f 178/108/44 176/110/44 185/110/44 186/108/44
o Frame05
v 1.394633 0.422817 -0.189831
v 1.356373 0.422817 -0.189831
v 1.394633 0.422817 -0.215697
v 1.356373 0.422817 -0.215697
v 1.394633 1.156909 -0.189831
v 1.356373 1.156909 -0.189831
v 1.394633 1.156909 -0.215697
v 1.356373 1.156909 -0.215697
v 1.394633 0.511240 -0.215697
v 1.356373 0.511240 -0.215697
v 1.394633 0.511240 -0.189831
v 1.356373 0.511240 -0.189831
v 1.397756 0.422817 -0.217809
v 1.397756 0.422817 -0.187719
v 1.353250 0.422818 -0.187719
v 1.353250 0.422818 -0.217809
v 1.397756 0.511240 -0.217809
v 1.353250 0.511240 -0.187719
v 1.353250 0.511240 -0.217809
v 1.397756 0.511240 -0.187719
v 1.397756 0.467028 -0.217809
v 1.353250 0.467029 -0.187719
v 1.353250 0.467029 -0.217809
v 1.397756 0.467028 -0.187719
v 1.353250 0.422818 -0.397439
v 1.397756 0.422817 -0.397439
v 1.397756 0.434824 -0.397439
v 1.353250 0.434824 -0.397439
v 1.397756 0.422817 -0.082051
v 1.353250 0.422818 -0.082051
v 1.353250 0.430396 -0.082051
v 1.397756 0.430395 -0.082051
vn -0.0000 -1.0000 -0.0000
vn -0.0000 -0.0000 -1.0000
vn -0.0000 1.0000 -0.0000
vn 1.0000 -0.0000 -0.0000
vn -0.0001 -1.0000 -0.0000
vn -1.0000 -0.0000 -0.0000
vn -0.0000 -0.0000 1.0000
vn 0.0001 1.0000 -0.0000
vn -0.0000 0.9843 -0.1765
vn -0.0000 0.9448 0.3276
vt 0.918557 0.917652
vt 0.916621 0.917661
vt 0.917277 0.918471
vt 0.919171 0.918463
vt 0.918621 0.936723
vt 0.916690 0.936727
vt 0.916102 0.954983
vt 0.918071 0.954983
vt 0.915393 0.954975
vt 0.917407 0.954975
vt 0.917982 0.936314
vt 0.916007 0.936318
vt 0.916314 0.926990
vt 0.916983 0.927599
vt 0.918896 0.927593
vt 0.918269 0.926983
s 0
usemtl Gradient_Colour
f 187/112/45 188/113/45 190/114/45 189/115/45
f 195/116/46 196/117/46 194/118/46 193/119/46
f 193/119/47 194/118/47 192/120/47 191/121/47
f 197/122/47 198/123/47 204/123/47 206/122/47
f 195/116/48 193/119/48 191/121/48 197/122/48
f 187/112/49 189/115/49 199/115/49 200/112/49
f 194/118/50 196/117/50 198/123/50 192/120/50
f 190/114/49 188/113/49 201/113/49 202/114/49
f 191/121/51 192/120/51 198/123/51 197/122/51
f 195/116/52 197/122/52 206/122/52 203/116/52
f 208/124/50 201/113/50 216/113/50 217/124/50
f 209/125/50 202/114/50 201/113/50 208/124/50
f 207/126/48 203/116/48 206/122/48 210/127/48
f 207/126/46 209/125/46 205/117/46 203/116/46
f 198/123/52 196/117/52 205/117/52 204/123/52
f 189/115/45 190/114/45 202/114/45 199/115/45
f 188/113/45 187/112/45 200/112/45 201/113/45
f 196/117/47 195/116/47 203/116/47 205/117/47
f 199/115/45 202/114/45 211/114/45 212/115/45
f 199/115/48 207/126/48 210/127/48 200/112/48
f 205/117/50 209/125/50 208/124/50 204/123/50
f 206/122/51 204/123/51 208/124/51 210/127/51
f 212/115/46 211/114/46 214/125/46 213/126/46
f 207/126/48 199/115/48 212/115/48 213/126/48
f 209/125/53 207/126/53 213/126/53 214/125/53
f 202/114/50 209/125/50 214/125/50 211/114/50
f 218/127/51 217/124/51 216/113/51 215/112/51
f 201/113/45 200/112/45 215/112/45 216/113/45
f 210/127/54 208/124/54 217/124/54 218/127/54
f 200/112/48 210/127/48 218/127/48 215/112/48
o Cross_Sign
v 1.826698 1.080969 -0.159964
v 1.675288 1.081728 -0.163130
v 1.598862 0.950990 -0.161656
v 1.673845 0.819493 -0.157016
v 1.825255 0.818734 -0.153849
v 1.901681 0.949472 -0.155323
v 1.687844 1.061167 -0.165569
v 1.813856 1.060432 -0.162712
v 1.624259 0.950966 -0.161347
v 1.686687 0.840030 -0.154268
v 1.812699 0.839295 -0.151411
v 1.876284 0.949496 -0.155633
v 1.688053 1.061517 -0.177313
v 1.814065 1.060782 -0.174457
v 1.624468 0.951316 -0.173092
v 1.686895 0.840380 -0.166013
v 1.812908 0.839645 -0.163156
v 1.876493 0.949846 -0.167378
v 1.675497 1.082078 -0.174875
v 1.826907 1.081319 -0.171709
v 1.599071 0.951340 -0.173401
v 1.674054 0.819844 -0.168761
v 1.825464 0.819084 -0.165594
v 1.901890 0.949822 -0.167068
v 1.828440 1.083974 -0.157036
v 1.673474 1.084748 -0.160261
v 1.595212 0.950941 -0.158951
v 1.671964 0.816287 -0.154404
v 1.827010 0.815507 -0.151176
v 1.905237 0.949387 -0.152496
v 1.687855 1.061042 -0.161027
v 1.813667 1.060320 -0.158174
v 1.624182 0.951037 -0.156805
v 1.686497 0.839918 -0.149730
v 1.812709 0.839170 -0.146870
v 1.876207 0.949567 -0.151091
v 1.688043 1.061643 -0.181855
v 1.814255 1.060894 -0.178995
v 1.624545 0.951245 -0.177634
v 1.687085 0.840492 -0.170551
v 1.812897 0.839770 -0.167698
v 1.876570 0.949775 -0.171920
v 1.673742 1.085305 -0.177549
v 1.828788 1.084526 -0.174320
v 1.595515 0.951426 -0.176229
v 1.672312 0.816838 -0.171689
v 1.827278 0.816065 -0.168464
v 1.905540 0.949871 -0.169773
vn 0.0223 -0.0511 -0.9984
vn 0.0222 0.1250 -0.9919
vn -0.0523 0.0068 -0.9986
vn 0.0809 -0.0023 -0.9967
vn -0.0223 0.0511 0.9984
vn -0.0222 -0.1250 0.9919
vn 0.0523 -0.0068 0.9986
vn -0.0809 0.0023 0.9967
vn -0.8633 0.5047 -0.0003
vn 0.8678 0.4959 0.0302
vn -0.0044 -0.9995 -0.0299
vn -0.8678 -0.4959 -0.0302
vn 0.0044 0.9995 0.0299
vn 0.8633 -0.5047 0.0003
vn -0.0218 -0.0400 0.9990
vn -0.0148 0.0313 0.9994
vn -0.1381 -0.0313 0.9899
vn -0.0223 -0.1864 0.9822
vn 0.1086 -0.0405 0.9933
vn -0.0148 0.0389 0.9991
vn 0.0223 0.1864 -0.9822
vn -0.1086 0.0405 -0.9933
vn 0.0148 -0.0389 -0.9991
vn 0.0218 0.0400 -0.9990
vn 0.0148 -0.0313 -0.9994
vn 0.1381 0.0313 -0.9899
vn 0.8633 -0.5047 -0.0009
vn -0.8678 -0.4960 -0.0312
vn 0.0043 0.9995 0.0321
vn 0.8678 0.4960 0.0312
vn -0.0043 -0.9995 -0.0321
vn -0.8633 0.5047 0.0009
vt 0.070867 0.479749
vt 0.084382 0.471946
vt 0.084382 0.456340
vt 0.070867 0.448537
vt 0.057351 0.456340
vt 0.057351 0.471946
vt 0.438044 0.739180
vt 0.436804 0.739896
vt 0.444193 0.744161
vt 0.444193 0.742730
vt 0.438044 0.732080
vt 0.436804 0.731364
vt 0.444193 0.728529
vt 0.444193 0.727098
vt 0.450342 0.732080
vt 0.451582 0.731364
vt 0.450342 0.739180
vt 0.451582 0.739896
s 0
usemtl Gradient_Colour
f 226/128/55 230/129/55 229/130/55 228/131/55 227/132/55 225/133/55
f 225/134/56 220/135/56 219/136/56 226/137/56
f 227/138/57 221/139/57 220/135/57 225/134/57
f 228/140/58 222/141/58 221/139/58 227/138/58
f 229/142/56 223/143/56 222/141/56 228/140/56
f 230/144/57 224/145/57 223/143/57 229/142/57
f 226/137/58 219/136/58 224/145/58 230/144/58
f 232/128/59 231/133/59 233/132/59 234/131/59 235/130/59 236/129/59
f 231/134/60 232/137/60 238/136/60 237/135/60
f 233/138/61 231/134/61 237/135/61 239/139/61
f 234/140/62 233/138/62 239/139/62 240/141/62
f 235/142/60 234/140/60 240/141/60 241/143/60
f 236/144/61 235/142/61 241/143/61 242/145/61
f 232/137/62 236/144/62 242/145/62 238/136/62
f 223/143/63 224/145/63 242/145/63 241/143/63
f 221/139/64 222/141/64 240/141/64 239/139/64
f 219/136/65 220/135/65 237/135/65 238/136/65
f 224/145/66 219/136/66 238/136/66 242/145/66
f 222/141/67 223/143/67 241/143/67 240/141/67
f 220/135/68 221/139/68 239/139/68 237/135/68
f 250/128/59 249/133/59 251/132/59 252/131/59 253/130/59 254/129/59
f 249/134/69 250/137/69 243/136/69 244/135/69
f 251/138/70 249/134/70 244/135/70 245/139/70
f 252/140/71 251/138/71 245/139/71 246/141/71
f 253/142/72 252/140/72 246/141/72 247/143/72
f 254/144/73 253/142/73 247/143/73 248/145/73
f 250/137/74 254/144/74 248/145/74 243/136/74
f 256/128/55 260/129/55 259/130/55 258/131/55 257/132/55 255/133/55
f 255/134/75 261/135/75 262/136/75 256/137/75
f 257/138/76 263/139/76 261/135/76 255/134/76
f 258/140/77 264/141/77 263/139/77 257/138/77
f 259/142/78 265/143/78 264/141/78 258/140/78
f 260/144/79 266/145/79 265/143/79 259/142/79
f 256/137/80 262/136/80 266/145/80 260/144/80
f 247/143/81 265/143/81 266/145/81 248/145/81
f 245/139/82 263/139/82 264/141/82 246/141/82
f 243/136/83 262/136/83 261/135/83 244/135/83
f 248/145/84 266/145/84 262/136/84 243/136/84
f 246/141/85 264/141/85 265/143/85 247/143/85
f 244/135/86 261/135/86 263/139/86 245/139/86
