# Blender 4.0.2
# www.blender.org
mtllib Road_Round.mtl
o Road_Round
v 3.799207 0.101663 1.074727
v 3.375300 0.101663 2.061156
v 4.823426 0.101663 1.491203
v 4.259199 0.101663 2.689999
v 3.397729 0.101663 3.773479
v 3.973020 0.095095 -0.050608
v 3.929562 0.101663 -0.050608
v 5.086805 0.101663 -0.050607
v 3.783623 0.101663 1.067215
v 4.820979 0.101663 1.459496
v 3.386224 0.101663 2.070565
v 2.732715 0.101663 2.910000
v 4.253356 0.101663 2.721259
v 3.411463 0.101663 3.744796
v 2.738771 0.101663 2.918890
v -0.024174 0.095095 5.139176
v 1.099940 0.095095 5.045929
v 1.896166 0.101663 3.547895
v 0.977121 0.095095 3.952786
v -0.024174 0.095095 3.977310
v 2.306686 0.101663 4.574544
v 1.095021 0.095095 5.040074
v 0.967283 0.095095 3.964496
v 0.921683 0.101663 3.952681
v -0.024174 0.095095 5.087496
v 1.905679 0.101663 3.575116
v -0.024174 0.095095 4.029755
v 2.327376 0.101663 4.550394
v 1.118021 0.095095 5.029030
v 2.364567 0.095095 4.529071
v 1.077799 0.101663 5.039042
v -0.024174 0.101663 4.046695
v -0.024174 0.101663 5.104436
v 0.923825 0.101663 3.981437
v 1.051563 0.101663 5.057015
v 1.955608 0.095095 3.544318
v 0.952607 0.095095 3.926975
v 1.121257 0.095095 5.022101
v 2.370833 0.095095 4.533453
v 1.051563 -0.124701 5.057015
v 0.923825 -0.124701 3.981437
v -0.024174 -0.124701 5.104436
v -0.024174 -0.124701 4.046695
v 0.965141 0.095095 3.935741
v 1.949136 0.095095 3.558176
v 2.351475 0.095095 4.550074
v 3.448374 0.095095 3.759149
v 1.077799 -0.124701 5.039042
v 2.327376 -0.124701 4.550394
v 1.905679 -0.124701 3.575116
v 0.921683 -0.124701 3.952681
v 1.925249 0.095095 3.525732
v 2.783222 0.095095 2.896331
v 2.306686 -0.124701 4.574544
v 1.896166 -0.124701 3.547895
v 3.441187 0.095095 3.756538
v 2.738771 -0.124701 2.918890
v 3.411463 -0.124701 3.744796
v 2.350143 0.095095 4.557603
v 4.253356 -0.124701 2.721259
v 1.939624 0.095095 3.530955
v 2.782228 0.095095 2.901949
v 2.732715 -0.124701 2.910000
v 3.386224 -0.124701 2.070565
v 4.820979 -0.124701 1.459496
v 3.783623 -0.124701 1.067215
v 3.455583 0.095095 3.735474
v 4.304431 0.095095 2.704980
v 5.086805 -0.124701 -0.050607
v 3.429019 0.095095 2.046006
v 2.770489 0.095095 2.892566
v 3.929562 -0.124701 -0.050608
v 3.397729 -0.124701 3.773479
v 3.454921 0.095095 3.727856
v 4.296813 0.095095 2.704318
v 2.776173 0.095095 2.893059
v 3.429681 0.095095 2.053624
v 4.259199 -0.124701 2.689999
v 4.823426 -0.124701 1.491203
v 4.874414 0.095095 1.472930
v 4.305268 0.095095 2.680245
v 3.375300 -0.124701 2.061156
v 3.799207 -0.124701 1.074727
v 3.842665 0.122139 1.057787
v 3.839531 0.095095 1.049162
v 3.411227 0.095095 2.045548
v 3.418757 0.122139 2.044216
v 4.866884 0.095095 1.474262
v 4.866884 0.122139 1.474262
v 3.418757 0.095095 2.044216
v 4.302657 0.095095 2.673058
v 4.302657 0.122139 2.673058
v 3.441187 0.122139 3.756538
v 3.842665 0.095095 1.057787
v 5.130262 0.095095 -0.050607
v 4.868819 0.095095 1.448822
v 3.973020 0.122139 -0.050608
v 5.130262 0.122139 -0.050607
v 3.818766 0.095095 1.054157
v 3.827080 0.122139 1.050274
v 4.864437 0.122139 1.442555
v 3.429681 0.122139 2.053624
v 2.776173 0.122139 2.893059
v 4.296813 0.122139 2.704318
v 3.454921 0.122139 3.727856
v 4.864437 0.095095 1.442555
v 2.782228 0.122139 2.901949
v 3.827080 0.095095 1.050274
v 1.939624 0.122139 3.530955
v 2.350143 0.122139 4.557603
v 0.965141 0.122139 3.935741
v -0.024174 0.095095 5.153153
v 1.949136 0.122139 3.558176
v 2.370833 0.122139 4.533453
v 1.121257 0.122139 5.022101
v -0.024174 0.095095 3.980987
v -0.024174 0.122139 4.029755
v -0.024174 0.122139 5.087496
v 0.967283 0.122139 3.964496
v 1.095021 0.122139 5.040074
v -0.024174 -0.034939 4.006088
v -0.024174 -0.034939 1.126088
v -0.024174 -0.034939 5.158088
v -0.024173 -0.034939 -0.050608
v -0.024174 -0.126607 4.006088
v -0.024174 -0.126607 1.126088
v -0.024173 0.119747 -0.050608
v -0.024173 0.119747 -0.050608
v 1.051022 0.119747 -0.050608
v -0.024174 0.119747 1.162538
v -0.024173 -0.119747 -0.050608
v -0.024173 -0.119747 -0.050608
v 1.051022 -0.119747 -0.050608
v -0.024174 -0.119747 1.162538
v -0.024174 -0.034939 5.158088
v -0.024173 -0.034939 -0.050608
v 4.913236 -0.034939 -0.050607
v 2.157716 -0.034939 4.535297
v 1.311800 -0.034939 -0.050608
v 2.597333 -0.034939 -0.050608
v 3.882866 -0.034939 -0.050608
v -0.024174 -0.034939 1.270088
v -0.024174 -0.034939 2.566088
v -0.024174 -0.034939 3.862088
v 4.380752 -0.034939 2.291328
v 4.747099 -0.034939 1.270089
v 1.311800 -0.034939 3.862088
v 1.311800 -0.034939 2.566088
v 1.311800 -0.034939 1.270088
v 2.597333 -0.034939 3.862088
v 2.597333 -0.034939 2.566088
v 2.597333 -0.034939 1.270088
v 3.516519 -0.034939 3.404154
v 3.882866 -0.034939 2.566088
v 3.882866 -0.034939 1.270088
v 1.883834 -0.026404 1.494499
v 1.281663 -0.026404 2.104315
v 1.940759 -0.026404 1.550709
v 1.338588 -0.026404 2.160526
v 1.940759 -0.010750 1.550709
v 1.883834 -0.010750 1.494499
v 1.281663 -0.010750 2.104315
v 1.338588 -0.010750 2.160526
vn -0.9916 -0.0000 -0.1295
vn -0.0687 -0.0000 -0.9976
vn 0.7919 -0.0000 -0.6106
vn -0.7891 -0.0000 -0.6143
vn 0.9849 -0.0000 0.1734
vn -0.9913 -0.0000 -0.1314
vn 0.0440 -0.0000 0.9990
vn -0.5982 -0.0000 -0.8013
vn 0.5918 -0.0000 0.8061
vn 0.6002 -0.0000 -0.7998
vn -0.9188 -0.0000 -0.3948
vn -0.9285 -0.0000 0.3713
vn -0.0000 1.0000 -0.0000
vn -0.0000 -1.0000 -0.0000
vn -0.9898 -0.0000 0.1422
vn 0.9179 -0.0000 -0.3969
vn -0.7759 -0.0000 0.6309
vn -0.3582 -0.0000 -0.9336
vn 0.7723 -0.0000 0.6352
vn -0.3537 -0.0000 0.9354
vn 0.3767 -0.0000 -0.9263
vn 0.9048 -0.0000 0.4259
vn 0.9845 -0.0000 0.1753
vn 0.3642 -0.0000 0.9313
vn -0.0657 -0.0000 -0.9978
vn 0.9930 -0.0000 -0.1179
vn -0.5797 -0.0000 0.8148
vn -1.0000 -0.0000 -0.0000
vn 0.0423 -0.0000 0.9991
vn 1.0000 -0.0000 -0.0000
vn 0.7484 -0.0000 0.6633
vn -0.0000 -0.0000 -1.0000
vn 0.7026 -0.0000 -0.7116
vn 0.7116 -0.0000 0.7026
vn -0.7116 -0.0000 -0.7026
vn -0.7026 -0.0000 0.7116
vt 0.423289 0.443611
vt 0.423747 0.443542
vt 0.423688 0.443551
vt 0.423688 0.443551
vt 0.423398 0.444069
vt 0.423809 0.443960
vt 0.423260 0.443593
vt 0.423745 0.443540
vt 0.423755 0.443974
vt 0.423768 0.443981
vt 0.423379 0.444085
vt 0.423396 0.444064
vt 0.423753 0.443970
vt 0.423289 0.443608
vt 0.423696 0.443530
vt 0.423686 0.443548
vt 0.423807 0.443956
vt 0.423826 0.443965
vt 0.423762 0.443520
vt 0.423687 0.443550
vt 0.423754 0.443972
vt 0.423580 0.442343
vt 0.422935 0.442240
vt 0.424883 0.442551
vt 0.424607 0.442507
vt 0.423574 0.442349
vt 0.424592 0.442510
vt 0.815149 0.904312
vt 0.815149 0.904312
vt 0.102706 0.972454
vt 0.102706 0.969410
vt 0.075311 0.969410
vt 0.075311 0.972454
s 0
usemtl Diffius.001
f 72/1/1 66/2/1 9/2/1 7/1/1
f 41/1/2 43/3/2 32/4/2 34/1/2
f 73/5/3 57/1/3 15/1/3 5/5/3
f 64/1/4 63/2/4 12/2/4 11/1/4
f 65/6/5 69/5/5 8/5/5 10/6/5
f 6/7/6 108/8/6 100/8/6 97/7/6
f 42/9/7 40/5/7 35/5/7 33/9/7
f 57/1/8 55/2/8 18/2/8 15/1/8
f 54/6/9 73/5/9 5/5/9 21/6/9
f 60/5/10 64/1/10 11/1/10 13/5/10
f 83/1/11 82/2/11 2/2/11 1/1/11
f 55/2/12 54/6/12 21/6/12 18/2/12
f 16/10/13 17/11/13 22/12/13 25/13/13
f 17/11/13 19/7/13 23/14/13 22/12/13
f 19/7/13 20/15/13 27/16/13 23/14/13
f 20/15/14 16/10/14 25/13/14 27/16/14
f 44/8/15 38/17/15 115/17/15 111/8/15
f 49/5/16 50/1/16 26/1/16 28/5/16
f 63/2/17 58/6/17 14/6/17 12/2/17
f 50/1/18 51/2/18 24/2/18 26/1/18
f 51/2/15 48/6/15 31/6/15 24/2/15
f 58/6/19 60/5/19 13/5/19 14/6/19
f 10/6/13 8/5/13 7/1/13 9/2/13
f 29/18/14 30/11/14 39/12/14 38/17/14
f 30/11/13 36/7/13 45/14/13 39/12/13
f 36/7/13 37/19/13 44/8/13 45/14/13
f 37/19/13 29/18/13 38/17/13 44/8/13
f 108/8/20 106/17/20 101/17/20 100/8/20
f 4/6/13 3/5/13 1/1/13 2/2/13
f 14/6/13 13/5/13 11/1/13 12/2/13
f 21/6/13 5/5/13 15/1/13 18/2/13
f 31/6/13 28/5/13 26/1/13 24/2/13
f 33/9/13 35/5/13 34/1/13 32/4/13
f 46/18/13 47/11/13 56/12/13 59/17/13
f 47/11/13 53/7/13 62/14/13 56/12/13
f 53/7/13 52/19/13 61/8/13 62/14/13
f 52/19/13 46/18/13 59/17/13 61/8/13
f 88/12/21 94/14/21 84/14/21 89/12/21
f 42/9/14 43/3/14 41/1/14 40/5/14
f 48/6/14 51/2/14 50/1/14 49/5/14
f 54/6/14 55/2/14 57/1/14 73/5/14
f 58/6/14 63/2/14 64/1/14 60/5/14
f 78/6/14 82/2/14 83/1/14 79/5/14
f 65/6/14 66/2/14 72/1/14 69/5/14
f 91/17/22 88/12/22 89/12/22 92/17/22
f 67/18/13 68/11/13 75/12/13 74/17/13
f 68/11/13 70/7/13 77/14/13 75/12/13
f 70/7/13 71/19/13 76/8/13 77/14/13
f 71/19/13 67/18/13 74/17/13 76/8/13
f 106/17/23 95/12/23 98/12/23 101/17/23
f 77/14/4 76/8/4 103/8/4 102/14/4
f 61/8/12 59/17/12 110/17/12 109/8/12
f 38/17/24 39/12/24 114/12/24 115/17/24
f 75/12/10 77/14/10 102/14/10 104/12/10
f 76/8/17 74/17/17 105/17/17 103/8/17
f 81/18/13 80/11/13 88/12/13 91/17/13
f 80/11/13 85/7/13 94/14/13 88/12/13
f 85/7/13 86/19/13 90/8/13 94/14/13
f 86/19/13 81/18/13 91/17/13 90/8/13
f 62/14/8 61/8/8 109/8/8 107/14/8
f 74/17/19 75/12/19 104/12/19 105/17/19
f 56/12/3 62/14/3 107/14/3 93/12/3
f 23/14/25 27/16/25 117/20/25 119/14/25
f 39/12/16 45/14/16 113/14/16 114/12/16
f 45/14/18 44/8/18 111/8/18 113/14/18
f 22/12/26 23/14/26 119/14/26 120/12/26
f 96/18/13 95/12/13 106/17/13
f 94/14/11 90/8/11 87/8/11 84/14/11
f 6/7/13 99/19/13 108/8/13
f 99/19/13 96/18/13 106/17/13 108/8/13
f 90/8/27 91/17/27 92/17/27 87/8/27
f 59/17/9 56/12/9 93/12/9 110/17/9
f 27/16/28 25/13/28 118/21/28 117/20/28
f 25/13/29 22/12/29 120/12/29 118/21/29
f 101/6/13 98/5/13 97/1/13 100/2/13
f 92/6/13 89/5/13 84/1/13 87/2/13
f 105/6/13 104/5/13 102/1/13 103/2/13
f 110/6/13 93/5/13 107/1/13 109/2/13
f 115/6/13 114/5/13 113/1/13 111/2/13
f 118/21/13 120/5/13 119/1/13 117/20/13
f 66/2/20 65/6/20 10/6/20 9/2/20
f 78/6/22 79/5/22 3/5/22 4/6/22
f 40/5/26 41/1/26 34/1/26 35/5/26
f 82/2/27 78/6/27 4/6/27 2/2/27
f 43/3/28 42/9/28 33/9/28 32/4/28
f 48/6/24 49/5/24 28/5/24 31/6/24
f 79/5/21 83/1/21 1/1/21 3/5/21
f 121/22/14 123/23/14 124/24/14 122/25/14
f 121/22/30 125/26/30 126/27/30 122/25/30
f 130/6/13 129/5/13 127/1/13 128/2/13
f 134/6/14 132/2/14 131/1/14 133/5/14
f 127/1/13 131/1/13 132/2/13 128/2/13
f 130/6/31 134/6/31 133/5/31 129/5/31
f 129/5/32 133/5/32 131/1/32 127/1/32
f 128/2/28 132/2/28 134/6/28 130/6/28
f 140/28/13 152/28/13 155/29/13 141/29/13
f 152/28/13 151/28/13 154/28/13 155/29/13
f 151/28/13 150/28/13 153/29/13 154/28/13
f 139/29/13 149/29/13 152/28/13 140/28/13
f 149/29/13 148/28/13 151/28/13 152/28/13
f 148/28/13 147/29/13 150/28/13 151/28/13
f 136/29/13 142/29/13 149/29/13 139/29/13
f 142/29/13 143/28/13 148/28/13 149/29/13
f 143/28/13 144/29/13 147/29/13 148/28/13
f 141/29/13 155/29/13 146/29/13 137/29/13
f 155/29/13 154/28/13 145/28/13 146/29/13
f 156/30/14 158/31/14 159/32/14 157/33/14
f 161/30/13 162/33/13 163/32/13 160/31/13
f 158/31/33 156/30/33 161/30/33 160/31/33
f 159/32/34 158/31/34 160/31/34 163/32/34
f 156/30/35 157/33/35 162/33/35 161/30/35
f 157/33/36 159/32/36 163/32/36 162/33/36
l 116 112
l 144 135
l 138 150
