# Blender 4.0.2
# www.blender.org
mtllib Road_Courner.mtl
o Road_Courner
v 1.165244 -0.010565 0.005685
v 1.165244 -0.010565 1.157685
v 1.165244 -0.102233 0.005685
v 0.018178 -0.010565 1.152751
v 1.170177 -0.010565 1.152751
v 1.170177 0.122125 1.152751
v 0.018178 0.122125 1.152751
v 0.018178 -0.102233 1.152751
v 1.170178 -0.102233 1.152751
v 0.018178 -0.010565 -0.019417
v 1.170177 0.122125 -0.019416
v 0.018178 0.122125 -0.019417
v 0.067366 0.122125 1.094201
v 1.120989 0.122125 1.094201
v 1.120989 0.122125 0.039134
v 0.067366 0.122125 0.039134
v 0.067366 0.150257 1.094201
v 1.120989 0.150257 1.094201
v 0.067366 0.150257 0.039134
v 1.120989 0.150257 0.039134
v 0.023113 -0.010565 4.005685
v 5.165244 -0.010565 4.005685
v 0.023113 -0.010565 1.125685
v 5.165244 -0.010565 1.125685
v 0.023113 -0.010565 5.157685
v 5.165244 -0.010565 5.157685
v 0.023113 -0.010565 -0.026315
v 5.165244 -0.010565 -0.026315
v 3.022689 -0.002030 2.525684
v 2.165667 -0.002030 2.525684
v 3.022689 -0.002030 2.605685
v 2.165667 -0.002030 2.605685
v 3.022689 0.013623 2.605685
v 3.022689 0.013623 2.525684
v 2.165667 0.013623 2.525684
v 2.165667 0.013623 2.605685
v 0.023113 -0.102233 1.125685
v 0.023113 -0.102233 4.005685
v 5.165244 -0.102233 4.005685
v 5.165244 -0.102233 1.125685
v 4.018178 -0.010565 5.152751
v 4.018178 -0.010565 0.010620
v 5.170177 -0.010565 5.152751
v 5.170178 -0.010565 0.010620
v 5.170178 0.122125 0.010620
v 5.170177 0.122125 5.152751
v 4.018178 0.122125 0.010620
v 4.018178 0.122125 5.152751
v 4.018178 -0.102233 5.152751
v 4.018178 -0.102233 0.010620
v 5.170178 -0.102233 5.152751
v 5.170178 -0.102233 0.010620
v 4.018178 -0.010565 3.438707
v 4.018178 -0.010565 1.724663
v 5.170177 0.122125 3.438707
v 5.170178 0.122125 1.724663
v 4.018178 0.122125 3.438707
v 4.018178 0.122125 1.724663
v 4.067367 0.122125 1.666113
v 5.120990 0.122125 1.666113
v 5.120990 0.122125 0.069170
v 4.067367 0.122125 0.069170
v 4.067367 0.122125 5.094201
v 5.120990 0.122125 5.094201
v 5.120990 0.122125 3.497258
v 4.067367 0.122125 3.497257
v 4.067367 0.122125 3.380157
v 5.120990 0.122125 3.380157
v 5.120990 0.122125 1.783213
v 4.067367 0.122125 1.783213
v 5.120990 0.150257 1.666113
v 4.067367 0.150257 1.666113
v 4.067367 0.150257 0.069170
v 5.120990 0.150257 0.069170
v 4.067367 0.150257 5.094201
v 5.120990 0.150257 5.094201
v 4.067367 0.150257 3.497257
v 5.120990 0.150257 3.497258
v 5.120990 0.150257 3.380157
v 4.067367 0.150257 3.380157
v 4.067367 0.150257 1.783213
v 5.120990 0.150257 1.783213
v 0.015074 -0.010565 4.005685
v 4.165243 -0.010565 4.005685
v 0.015074 -0.010565 5.157685
v 4.165243 -0.010565 5.157685
v 4.165243 0.122125 5.157685
v 0.015074 0.122125 5.157685
v 4.165243 0.122125 4.005685
v 0.015074 0.122125 4.005685
v 0.015074 -0.102233 4.005685
v 4.165243 -0.102233 4.005685
v 0.015074 -0.102233 5.157686
v 4.165243 -0.102233 5.157686
v 1.837156 -0.010565 4.005685
v 3.551200 -0.010565 4.005685
v 1.837156 0.122125 5.157685
v 3.551200 0.122125 5.157685
v 1.837156 0.122125 4.005685
v 3.551200 0.122125 4.005685
v 3.609749 0.122125 4.054874
v 3.609749 0.122125 5.108496
v 4.106693 0.122125 5.108496
v 4.106693 0.122125 4.054874
v 0.073624 0.122125 4.054874
v 0.073624 0.122125 5.108496
v 1.778606 0.122125 5.108496
v 1.778606 0.122125 4.054874
v 1.895706 0.122125 4.054874
v 1.895706 0.122125 5.108496
v 3.492650 0.122125 5.108496
v 3.492650 0.122125 4.054874
v 3.609749 0.150257 5.108496
v 3.609749 0.150257 4.054874
v 4.106693 0.148055 4.054874
v 4.106693 0.148055 5.108496
v 0.073624 0.150257 4.054874
v 0.073624 0.150257 5.108496
v 1.778606 0.150257 4.054874
v 1.778606 0.150257 5.108496
v 1.895706 0.150257 5.108496
v 1.895706 0.150257 4.054874
v 3.492650 0.150257 4.054874
v 3.492650 0.150257 5.108496
vn -1.0000 -0.0000 -0.0000
vn -0.0000 -0.0000 1.0000
vn -0.0000 1.0000 -0.0000
vn 1.0000 -0.0000 -0.0000
vn -0.0000 -0.0000 -1.0000
vn -0.0000 -1.0000 -0.0000
vn 0.0044 1.0000 -0.0000
vt 0.423750 0.443508
vt 0.423815 0.443947
vt 0.423826 0.443965
vt 0.423762 0.443520
vt 0.423374 0.444062
vt 0.423379 0.444085
vt 0.423807 0.443935
vt 0.423371 0.444047
vt 0.423807 0.443956
vt 0.423396 0.444064
vt 0.423398 0.444069
vt 0.423809 0.443960
vt 0.423260 0.443593
vt 0.423289 0.443608
vt 0.423745 0.443540
vt 0.423289 0.443611
vt 0.423747 0.443542
vt 0.423580 0.442343
vt 0.422935 0.442240
vt 0.424883 0.442551
vt 0.424607 0.442507
vt 0.424593 0.443743
vt 0.424820 0.443684
vt 0.102706 0.972454
vt 0.102706 0.969410
vt 0.075311 0.969410
vt 0.075311 0.972454
vt 0.424581 0.443735
vt 0.424592 0.442510
vt 0.423574 0.442349
vt 0.815149 0.904312
vt 0.423740 0.443506
vt 0.423280 0.443571
vt 0.423281 0.443574
vt 0.423742 0.443509
vt 0.423591 0.442334
vt 0.422931 0.442227
vt 0.423570 0.442355
vt 0.423660 0.442966
vt 0.423663 0.442967
vt 0.423572 0.442353
vt 0.423114 0.442988
vt 0.422938 0.442249
vt 0.423674 0.442982
vt 0.423685 0.442986
vt 0.423137 0.442965
vt 0.423137 0.442966
vt 0.422971 0.442262
vt 0.423148 0.443011
vt 0.423666 0.443006
vt 0.422970 0.442259
vt 0.423148 0.443012
vt 0.423669 0.443007
s 0
usemtl Diffius.001
f 10/1/1 4/2/1 7/3/1 12/4/1
f 4/2/2 5/5/2 6/6/2 7/3/2
f 8/7/2 9/8/2 5/5/2 4/2/2
f 13/9/2 14/10/2 18/11/2 17/12/2
f 7/3/3 6/6/3 14/10/3 13/9/3
f 6/6/3 11/13/3 15/14/3 14/10/3
f 11/13/3 12/4/3 16/15/3 15/14/3
f 12/4/3 7/3/3 13/9/3 16/15/3
f 17/12/3 18/11/3 20/16/3 19/17/3
f 16/15/1 13/9/1 17/12/1 19/17/1
f 14/10/4 15/14/4 20/16/4 18/11/4
f 15/14/5 16/15/5 19/17/5 20/16/5
f 22/18/3 26/19/3 28/20/3 24/21/3
f 23/22/4 27/23/4 25/5/4 21/2/4
f 29/24/6 31/25/6 32/26/6 30/27/6
f 34/24/3 35/27/3 36/26/3 33/25/3
f 31/25/4 29/24/4 34/24/4 33/25/4
f 32/26/2 31/25/2 33/25/2 36/26/2
f 29/24/5 30/27/5 35/27/5 34/24/5
f 30/27/1 32/26/1 36/26/1 35/27/1
f 38/7/6 37/28/6 40/29/6 39/30/6
f 22/18/4 39/30/4 40/29/4 24/21/4
f 23/22/1 37/28/1 38/7/1 21/2/1
f 27/31/3 25/31/3 26/31/3 28/31/3
f 67/32/2 68/33/2 79/34/2 80/35/2
f 44/19/5 42/18/5 47/36/5 45/37/5
f 53/1/1 41/2/1 48/3/1 57/4/1
f 62/38/1 59/39/1 72/40/1 73/41/1
f 43/5/4 44/19/4 45/37/4 56/42/4 55/13/4 46/6/4
f 41/2/2 43/5/2 46/6/2 48/3/2
f 49/7/2 51/8/2 43/5/2 41/2/2
f 43/5/4 51/8/4 52/43/4 44/19/4
f 41/2/6 53/1/6 54/44/6 42/18/6 44/19/6 43/5/6
f 50/30/6 52/43/6 51/8/6 49/7/6
f 42/18/5 44/19/5 52/43/5 50/30/5
f 63/9/2 64/10/2 76/11/2 75/12/2
f 42/18/1 54/44/1 58/45/1 47/36/1
f 54/44/1 53/1/1 57/4/1 58/45/1
f 59/39/2 60/46/2 71/47/2 72/40/2
f 58/45/3 56/42/3 60/46/3 59/39/3
f 56/42/3 45/37/3 61/48/3 60/46/3
f 45/37/3 47/36/3 62/38/3 61/48/3
f 47/36/3 58/45/3 59/39/3 62/38/3
f 48/3/3 46/6/3 64/10/3 63/9/3
f 46/6/3 55/13/3 65/14/3 64/10/3
f 55/13/3 57/4/3 66/15/3 65/14/3
f 57/4/3 48/3/3 63/9/3 66/15/3
f 57/4/3 55/13/3 68/33/3 67/32/3
f 55/13/3 56/42/3 69/49/3 68/33/3
f 56/42/3 58/45/3 70/50/3 69/49/3
f 58/45/3 57/4/3 67/32/3 70/50/3
f 72/40/3 71/47/3 74/51/3 73/41/3
f 75/12/3 76/11/3 78/16/3 77/17/3
f 80/35/3 79/34/3 82/52/3 81/53/3
f 66/15/1 63/9/1 75/12/1 77/17/1
f 60/46/4 61/48/4 74/51/4 71/47/4
f 70/50/1 67/32/1 80/35/1 81/53/1
f 64/10/4 65/14/4 78/16/4 76/11/4
f 61/48/5 62/38/5 73/41/5 74/51/5
f 68/33/4 69/49/4 82/52/4 79/34/4
f 65/14/5 66/15/5 77/17/5 78/16/5
f 69/49/5 70/50/5 81/53/5 82/52/5
f 109/32/1 110/33/1 121/34/1 122/35/1
f 86/19/4 84/18/4 89/36/4 87/37/4
f 95/1/5 83/2/5 90/3/5 99/4/5
f 104/38/5 101/39/5 114/40/5 115/41/5
f 85/5/2 86/19/2 87/37/2 98/42/2 97/13/2 88/6/2
f 83/2/1 85/5/1 88/6/1 90/3/1
f 91/7/1 93/8/1 85/5/1 83/2/1
f 85/5/2 93/8/2 94/43/2 86/19/2
f 83/2/6 95/1/6 96/44/6 84/18/6 86/19/6 85/5/6
f 92/30/6 94/43/6 93/8/6 91/7/6
f 84/18/4 86/19/4 94/43/4 92/30/4
f 105/9/1 106/10/1 118/11/1 117/12/1
f 84/18/5 96/44/5 100/45/5 89/36/5
f 96/44/5 95/1/5 99/4/5 100/45/5
f 101/39/1 102/46/1 113/47/1 114/40/1
f 100/45/3 98/42/3 102/46/3 101/39/3
f 98/42/3 87/37/3 103/48/3 102/46/3
f 87/37/3 89/36/3 104/38/3 103/48/3
f 89/36/3 100/45/3 101/39/3 104/38/3
f 90/3/3 88/6/3 106/10/3 105/9/3
f 88/6/3 97/13/3 107/14/3 106/10/3
f 97/13/3 99/4/3 108/15/3 107/14/3
f 99/4/3 90/3/3 105/9/3 108/15/3
f 99/4/3 97/13/3 110/33/3 109/32/3
f 97/13/3 98/42/3 111/49/3 110/33/3
f 98/42/3 100/45/3 112/50/3 111/49/3
f 100/45/3 99/4/3 109/32/3 112/50/3
f 114/40/7 113/47/7 116/51/7 115/41/7
f 117/12/3 118/11/3 120/16/3 119/17/3
f 122/35/3 121/34/3 124/52/3 123/53/3
f 108/15/5 105/9/5 117/12/5 119/17/5
f 102/46/2 103/48/2 116/51/2 113/47/2
f 112/50/5 109/32/5 122/35/5 123/53/5
f 106/10/2 107/14/2 120/16/2 118/11/2
f 103/48/4 104/38/4 115/41/4 116/51/4
f 110/33/2 111/49/2 124/52/2 121/34/2
f 107/14/4 108/15/4 119/17/4 120/16/4
f 111/49/4 112/50/4 123/53/4 124/52/4
l 2 1
l 3 1
