# Blender 4.0.2
# www.blender.org
mtllib Shovel.mtl
o Cylinder.016
v 0.000046 0.333226 0.010589
v 0.000046 0.000701 0.004461
v 0.005127 0.329546 0.009626
v 0.002666 0.000701 0.003964
v 0.009435 0.329546 0.006884
v 0.004887 0.000701 0.002550
v 0.012313 0.329546 0.002779
v 0.006371 0.000701 0.000434
v 0.013324 0.329546 -0.002062
v 0.006892 0.000701 -0.002062
v 0.012313 0.329546 -0.006904
v 0.006371 0.000701 -0.004558
v 0.009435 0.329546 -0.011008
v 0.004887 0.000701 -0.006675
v 0.005127 0.329546 -0.013751
v 0.002666 0.000701 -0.008089
v 0.000046 0.333226 -0.014714
v 0.000046 0.000701 -0.008585
v -0.005035 0.333226 -0.013751
v -0.002574 0.000701 -0.008089
v -0.009343 0.333226 -0.011008
v -0.004795 0.000701 -0.006675
v -0.012221 0.333226 -0.006904
v -0.006279 0.000701 -0.004558
v -0.013232 0.333226 -0.002062
v -0.006800 0.000701 -0.002062
v -0.012221 0.333226 0.002779
v -0.006279 0.000701 0.000434
v -0.009343 0.333226 0.006884
v -0.004795 0.000701 0.002550
v -0.005035 0.333226 0.009626
v -0.002574 0.000701 0.003964
v 0.000046 0.018925 0.011047
v 0.005311 0.018925 0.010049
v 0.009775 0.018925 0.007207
v 0.012757 0.018925 0.002954
v 0.013804 0.018925 -0.002062
v 0.012757 0.018925 -0.007079
v 0.009775 0.018925 -0.011332
v 0.005311 0.018925 -0.014173
v 0.000046 0.018925 -0.015171
v -0.005219 0.018925 -0.014173
v -0.009683 0.018925 -0.011332
v -0.012665 0.018925 -0.007079
v -0.013712 0.018925 -0.002062
v -0.012665 0.018925 0.002954
v -0.009683 0.018925 0.007207
v -0.005219 0.018925 0.010049
v 0.004270 0.140376 0.007653
v 0.004270 0.232964 0.007653
v 0.007850 0.140376 0.005374
v 0.007850 0.232964 0.005374
v 0.010243 0.140376 0.001962
v 0.010243 0.232964 0.001962
v 0.011083 0.140376 -0.002062
v 0.011083 0.232964 -0.002062
v 0.010243 0.140376 -0.006086
v 0.010243 0.232964 -0.006086
v 0.007850 0.140376 -0.009498
v 0.007850 0.232964 -0.009498
v 0.004270 0.140376 -0.011778
v 0.004270 0.232964 -0.011778
v 0.000046 0.140376 -0.012578
v 0.000046 0.232964 -0.012578
v -0.004178 0.140376 -0.011778
v -0.004178 0.232964 -0.011778
v -0.007758 0.140376 -0.009498
v -0.007758 0.232964 -0.009498
v -0.010151 0.140376 -0.006086
v -0.010151 0.232964 -0.006086
v -0.010991 0.140376 -0.002062
v -0.010991 0.232964 -0.002062
v -0.010151 0.140376 0.001962
v -0.010151 0.232964 0.001962
v -0.007758 0.140376 0.005374
v -0.007758 0.232964 0.005374
v -0.004178 0.140376 0.007653
v -0.004178 0.232964 0.007653
v 0.000046 0.232964 0.008454
v 0.000046 0.140376 0.008454
v 0.000046 0.094020 0.009719
v 0.004778 0.094020 0.008822
v 0.008789 0.094020 0.006268
v 0.011470 0.094020 0.002446
v 0.012411 0.094020 -0.002062
v 0.011470 0.094020 -0.006571
v 0.008789 0.094020 -0.010393
v 0.004778 0.094020 -0.012947
v 0.000046 0.094020 -0.013844
v -0.004686 0.094020 -0.012947
v -0.008697 0.094020 -0.010393
v -0.011378 0.094020 -0.006571
v -0.012319 0.094020 -0.002062
v -0.011378 0.094020 0.002446
v -0.008697 0.094020 0.006268
v -0.004686 0.094020 0.008822
vn 0.1755 -0.3346 0.9259
vn 0.5054 -0.3384 0.7938
vn 0.7688 -0.3440 0.5391
vn 0.9177 -0.3481 0.1916
vn 0.9177 -0.3481 -0.1916
vn 0.7688 -0.3440 -0.5391
vn 0.5054 -0.3384 -0.7938
vn 0.1755 -0.3346 -0.9259
vn -0.1755 -0.3346 -0.9259
vn -0.5054 -0.3384 -0.7938
vn -0.7688 -0.3440 -0.5391
vn -0.9177 -0.3481 -0.1916
vn -0.9177 -0.3481 0.1916
vn -0.7688 -0.3440 0.5391
vn -0.0000 -1.0000 -0.0000
vn -0.5054 -0.3384 0.7938
vn -0.1755 -0.3346 0.9259
vn 0.1716 0.9852 -0.0000
vn -0.1862 0.0174 0.9824
vn -0.5370 0.0176 0.8434
vn -0.8186 0.0179 0.5741
vn -0.9787 0.0182 0.2043
vn -0.9787 0.0182 -0.2043
vn -0.8186 0.0179 -0.5741
vn -0.5370 0.0176 -0.8434
vn -0.1862 0.0174 -0.9824
vn 0.1862 0.0174 -0.9824
vn 0.5370 0.0176 -0.8434
vn 0.8186 0.0179 -0.5741
vn 0.9787 0.0182 -0.2043
vn 0.9787 0.0182 0.2043
vn 0.8186 0.0179 0.5741
vn 0.5370 0.0176 0.8434
vn 0.1862 0.0174 0.9824
vn 0.1780 -0.0213 0.9838
vn 0.1862 -0.0000 0.9825
vn 0.5369 -0.0220 0.8434
vn 0.5370 -0.0000 0.8436
vn 0.8185 -0.0224 0.5740
vn 0.8187 -0.0000 0.5742
vn 0.9786 -0.0227 0.2043
vn 0.9789 -0.0000 0.2044
vn 0.9786 -0.0227 -0.2043
vn 0.9789 -0.0000 -0.2044
vn 0.8185 -0.0224 -0.5740
vn 0.8187 -0.0000 -0.5742
vn 0.5369 -0.0220 -0.8434
vn 0.5370 -0.0000 -0.8436
vn 0.1780 -0.0213 -0.9838
vn 0.1862 -0.0000 -0.9825
vn -0.1862 -0.0209 -0.9823
vn -0.1862 -0.0000 -0.9825
vn -0.5369 -0.0212 -0.8434
vn -0.5370 -0.0000 -0.8436
vn -0.8185 -0.0216 -0.5740
vn -0.8187 -0.0000 -0.5742
vn -0.9787 -0.0219 -0.2043
vn -0.9789 -0.0000 -0.2044
vn -0.9787 -0.0219 0.2043
vn -0.9789 -0.0000 0.2044
vn -0.8185 -0.0216 0.5740
vn -0.8187 -0.0000 0.5742
vn -0.5369 -0.0212 0.8434
vn -0.5370 -0.0000 0.8436
vn -0.1862 -0.0209 0.9823
vn -0.1862 -0.0000 0.9825
vn 0.1861 0.0268 0.9822
vn 0.5368 0.0272 0.8432
vn 0.8184 0.0277 0.5739
vn 0.9785 0.0280 0.2043
vn 0.9785 0.0280 -0.2043
vn 0.8184 0.0277 -0.5739
vn 0.5368 0.0272 -0.8432
vn 0.1861 0.0268 -0.9822
vn -0.1861 0.0268 -0.9822
vn -0.5368 0.0272 -0.8432
vn -0.8184 0.0277 -0.5739
vn -0.9785 0.0280 -0.2043
vn -0.9785 0.0280 0.2043
vn -0.8184 0.0277 0.5739
vn -0.5368 0.0272 0.8432
vn -0.1861 0.0268 0.9822
vt 0.928042 0.903057
vt 0.926025 0.898950
vt 0.925731 0.898618
vt 0.927462 0.902413
vt 0.925649 0.898133
vt 0.927305 0.901450
vt 0.925792 0.897569
vt 0.927604 0.900313
vt 0.926139 0.897014
vt 0.928317 0.899184
vt 0.926636 0.896555
vt 0.929330 0.898243
vt 0.927207 0.896264
vt 0.930481 0.897641
vt 0.927760 0.896184
vt 0.931584 0.897469
vt 0.928213 0.896326
vt 0.932470 0.897747
vt 0.928496 0.896666
vt 0.933008 0.898421
vt 0.928568 0.897150
vt 0.933125 0.899383
vt 0.928422 0.897706
vt 0.932811 0.900488
vt 0.928079 0.898250
vt 0.932119 0.901573
vt 0.927592 0.898701
vt 0.931148 0.902483
vt 0.927032 0.898993
vt 0.930037 0.903086
vt 0.926482 0.899081
vt 0.928948 0.903289
vt 0.714520 0.483635
vt 0.714465 0.483440
vt 0.714812 0.482801
vt 0.715515 0.481810
vt 0.716467 0.480624
vt 0.717513 0.479432
vt 0.718484 0.478428
vt 0.719226 0.477770
vt 0.719629 0.477552
vt 0.719639 0.477798
vt 0.719265 0.478458
vt 0.718568 0.479429
vt 0.717654 0.480566
vt 0.716654 0.481708
vt 0.715710 0.482690
vt 0.714960 0.483368
vt 0.942611 0.915020
vt 0.941866 0.914883
vt 0.943541 0.914766
vt 0.944518 0.914165
vt 0.945399 0.913309
vt 0.946057 0.912322
vt 0.946397 0.911346
vt 0.946364 0.910525
vt 0.945957 0.909983
vt 0.945231 0.909810
vt 0.944291 0.910039
vt 0.943283 0.910641
vt 0.942367 0.911524
vt 0.941690 0.912549
vt 0.941360 0.913550
vt 0.941424 0.914369
vt 0.687889 0.459053
vt 0.687658 0.458727
vt 0.668946 0.442207
vt 0.668596 0.441779
vt 0.687770 0.458076
vt 0.668594 0.441055
vt 0.688213 0.457199
vt 0.668945 0.440145
vt 0.688920 0.456231
vt 0.669598 0.439191
vt 0.689778 0.455329
vt 0.670449 0.438345
vt 0.690651 0.454636
vt 0.671362 0.437743
vt 0.691400 0.454258
vt 0.672193 0.437476
vt 0.691911 0.454250
vt 0.672813 0.437580
vt 0.692111 0.454605
vt 0.673132 0.438033
vt 0.691976 0.455263
vt 0.673109 0.438760
vt 0.691531 0.456123
vt 0.672752 0.439650
vt 0.690845 0.457057
vt 0.672117 0.440572
vt 0.690017 0.457931
vt 0.671296 0.441392
vt 0.689167 0.458616
vt 0.670408 0.441991
vt 0.688420 0.459012
vt 0.669584 0.442279
vt 0.659730 0.434322
vt 0.659288 0.433808
vt 0.659224 0.432989
vt 0.659554 0.431988
vt 0.660231 0.430964
vt 0.661147 0.430080
vt 0.662155 0.429478
vt 0.663095 0.429249
vt 0.663821 0.429422
vt 0.664228 0.429964
vt 0.664261 0.430785
vt 0.663921 0.431761
vt 0.663263 0.432748
vt 0.662382 0.433604
vt 0.661406 0.434205
vt 0.660475 0.434459
s 0
usemtl Gradient_Colour
f 33/1/1 2/2/1 4/3/1 34/4/1
f 34/4/2 4/3/2 6/5/2 35/6/2
f 35/6/3 6/5/3 8/7/3 36/8/3
f 36/8/4 8/7/4 10/9/4 37/10/4
f 37/10/5 10/9/5 12/11/5 38/12/5
f 38/12/6 12/11/6 14/13/6 39/14/6
f 39/14/7 14/13/7 16/15/7 40/16/7
f 40/16/8 16/15/8 18/17/8 41/18/8
f 41/18/9 18/17/9 20/19/9 42/20/9
f 42/20/10 20/19/10 22/21/10 43/22/10
f 43/22/11 22/21/11 24/23/11 44/24/11
f 44/24/12 24/23/12 26/25/12 45/26/12
f 45/26/13 26/25/13 28/27/13 46/28/13
f 46/28/14 28/27/14 30/29/14 47/30/14
f 4/3/15 2/2/15 32/31/15 30/29/15 28/27/15 26/25/15 24/23/15 22/21/15 20/19/15 18/17/15 16/15/15 14/13/15 12/11/15 10/9/15 8/7/15 6/5/15
f 47/30/16 30/29/16 32/31/16 48/32/16
f 48/32/17 32/31/17 2/2/17 33/1/17
f 1/33/18 3/34/18 5/35/18 7/36/18 9/37/18 11/38/18 13/39/18 15/40/18 17/41/18 19/42/18 21/43/18 23/44/18 25/45/18 27/46/18 29/47/18 31/48/18
f 96/49/19 48/32/19 33/1/19 81/50/19
f 95/51/20 47/30/20 48/32/20 96/49/20
f 94/52/21 46/28/21 47/30/21 95/51/21
f 93/53/22 45/26/22 46/28/22 94/52/22
f 92/54/23 44/24/23 45/26/23 93/53/23
f 91/55/24 43/22/24 44/24/24 92/54/24
f 90/56/25 42/20/25 43/22/25 91/55/25
f 89/57/26 41/18/26 42/20/26 90/56/26
f 88/58/27 40/16/27 41/18/27 89/57/27
f 87/59/28 39/14/28 40/16/28 88/58/28
f 86/60/29 38/12/29 39/14/29 87/59/29
f 85/61/30 37/10/30 38/12/30 86/60/30
f 84/62/31 36/8/31 37/10/31 85/61/31
f 83/63/32 35/6/32 36/8/32 84/62/32
f 82/64/33 34/4/33 35/6/33 83/63/33
f 81/50/34 33/1/34 34/4/34 82/64/34
f 1/33/35 79/65/35 50/66/35 3/34/35
f 79/65/36 80/67/36 49/68/36 50/66/36
f 3/34/37 50/66/37 52/69/37 5/35/37
f 50/66/38 49/68/38 51/70/38 52/69/38
f 5/35/39 52/69/39 54/71/39 7/36/39
f 52/69/40 51/70/40 53/72/40 54/71/40
f 7/36/41 54/71/41 56/73/41 9/37/41
f 54/71/42 53/72/42 55/74/42 56/73/42
f 9/37/43 56/73/43 58/75/43 11/38/43
f 56/73/44 55/74/44 57/76/44 58/75/44
f 11/38/45 58/75/45 60/77/45 13/39/45
f 58/75/46 57/76/46 59/78/46 60/77/46
f 13/39/47 60/77/47 62/79/47 15/40/47
f 60/77/48 59/78/48 61/80/48 62/79/48
f 15/40/49 62/79/49 64/81/49 17/41/49
f 62/79/50 61/80/50 63/82/50 64/81/50
f 17/41/51 64/81/51 66/83/51 19/42/51
f 64/81/52 63/82/52 65/84/52 66/83/52
f 19/42/53 66/83/53 68/85/53 21/43/53
f 66/83/54 65/84/54 67/86/54 68/85/54
f 21/43/55 68/85/55 70/87/55 23/44/55
f 68/85/56 67/86/56 69/88/56 70/87/56
f 23/44/57 70/87/57 72/89/57 25/45/57
f 70/87/58 69/88/58 71/90/58 72/89/58
f 25/45/59 72/89/59 74/91/59 27/46/59
f 72/89/60 71/90/60 73/92/60 74/91/60
f 27/46/61 74/91/61 76/93/61 29/47/61
f 74/91/62 73/92/62 75/94/62 76/93/62
f 29/47/63 76/93/63 78/95/63 31/48/63
f 76/93/64 75/94/64 77/96/64 78/95/64
f 31/48/65 78/95/65 79/65/65 1/33/65
f 78/95/66 77/96/66 80/67/66 79/65/66
f 80/67/67 81/97/67 82/98/67 49/68/67
f 49/68/68 82/98/68 83/99/68 51/70/68
f 51/70/69 83/99/69 84/100/69 53/72/69
f 53/72/70 84/100/70 85/101/70 55/74/70
f 55/74/71 85/101/71 86/102/71 57/76/71
f 57/76/72 86/102/72 87/103/72 59/78/72
f 59/78/73 87/103/73 88/104/73 61/80/73
f 61/80/74 88/104/74 89/105/74 63/82/74
f 63/82/75 89/105/75 90/106/75 65/84/75
f 65/84/76 90/106/76 91/107/76 67/86/76
f 67/86/77 91/107/77 92/108/77 69/88/77
f 69/88/78 92/108/78 93/109/78 71/90/78
f 71/90/79 93/109/79 94/110/79 73/92/79
f 73/92/80 94/110/80 95/111/80 75/94/80
f 75/94/81 95/111/81 96/112/81 77/96/81
f 77/96/82 96/112/82 81/97/82 80/67/82
o Plane.006
v -0.014322 0.328516 0.005732
v -0.014322 0.328516 -0.010140
v -0.014322 0.354346 0.030083
v -0.011904 0.384462 0.020593
v -0.011904 0.404138 0.003893
v -0.011904 0.404138 -0.008301
v -0.011904 0.384462 -0.025002
v -0.014322 0.354346 -0.034492
v 0.013856 0.330580 0.006471
v 0.013856 0.330580 -0.010880
v 0.009803 0.361153 0.035294
v 0.009803 0.386679 0.024064
v 0.009803 0.410345 0.003977
v 0.009803 0.410345 -0.008386
v 0.009803 0.386679 -0.028473
v 0.009803 0.361153 -0.039703
v 0.013856 0.322849 -0.012468
v 0.013856 0.322849 0.008060
v 0.009803 0.356256 -0.043962
v 0.009803 0.356256 0.039553
v 0.009803 0.388578 0.027280
v 0.009803 0.414026 0.005681
v 0.009803 0.414026 -0.010090
v 0.009803 0.388578 -0.031689
v 0.004801 0.361153 0.035294
v -0.003501 0.361365 -0.025997
v 0.004801 0.386679 0.024064
v 0.004801 0.386679 -0.028473
v -0.003501 0.345573 -0.007292
v -0.003501 0.345573 0.002883
v -0.003501 0.396197 0.001025
v -0.003501 0.396197 -0.005434
v 0.004801 0.330580 -0.010880
v 0.004801 0.330580 0.006471
v 0.004801 0.361153 -0.039703
v -0.003501 0.361365 0.021589
v -0.003501 0.380554 0.014302
v 0.004801 0.410345 0.003977
v 0.004801 0.410345 -0.008386
v -0.003501 0.380554 -0.018711
vn -1.0000 -0.0000 -0.0000
vn -0.9968 0.0800 -0.0000
vn -0.0000 -0.6471 -0.7624
vn -0.0000 -0.4027 0.9153
vn -0.0000 0.6860 0.7276
vn -0.1971 -0.9804 -0.0000
vn -0.2077 -0.6785 -0.7046
vn -0.2077 -0.6785 0.7046
vn -0.3521 0.3202 0.8795
vn -0.3367 0.6093 0.7179
vn -0.3367 0.6093 -0.7179
vn -0.3521 0.3202 -0.8795
vn -0.4145 0.9100 -0.0000
vn 1.0000 -0.0000 -0.0000
vn 0.9951 0.0415 -0.0897
vn 0.9951 0.0415 0.0897
vn -0.0000 0.6860 -0.7276
vn -0.0000 1.0000 -0.0000
vn -0.0000 -1.0000 -0.0000
vn -0.0000 -0.6471 0.7624
vn -0.0000 -0.4027 -0.9153
vn 0.8748 0.4844 -0.0000
vn 0.8103 0.4195 0.4092
vn 0.8103 0.4195 -0.4092
vn 0.8218 -0.2180 -0.5265
vn 0.8085 -0.3808 -0.4487
vn 0.8085 -0.3808 0.4487
vn 0.8218 -0.2180 0.5265
vn 0.8625 -0.5061 -0.0000
vt 0.308016 0.055758
vt 0.294622 0.069966
vt 0.330141 0.069966
vt 0.316747 0.055758
vt 0.299842 0.083712
vt 0.324921 0.083712
vt 0.309028 0.094535
vt 0.315735 0.094535
vt 0.308981 0.097949
vt 0.297933 0.084932
vt 0.333007 0.068664
vt 0.326830 0.084932
vt 0.317153 0.051848
vt 0.318027 0.049823
vt 0.306736 0.049823
vt 0.335350 0.068198
vt 0.289413 0.068198
vt 0.296164 0.085976
vt 0.308044 0.099973
vt 0.316719 0.099973
vt 0.328599 0.085976
vt 0.307610 0.051848
vt 0.291756 0.068664
vt 0.315782 0.097949
vt 0.309583 0.060094
vt 0.315180 0.060094
vt 0.325468 0.071008
vt 0.299295 0.071008
vt 0.321461 0.081563
vt 0.303302 0.081563
vt 0.314158 0.090167
vt 0.310605 0.090167
s 0
usemtl Gradient_Colour
f 97/113/83 99/114/83 104/115/83 98/116/83
f 99/114/84 100/117/84 103/118/84 104/115/84
f 100/117/83 101/119/83 102/120/83 103/118/83
f 109/121/85 108/122/85 123/122/85 134/121/85
f 112/123/86 111/124/86 124/124/86 131/123/86
f 106/125/87 112/123/87 131/123/87 129/125/87
f 97/113/88 98/116/88 113/126/88 114/127/88
f 98/116/89 104/115/89 115/128/89 113/126/89
f 99/114/90 97/113/90 114/127/90 116/129/90
f 100/117/91 99/114/91 116/129/91 117/130/91
f 101/119/92 100/117/92 117/130/92 118/131/92
f 103/118/93 102/120/93 119/132/93 120/133/93
f 104/115/94 103/118/94 120/133/94 115/128/94
f 102/120/95 101/119/95 118/131/95 119/132/95
f 106/125/96 105/134/96 114/127/96 113/126/96
f 112/123/97 106/125/97 113/126/97 115/128/97
f 105/134/98 107/135/98 116/129/98 114/127/98
f 107/135/96 108/122/96 117/130/96 116/129/96
f 108/122/96 109/121/96 118/131/96 117/130/96
f 110/136/96 111/124/96 120/133/96 119/132/96
f 111/124/96 112/123/96 115/128/96 120/133/96
f 109/121/96 110/136/96 119/132/96 118/131/96
f 126/137/96 125/138/96 122/139/96 132/140/96
f 132/140/96 122/139/96 136/141/96 133/142/96
f 133/142/96 136/141/96 128/143/96 127/144/96
f 107/135/99 105/134/99 130/134/99 121/135/99
f 105/134/100 106/125/100 129/125/100 130/134/100
f 110/136/101 109/121/101 134/121/101 135/136/101
f 111/124/102 110/136/102 135/136/102 124/124/102
f 108/122/103 107/135/103 121/135/103 123/122/103
f 125/138/104 126/137/104 130/134/104 129/125/104
f 122/139/105 125/138/105 129/125/105 131/123/105
f 126/137/106 132/140/106 121/135/106 130/134/106
f 132/140/107 133/142/107 123/122/107 121/135/107
f 133/142/108 127/144/108 134/121/108 123/122/108
f 128/143/109 136/141/109 124/124/109 135/136/109
f 136/141/110 122/139/110 131/123/110 124/124/110
f 127/144/111 128/143/111 135/136/111 134/121/111
