# Blender 4.0.2
# www.blender.org
mtllib Table.mtl
o Circle
v -0.122497 0.579416 -0.457275
v -0.297893 0.579416 -0.367907
v -0.421775 0.579416 -0.214924
v -0.472724 0.579416 -0.024780
v -0.441930 0.579416 0.169647
v -0.334717 0.579416 0.334741
v -0.169624 0.579416 0.441954
v 0.024804 0.579416 0.472748
v 0.214948 0.579416 0.421799
v 0.367930 0.579416 0.297917
v 0.457299 0.579416 0.122521
v 0.467601 0.579416 -0.074061
v 0.397056 0.579416 -0.257837
v 0.257861 0.579416 -0.397032
v 0.074085 0.579416 -0.467578
v -0.518287 0.627394 -0.027168
v -0.484525 0.627394 0.185998
v -0.332298 0.627394 -0.410393
v -0.136646 0.627394 -0.510082
v -0.470486 0.627394 -0.239744
v -0.527319 0.627394 -0.027642
v -0.492968 0.627394 0.189239
v -0.373374 0.627394 0.373398
v -0.189215 0.627394 0.492992
v 0.027665 0.627394 0.527343
v 0.239768 0.627394 0.470510
v 0.410417 0.627394 0.332321
v 0.510106 0.627394 0.136670
v 0.521598 0.627394 -0.082613
v 0.442906 0.627394 -0.287613
v 0.287636 0.627394 -0.442882
v 0.082637 0.627394 -0.521574
v -0.326606 0.627089 -0.403364
v -0.134306 0.627089 -0.501346
v -0.462428 0.627089 -0.235638
v -0.518287 0.627089 -0.027168
v -0.484525 0.627089 0.185998
v -0.366979 0.627089 0.367003
v -0.185974 0.627089 0.484548
v 0.027192 0.627089 0.518311
v 0.235661 0.627089 0.462451
v 0.403388 0.627089 0.326629
v 0.501369 0.627089 0.134329
v 0.512665 0.627089 -0.081198
v 0.435320 0.627089 -0.282687
v 0.282710 0.627089 -0.435297
v 0.081222 0.627089 -0.512641
v -0.332298 0.579416 -0.410393
v -0.136646 0.579416 -0.510082
v -0.470486 0.579416 -0.239744
v -0.527319 0.579416 -0.027642
v -0.492968 0.579416 0.189239
v -0.373374 0.579416 0.373398
v -0.189215 0.579416 0.492992
v 0.027665 0.579416 0.527343
v 0.239768 0.579416 0.470510
v 0.410417 0.579416 0.332321
v 0.510106 0.579416 0.136670
v 0.521598 0.579416 -0.082613
v 0.442906 0.579416 -0.287613
v 0.287636 0.579416 -0.442882
v 0.082637 0.579416 -0.521574
v -0.024449 0.554417 -0.030231
v -0.010038 0.554417 -0.037573
v -0.034627 0.554417 -0.017662
v -0.038813 0.554417 -0.002040
v -0.036282 0.554417 0.013934
v -0.027474 0.554417 0.027498
v -0.013910 0.554417 0.036306
v 0.002064 0.554417 0.038836
v 0.017686 0.554417 0.034650
v 0.030255 0.554417 0.024472
v 0.037597 0.554417 0.010062
v 0.038444 0.554417 -0.006089
v 0.032648 0.554417 -0.021188
v 0.021212 0.554417 -0.032624
v 0.006113 0.554417 -0.038420
v -0.019578 0.156146 -0.024217
v -0.008035 0.156146 -0.030098
v -0.027731 0.156146 -0.014149
v -0.031084 0.156146 -0.001635
v -0.029057 0.156146 0.011160
v -0.022002 0.156146 0.022025
v -0.011137 0.156146 0.029081
v 0.001659 0.156146 0.031108
v 0.014172 0.156146 0.027755
v 0.024240 0.156146 0.019602
v 0.030122 0.156146 0.008059
v 0.030800 0.156146 -0.004878
v 0.026157 0.156146 -0.016973
v 0.016997 0.156146 -0.026133
v 0.004902 0.156146 -0.030776
v -0.024449 0.156146 -0.030231
v -0.010038 0.156146 -0.037573
v -0.034627 0.156146 -0.017662
v -0.038813 0.156146 -0.002040
v -0.036282 0.156146 0.013934
v -0.027474 0.156146 0.027498
v -0.013910 0.156146 0.036306
v 0.002064 0.156146 0.038836
v 0.017686 0.156146 0.034650
v 0.030255 0.156146 0.024472
v 0.037597 0.156146 0.010062
v 0.038444 0.156146 -0.006089
v 0.032648 0.156146 -0.021188
v 0.021212 0.156146 -0.032624
v 0.006113 0.156146 -0.038420
v -0.030661 0.140832 -0.037903
v -0.012593 0.140832 -0.047109
v -0.043422 0.140832 -0.022144
v -0.048671 0.140832 -0.002557
v -0.045499 0.140832 0.017472
v -0.034454 0.140832 0.034478
v -0.017448 0.140832 0.045522
v 0.002580 0.140832 0.048694
v 0.022167 0.140832 0.043446
v 0.037926 0.140832 0.030685
v 0.047132 0.140832 0.012617
v 0.048194 0.140832 -0.007633
v 0.040927 0.140832 -0.026564
v 0.026588 0.140832 -0.040903
v 0.007657 0.140832 -0.048170
v -0.030661 0.068455 -0.037903
v -0.012593 0.068455 -0.047109
v -0.043423 0.068455 -0.022144
v -0.048671 0.068455 -0.002557
v -0.045499 0.068455 0.017472
v -0.034454 0.068455 0.034478
v -0.017448 0.068455 0.045522
v 0.002580 0.068455 0.048694
v 0.022167 0.068455 0.043446
v 0.037926 0.068455 0.030685
v 0.047132 0.068455 0.012617
v 0.048194 0.068455 -0.007633
v 0.040927 0.068455 -0.026564
v 0.026588 0.068455 -0.040903
v 0.007657 0.068455 -0.048170
v -0.125925 0.006377 -0.155544
v -0.051772 0.006377 -0.193327
v -0.178300 0.006377 -0.090867
v -0.199840 0.006377 -0.010479
v -0.186821 0.006377 0.071720
v -0.141494 0.006377 0.141517
v -0.071696 0.006377 0.186844
v 0.010503 0.006377 0.199863
v 0.090891 0.006377 0.178323
v 0.155568 0.006377 0.125949
v 0.193351 0.006377 0.051796
v 0.197706 0.006377 -0.031314
v 0.167881 0.006377 -0.109010
v 0.109033 0.006377 -0.167858
v 0.031337 0.006377 -0.197683
vn 0.0152 -0.9983 0.0567
vn -0.0344 0.9994 -0.0018
vn 0.3584 -0.0000 -0.9336
vn -0.1564 -0.0000 0.9877
vn -0.0523 -0.0000 -0.9986
vn 0.2588 -0.0000 0.9659
vn -0.4540 -0.0000 -0.8910
vn 0.6293 -0.0000 0.7771
vn -0.7771 -0.0000 -0.6293
vn 0.8910 -0.0000 0.4540
vn -0.9659 -0.0000 -0.2588
vn 0.9986 -0.0000 0.0523
vn -0.9877 -0.0000 0.1564
vn 0.9336 -0.0000 -0.3584
vn -0.8387 -0.0000 0.5446
vn 0.7071 -0.0000 -0.7071
vn -0.5446 -0.0000 0.8387
vn 0.0018 0.9994 0.0344
vn 0.0156 0.9994 0.0307
vn 0.0267 0.9994 0.0217
vn -0.0000 1.0000 -0.0000
vn -0.0089 0.9994 -0.0332
vn 0.0054 0.9994 -0.0340
vn 0.0291 0.9994 -0.0181
vn -0.0307 0.9994 -0.0156
vn 0.0187 0.9994 -0.0289
vn -0.0321 0.9994 0.0123
vn -0.0243 0.9994 0.0243
vn -0.0123 0.9994 0.0321
vn 0.9877 -0.0000 -0.1564
vn -0.0000 -1.0000 -0.0000
vn -0.0267 -0.9983 -0.0523
vn 0.0370 -0.9983 0.0456
vn -0.0456 -0.9983 -0.0370
vn 0.0523 -0.9983 0.0267
vn -0.0567 -0.9983 -0.0152
vn 0.0586 -0.9983 0.0031
vn -0.0580 -0.9983 0.0092
vn 0.0548 -0.9983 -0.0210
vn -0.0492 -0.9983 0.0320
vn 0.0415 -0.9983 -0.0415
vn -0.0320 -0.9983 0.0492
vn 0.0210 -0.9983 -0.0548
vn -0.0092 -0.9983 0.0580
vn -0.0031 -0.9983 -0.0586
vn -0.3619 0.7474 0.5572
vn 0.2381 0.7474 -0.6203
vn -0.1039 0.7474 0.6562
vn -0.0348 0.7474 -0.6635
vn 0.1720 0.7474 0.6418
vn -0.3016 0.7474 -0.5920
vn 0.4181 0.7474 0.5163
vn -0.5163 0.7474 -0.4181
vn 0.5920 0.7474 0.3016
vn -0.6418 0.7474 -0.1720
vn 0.6635 0.7474 0.0348
vn -0.6562 0.7474 0.1039
vn 0.6203 0.7474 -0.2381
vn -0.5572 0.7474 0.3619
vn 0.4698 0.7474 -0.4698
vn -0.0202 0.9222 -0.3861
vn 0.1001 0.9222 0.3735
vn -0.1755 0.9222 -0.3445
vn 0.2433 0.9222 0.3005
vn -0.3005 0.9222 -0.2433
vn 0.3445 0.9222 0.1755
vn -0.3735 0.9222 -0.1001
vn 0.3861 0.9222 0.0202
vn -0.3819 0.9222 0.0605
vn 0.3610 0.9222 -0.1386
vn -0.3243 0.9222 0.2106
vn 0.2734 0.9222 -0.2734
vn -0.2106 0.9222 0.3243
vn 0.1386 0.9222 -0.3610
vn -0.0605 0.9222 0.3819
vn -0.0217 0.9994 -0.0267
vn 0.0333 0.9994 0.0082
vt 0.568142 0.948982
vt 0.574584 0.948982
vt 0.554176 0.935635
vt 0.554471 0.935604
vt 0.556653 0.942321
vt 0.556397 0.942469
vt 0.558520 0.922265
vt 0.564334 0.918041
vt 0.581520 0.947809
vt 0.574956 0.950732
vt 0.571363 0.916547
vt 0.567770 0.950732
vt 0.578392 0.918041
vt 0.561205 0.947809
vt 0.584205 0.922265
vt 0.587798 0.928488
vt 0.588549 0.935635
vt 0.554927 0.928488
vt 0.586329 0.942469
vt 0.571363 0.916843
vt 0.564454 0.918311
vt 0.578271 0.918311
vt 0.583985 0.922463
vt 0.588255 0.935604
vt 0.587517 0.928579
vt 0.567831 0.950442
vt 0.574894 0.950442
vt 0.581346 0.947570
vt 0.586072 0.942321
vt 0.561379 0.947570
vt 0.555209 0.928579
vt 0.558740 0.922463
vt 0.445613 0.917266
vt 0.446192 0.917389
vt 0.446671 0.917737
vt 0.446967 0.918249
vt 0.447029 0.918838
vt 0.446846 0.919401
vt 0.446450 0.919841
vt 0.445909 0.920082
vt 0.445317 0.920082
vt 0.444777 0.919841
vt 0.444380 0.919401
vt 0.444198 0.918838
vt 0.444259 0.918249
vt 0.444555 0.917737
vt 0.445034 0.917389
vt 0.571363 0.918336
vt 0.577664 0.919675
vt 0.582876 0.923462
vt 0.586097 0.929041
vt 0.586770 0.935448
vt 0.584779 0.941574
vt 0.580469 0.946362
vt 0.562257 0.946362
vt 0.557946 0.941574
vt 0.555955 0.935448
vt 0.556629 0.929041
vt 0.559850 0.923462
vt 0.565061 0.919675
vt 0.686416 0.926992
vt 0.686565 0.927800
vt 0.686073 0.927595
vt 0.685836 0.926334
vt 0.571363 0.921419
vt 0.576410 0.922492
vt 0.580585 0.925525
vt 0.583165 0.929993
vt 0.583704 0.935125
vt 0.582110 0.940033
vt 0.578657 0.943868
vt 0.573943 0.945967
vt 0.568783 0.945967
vt 0.564069 0.943868
vt 0.560616 0.940033
vt 0.559021 0.935125
vt 0.559561 0.929993
vt 0.562141 0.925525
vt 0.566315 0.922492
vt 0.686116 0.925309
vt 0.688106 0.925824
vt 0.688392 0.924842
vt 0.690127 0.929215
vt 0.690167 0.928490
vt 0.691645 0.928664
vt 0.691569 0.929778
vt 0.686599 0.926339
vt 0.689780 0.929715
vt 0.691026 0.930542
vt 0.687085 0.925962
vt 0.686874 0.924714
vt 0.689187 0.929910
vt 0.690111 0.930839
vt 0.687790 0.925932
vt 0.687977 0.924666
vt 0.688445 0.929770
vt 0.688974 0.930626
vt 0.688586 0.926254
vt 0.689219 0.925175
vt 0.687678 0.929316
vt 0.687797 0.929933
vt 0.689328 0.926868
vt 0.690371 0.926141
vt 0.687013 0.928622
vt 0.686771 0.928867
vt 0.689886 0.927661
vt 0.691226 0.927378
vt 0.692990 0.929865
vt 0.693521 0.929130
vt 0.702347 0.933936
vt 0.700166 0.936542
vt 0.689126 0.924272
vt 0.692110 0.930151
vt 0.690179 0.924227
vt 0.691026 0.929945
vt 0.691355 0.924714
vt 0.689913 0.929280
vt 0.692437 0.925639
vt 0.688952 0.928255
vt 0.693233 0.926826
vt 0.688309 0.927034
vt 0.693612 0.928060
vt 0.682154 0.916647
vt 0.685166 0.914042
vt 0.696863 0.937532
vt 0.689666 0.913830
vt 0.692890 0.936823
vt 0.694643 0.916070
vt 0.688749 0.934474
vt 0.698995 0.920160
vt 0.685006 0.930706
vt 0.701909 0.925121
vt 0.682285 0.925961
vt 0.703018 0.929968
vt 0.681194 0.920955
s 0
usemtl Diffius.001
f 9/1/1 8/2/1 70/2/1 71/1/1
f 29/3/2 44/4/2 43/5/2 28/6/2
f 61/7/3 62/8/3 32/8/3 31/7/3
f 54/9/4 55/10/4 25/10/4 24/9/4
f 62/8/5 49/11/5 19/11/5 32/8/5
f 55/10/6 56/12/6 26/12/6 25/10/6
f 49/11/7 48/13/7 18/13/7 19/11/7
f 56/12/8 57/14/8 27/14/8 26/12/8
f 48/13/9 50/15/9 20/15/9 18/13/9
f 57/14/10 58/6/10 28/6/10 27/14/10
f 50/15/11 51/16/11 21/16/11 20/15/11
f 58/6/12 59/3/12 29/3/12 28/6/12
f 51/16/13 52/17/13 22/17/13 21/16/13
f 59/3/14 60/18/14 30/18/14 29/3/14
f 52/17/15 53/19/15 23/19/15 22/17/15
f 60/18/16 61/7/16 31/7/16 30/18/16
f 53/19/17 54/9/17 24/9/17 23/19/17
f 19/11/18 34/20/18 47/21/18 32/8/18
f 18/13/19 33/22/19 34/20/19 19/11/19
f 20/15/20 35/23/20 33/22/20 18/13/20
f 17/24/21 16/25/21 21/16/21 22/17/21
f 26/12/22 41/26/22 40/27/22 25/10/22
f 25/10/23 40/27/23 39/28/23 24/9/23
f 23/19/24 38/29/24 37/24/24 17/24/24 22/17/24
f 28/6/25 43/5/25 42/30/25 27/14/25
f 24/9/26 39/28/26 38/29/26 23/19/26
f 29/3/27 30/18/27 45/31/27 44/4/27
f 31/7/28 46/32/28 45/31/28 30/18/28
f 32/8/29 47/21/29 46/32/29 31/7/29
f 34/33/21 33/34/21 35/35/21 36/36/21 37/37/21 38/38/21 39/39/21 40/40/21 41/41/21 42/42/21 43/43/21 44/44/21 45/45/21 46/46/21 47/47/21
f 16/25/30 17/24/30 37/24/30 36/25/30
f 1/48/31 2/49/31 48/13/31 49/11/31
f 2/49/31 3/50/31 50/15/31 48/13/31
f 3/50/31 4/51/31 51/16/31 50/15/31
f 4/51/31 5/52/31 52/17/31 51/16/31
f 5/52/31 6/53/31 53/19/31 52/17/31
f 6/53/31 7/54/31 54/9/31 53/19/31
f 7/54/31 8/2/31 55/10/31 54/9/31
f 8/2/31 9/1/31 56/12/31 55/10/31
f 9/1/31 10/55/31 57/14/31 56/12/31
f 10/55/31 11/56/31 58/6/31 57/14/31
f 11/56/31 12/57/31 59/3/31 58/6/31
f 12/57/31 13/58/31 60/18/31 59/3/31
f 13/58/31 14/59/31 61/7/31 60/18/31
f 14/59/31 15/60/31 62/8/31 61/7/31
f 15/60/31 1/48/31 49/11/31 62/8/31
f 75/58/14 74/57/14 104/57/14 105/58/14
f 2/49/32 1/48/32 64/48/32 63/49/32
f 10/55/33 9/1/33 71/1/33 72/55/33
f 3/50/34 2/49/34 63/49/34 65/50/34
f 11/56/35 10/55/35 72/55/35 73/56/35
f 4/51/36 3/50/36 65/50/36 66/51/36
f 12/57/37 11/56/37 73/56/37 74/57/37
f 5/52/38 4/51/38 66/51/38 67/52/38
f 13/58/39 12/57/39 74/57/39 75/58/39
f 6/53/40 5/52/40 67/52/40 68/53/40
f 14/59/41 13/58/41 75/58/41 76/59/41
f 7/54/42 6/53/42 68/53/42 69/54/42
f 15/60/43 14/59/43 76/59/43 77/60/43
f 8/2/44 7/54/44 69/54/44 70/2/44
f 1/48/45 15/60/45 77/60/45 64/48/45
f 84/61/46 83/62/46 113/63/46 114/64/46
f 68/53/15 67/52/15 97/52/15 98/53/15
f 76/59/16 75/58/16 105/58/16 106/59/16
f 69/54/17 68/53/17 98/53/17 99/54/17
f 77/60/3 76/59/3 106/59/3 107/60/3
f 70/2/4 69/54/4 99/54/4 100/2/4
f 64/48/5 77/60/5 107/60/5 94/48/5
f 71/1/6 70/2/6 100/2/6 101/1/6
f 63/49/7 64/48/7 94/48/7 93/49/7
f 72/55/8 71/1/8 101/1/8 102/55/8
f 65/50/9 63/49/9 93/49/9 95/50/9
f 73/56/10 72/55/10 102/55/10 103/56/10
f 66/51/11 65/50/11 95/50/11 96/51/11
f 74/57/12 73/56/12 103/56/12 104/57/12
f 67/52/13 66/51/13 96/51/13 97/52/13
f 79/65/31 78/66/31 93/49/31 94/48/31
f 78/66/31 80/67/31 95/50/31 93/49/31
f 80/67/31 81/68/31 96/51/31 95/50/31
f 81/68/31 82/69/31 97/52/31 96/51/31
f 82/69/31 83/70/31 98/53/31 97/52/31
f 83/70/31 84/71/31 99/54/31 98/53/31
f 84/71/31 85/72/31 100/2/31 99/54/31
f 85/72/31 86/73/31 101/1/31 100/2/31
f 86/73/31 87/74/31 102/55/31 101/1/31
f 87/74/31 88/75/31 103/56/31 102/55/31
f 88/75/31 89/76/31 104/57/31 103/56/31
f 89/76/31 90/77/31 105/58/31 104/57/31
f 90/77/31 91/78/31 106/59/31 105/58/31
f 91/78/31 92/79/31 107/60/31 106/59/31
f 92/79/31 79/65/31 94/48/31 107/60/31
f 115/80/4 114/64/4 129/81/4 130/82/4
f 92/83/47 91/84/47 121/85/47 122/86/47
f 85/87/48 84/61/48 114/64/48 115/80/48
f 79/88/49 92/83/49 122/86/49 109/89/49
f 86/90/50 85/87/50 115/80/50 116/91/50
f 78/92/51 79/88/51 109/89/51 108/93/51
f 87/94/52 86/90/52 116/91/52 117/95/52
f 80/96/53 78/92/53 108/93/53 110/97/53
f 88/98/54 87/94/54 117/95/54 118/99/54
f 81/100/55 80/96/55 110/97/55 111/101/55
f 89/102/56 88/98/56 118/99/56 119/103/56
f 82/104/57 81/100/57 111/101/57 112/105/57
f 90/106/58 89/102/58 119/103/58 120/107/58
f 83/62/59 82/104/59 112/105/59 113/63/59
f 91/84/60 90/106/60 120/107/60 121/85/60
f 124/108/61 137/109/61 152/110/61 139/111/61
f 109/89/5 122/86/5 137/109/5 124/108/5
f 116/91/6 115/80/6 130/82/6 131/112/6
f 108/93/7 109/89/7 124/108/7 123/113/7
f 117/95/8 116/91/8 131/112/8 132/114/8
f 110/97/9 108/93/9 123/113/9 125/115/9
f 118/99/10 117/95/10 132/114/10 133/116/10
f 111/101/11 110/97/11 125/115/11 126/117/11
f 119/103/12 118/99/12 133/116/12 134/118/12
f 112/105/13 111/101/13 126/117/13 127/119/13
f 120/107/14 119/103/14 134/118/14 135/120/14
f 113/63/15 112/105/15 127/119/15 128/121/15
f 121/85/16 120/107/16 135/120/16 136/122/16
f 114/64/17 113/63/17 128/121/17 129/81/17
f 122/86/3 121/85/3 136/122/3 137/109/3
f 139/65/31 152/79/31 151/78/31 150/77/31 149/76/31 148/75/31 147/74/31 146/73/31 145/72/31 144/71/31 143/70/31 142/69/31 141/68/31 140/67/31 138/66/31
f 131/112/62 130/82/62 145/123/62 146/124/62
f 123/113/63 124/108/63 139/111/63 138/125/63
f 132/114/64 131/112/64 146/124/64 147/126/64
f 125/115/65 123/113/65 138/125/65 140/127/65
f 133/116/66 132/114/66 147/126/66 148/128/66
f 126/117/67 125/115/67 140/127/67 141/129/67
f 134/118/68 133/116/68 148/128/68 149/130/68
f 127/119/69 126/117/69 141/129/69 142/131/69
f 135/120/70 134/118/70 149/130/70 150/132/70
f 128/121/71 127/119/71 142/131/71 143/133/71
f 136/122/72 135/120/72 150/132/72 151/134/72
f 129/81/73 128/121/73 143/133/73 144/135/73
f 137/109/74 136/122/74 151/134/74 152/110/74
f 130/82/75 129/81/75 144/135/75 145/123/75
f 27/14/76 42/30/76 41/26/76 26/12/76
f 16/25/77 36/25/77 35/23/77 20/15/77 21/16/77
