# Blender 4.0.2
# www.blender.org
mtllib Tunnel.mtl
o Cylinder.003
v 1.000000 -0.042322 1.000000
v 1.000000 -0.042321 -0.957456
v 0.923880 0.340362 1.000000
v 0.923880 0.340362 -0.957456
v 0.707107 0.664785 1.000000
v 0.707107 0.664785 -0.957455
v 0.382683 0.881558 1.000000
v 0.382683 0.881558 -0.957455
v 0.000000 0.957678 1.000000
v 0.000000 0.957679 -0.957455
v -0.382683 0.881558 1.000000
v -0.382683 0.881558 -0.957455
v -0.707107 0.664785 1.000000
v -0.707107 0.664785 -0.957455
v -0.923880 0.340362 1.000000
v -0.923880 0.340362 -0.957456
v -1.000000 -0.042322 1.000000
v -1.000000 -0.042321 -0.957456
v 0.901922 -0.061831 1.000000
v 0.901922 -0.061830 -0.957456
v 0.831492 0.302094 1.000000
v 0.831492 0.302094 -0.957456
v 0.636396 0.594075 1.000000
v 0.636396 0.594075 -0.957455
v 0.344415 0.789170 1.000000
v 0.344415 0.789170 -0.957455
v 0.000000 0.857679 1.000000
v 0.000000 0.857679 -0.957455
v -0.344415 0.789170 1.000000
v -0.344415 0.789170 -0.957455
v -0.636396 0.594075 1.000000
v -0.636396 0.594075 -0.957455
v -0.831492 0.302094 1.000000
v -0.831492 0.302094 -0.957456
v -0.901922 -0.061831 1.000000
v -0.901922 -0.061830 -0.957456
vn 0.9808 0.1951 -0.0000
vn 0.8315 0.5556 -0.0000
vn 0.5556 0.8315 -0.0000
vn 0.1951 0.9808 -0.0000
vn -0.1951 0.9808 -0.0000
vn -0.5556 0.8315 -0.0000
vn -0.8315 0.5556 -0.0000
vn -0.9808 0.1951 -0.0000
vn -0.9818 -0.1900 -0.0000
vn -0.8315 -0.5556 -0.0000
vn -0.5556 -0.8315 -0.0000
vn -0.1951 -0.9808 -0.0000
vn 0.1951 -0.9808 -0.0000
vn 0.5556 -0.8315 -0.0000
vn 0.8315 -0.5556 -0.0000
vn 0.9818 -0.1900 -0.0000
vn -0.0000 -0.0000 1.0000
vn -0.0000 -0.0000 -1.0000
vt 0.829012 0.931015
vt 0.829587 0.967386
vt 0.828172 0.967408
vt 0.827597 0.931037
vt 0.824145 0.967472
vt 0.823570 0.931101
vt 0.818117 0.967567
vt 0.817541 0.931196
vt 0.811006 0.967679
vt 0.810431 0.931308
vt 0.803896 0.967792
vt 0.803320 0.931421
vt 0.797867 0.967887
vt 0.797292 0.931516
vt 0.793840 0.967951
vt 0.793265 0.931580
vt 0.792425 0.967973
vt 0.791850 0.931602
s 0
usemtl Graident
f 1/1/1 2/2/1 4/3/1 3/4/1
f 3/4/2 4/3/2 6/5/2 5/6/2
f 5/6/3 6/5/3 8/7/3 7/8/3
f 7/8/4 8/7/4 10/9/4 9/10/4
f 9/10/5 10/9/5 12/11/5 11/12/5
f 11/12/6 12/11/6 14/13/6 13/14/6
f 13/14/7 14/13/7 16/15/7 15/16/7
f 15/16/8 16/15/8 18/17/8 17/18/8
f 19/1/9 21/4/9 22/3/9 20/2/9
f 21/4/10 23/6/10 24/5/10 22/3/10
f 23/6/11 25/8/11 26/7/11 24/5/11
f 25/8/12 27/10/12 28/9/12 26/7/12
f 27/10/13 29/12/13 30/11/13 28/9/13
f 29/12/14 31/14/14 32/13/14 30/11/14
f 31/14/15 33/16/15 34/15/15 32/13/15
f 33/16/16 35/18/16 36/17/16 34/15/16
f 2/2/13 1/1/13 19/1/13 20/2/13
f 1/1/17 3/4/17 21/4/17 19/1/17
f 4/3/18 2/2/18 20/2/18 22/3/18
f 3/4/17 5/6/17 23/6/17 21/4/17
f 6/5/18 4/3/18 22/3/18 24/5/18
f 5/6/17 7/8/17 25/8/17 23/6/17
f 8/7/18 6/5/18 24/5/18 26/7/18
f 7/8/17 9/10/17 27/10/17 25/8/17
f 10/9/18 8/7/18 26/7/18 28/9/18
f 9/10/17 11/12/17 29/12/17 27/10/17
f 12/11/18 10/9/18 28/9/18 30/11/18
f 11/12/17 13/14/17 31/14/17 29/12/17
f 14/13/18 12/11/18 30/11/18 32/13/18
f 13/14/17 15/16/17 33/16/17 31/14/17
f 16/15/18 14/13/18 32/13/18 34/15/18
f 15/16/17 17/18/17 35/18/17 33/16/17
f 18/17/18 16/15/18 34/15/18 36/17/18
f 17/18/12 18/17/12 36/17/12 35/18/12
