# Blender 4.0.2
# www.blender.org
mtllib White Bench.mtl
o Cube.007
v -2.633262 0.437009 -2.496994
v -2.636586 0.444579 -2.496994
v -2.631032 0.381096 -2.496994
v -2.629072 0.389128 -2.496994
v -2.636586 0.444579 -3.415440
v -2.633262 0.437009 -3.544113
v -2.629072 0.389128 -3.544113
v -2.631032 0.381096 -3.544113
v -2.652801 0.443161 -2.496994
v -2.654760 0.435129 -2.496994
v -2.650571 0.387247 -2.496994
v -2.647247 0.379678 -2.496994
v -2.652801 0.443161 -3.415440
v -2.652118 0.435360 -3.544113
v -2.654760 0.435129 -3.415440
v -2.650571 0.387247 -3.415440
v -2.647247 0.379678 -3.544113
v -2.639371 0.506841 -2.496994
v -2.642695 0.514411 -2.496994
v -2.637141 0.450928 -2.496994
v -2.635182 0.458960 -2.496994
v -2.642695 0.514411 -3.415440
v -2.639371 0.506841 -3.544113
v -2.635182 0.458960 -3.544113
v -2.637141 0.450928 -3.544113
v -2.658910 0.512992 -2.496994
v -2.660869 0.504960 -2.496994
v -2.656680 0.457079 -2.496994
v -2.653356 0.449509 -2.496994
v -2.658910 0.512992 -3.415440
v -2.658227 0.505191 -3.544113
v -2.660869 0.504960 -3.415440
v -2.656680 0.457079 -3.415440
v -2.653356 0.449509 -3.544113
v -2.645481 0.576672 -2.496994
v -2.648805 0.584242 -2.496994
v -2.643251 0.520759 -2.496994
v -2.641291 0.528791 -2.496994
v -2.648805 0.584242 -3.415440
v -2.645481 0.576672 -3.544113
v -2.641291 0.528791 -3.544113
v -2.643251 0.520759 -3.544113
v -2.665020 0.582823 -2.496994
v -2.666979 0.574791 -2.496994
v -2.662790 0.526910 -2.496994
v -2.659465 0.519340 -2.496994
v -2.665020 0.582823 -3.415440
v -2.664337 0.575022 -3.544113
v -2.666979 0.574791 -3.415440
v -2.662790 0.526910 -3.415440
v -2.659465 0.519340 -3.544113
v -2.651590 0.646504 -2.496994
v -2.654914 0.654073 -2.496994
v -2.649360 0.590590 -2.496994
v -2.647401 0.598622 -2.496994
v -2.654914 0.654073 -3.415440
v -2.651590 0.646504 -3.544113
v -2.647401 0.598622 -3.544113
v -2.649360 0.590590 -3.544113
v -2.671129 0.652655 -2.496994
v -2.673088 0.644623 -2.496994
v -2.668899 0.596742 -2.496994
v -2.665575 0.589172 -2.496994
v -2.671129 0.652655 -3.415440
v -2.670446 0.644854 -3.544113
v -2.673088 0.644623 -3.415440
v -2.668899 0.596742 -3.415440
v -2.665575 0.589172 -3.544113
v -2.626558 -0.004904 -2.464187
v -2.618440 0.417970 -2.464187
v -2.626558 -0.004904 -2.517929
v -2.618440 0.417970 -2.517929
v -2.250700 -0.004904 -2.464187
v -2.260499 0.402413 -2.464187
v -2.250700 -0.004904 -2.517929
v -2.260499 0.402413 -2.517929
v -2.618440 0.280922 -2.464187
v -2.618440 0.280922 -2.517929
v -2.258818 0.280922 -2.517929
v -2.258818 0.280922 -2.464187
v -2.655733 0.280922 -2.464187
v -2.655733 0.446394 -2.464187
v -2.655733 0.280922 -2.517929
v -2.665535 -0.005755 -2.517929
v -2.211723 -0.005755 -2.517929
v -2.655733 0.446394 -2.517929
v -2.221525 0.280922 -2.517929
v -2.221525 0.280922 -2.464187
v -2.211723 -0.005755 -2.464187
v -2.665535 -0.005755 -2.464187
v -2.337910 0.460037 -2.517929
v -2.221525 0.371331 -2.517929
v -2.258810 0.431619 -2.517929
v -2.255613 0.434056 -2.517929
v -2.221525 0.371331 -2.464187
v -2.337910 0.460037 -2.464187
v -2.258810 0.431619 -2.464187
v -2.255613 0.434056 -2.464187
v -2.633166 0.234806 -2.473111
v -2.633166 0.286490 -2.473111
v -2.633166 0.234806 -3.567996
v -2.633166 0.286490 -3.567996
v -2.244092 0.234806 -2.473111
v -2.244092 0.286490 -2.473111
v -2.244092 0.234806 -3.567996
v -2.244092 0.286490 -3.567996
v -2.584924 0.234806 -3.517131
v -2.584924 0.234806 -2.523977
v -2.584924 0.286490 -2.523977
v -2.584924 0.286490 -3.517131
v -2.292334 0.234806 -3.517131
v -2.292334 0.286490 -3.517131
v -2.292334 0.234806 -2.523977
v -2.292334 0.286490 -2.523977
v -2.607300 0.313849 -2.470860
v -2.658763 0.309346 -2.470860
v -2.607300 0.313849 -3.565745
v -2.658763 0.309346 -3.565745
v -2.611679 0.363899 -3.514880
v -2.611679 0.363899 -2.521726
v -2.663142 0.359396 -2.521726
v -2.663142 0.359396 -3.514880
v -2.638236 0.667452 -3.514880
v -2.689699 0.662949 -3.514880
v -2.638236 0.667452 -2.521726
v -2.689699 0.662949 -2.521726
v -2.641734 0.707431 -2.470860
v -2.642615 0.717502 -2.498177
v -2.641790 0.708071 -2.480445
v -2.642357 0.714552 -2.478861
v -2.694078 0.712999 -2.498177
v -2.693197 0.702928 -2.470860
v -2.693253 0.703569 -2.480445
v -2.693820 0.710050 -2.478861
v -2.642615 0.717502 -3.538429
v -2.641734 0.707431 -3.565745
v -2.641790 0.708071 -3.556161
v -2.642357 0.714552 -3.557745
v -2.693197 0.702928 -3.565745
v -2.694078 0.712999 -3.538429
v -2.693253 0.703569 -3.556161
v -2.693820 0.710050 -3.557745
v -2.626558 -0.004904 -3.522161
v -2.618440 0.417970 -3.522161
v -2.626558 -0.004904 -3.575902
v -2.618440 0.417970 -3.575903
v -2.250700 -0.004904 -3.522161
v -2.260499 0.402413 -3.522161
v -2.250700 -0.004904 -3.575902
v -2.260499 0.402413 -3.575903
v -2.618440 0.280922 -3.522161
v -2.618440 0.280922 -3.575903
v -2.258818 0.280922 -3.575903
v -2.258818 0.280922 -3.522161
v -2.655733 0.280922 -3.522161
v -2.655733 0.446394 -3.522161
v -2.655733 0.280922 -3.575903
v -2.665535 -0.005755 -3.575902
v -2.211723 -0.005755 -3.575902
v -2.655733 0.446394 -3.575903
v -2.221525 0.280922 -3.575903
v -2.221525 0.280922 -3.522161
v -2.211723 -0.005755 -3.522161
v -2.665535 -0.005755 -3.522161
v -2.337910 0.460037 -3.575903
v -2.221525 0.371331 -3.575903
v -2.258810 0.431619 -3.575903
v -2.255613 0.434056 -3.575903
v -2.221525 0.371331 -3.522161
v -2.337910 0.460037 -3.522161
v -2.258810 0.431619 -3.522161
v -2.255613 0.434056 -3.522161
v -2.516873 0.255393 -2.496994
v -2.509354 0.258047 -2.496994
v -2.570544 0.258047 -2.496994
v -2.563025 0.255393 -2.496994
v -2.509354 0.258047 -3.415440
v -2.516873 0.255393 -3.544113
v -2.563025 0.255393 -3.544113
v -2.570544 0.258047 -3.544113
v -2.509354 0.274331 -2.496994
v -2.516873 0.276984 -2.496994
v -2.563025 0.276984 -2.496994
v -2.570544 0.274331 -2.496994
v -2.509354 0.274331 -3.415440
v -2.516873 0.274331 -3.544113
v -2.516873 0.276984 -3.415440
v -2.563025 0.276984 -3.415440
v -2.570544 0.274331 -3.544113
v -2.449564 0.255393 -2.496994
v -2.442045 0.258047 -2.496994
v -2.503235 0.258047 -2.496994
v -2.495716 0.255393 -2.496994
v -2.442045 0.258047 -3.415440
v -2.449564 0.255393 -3.544113
v -2.495716 0.255393 -3.544113
v -2.503235 0.258047 -3.544113
v -2.442045 0.274331 -2.496994
v -2.449564 0.276984 -2.496994
v -2.495716 0.276984 -2.496994
v -2.503235 0.274331 -2.496994
v -2.442045 0.274331 -3.415440
v -2.449564 0.274331 -3.544113
v -2.449564 0.276984 -3.415440
v -2.495716 0.276984 -3.415440
v -2.503235 0.274331 -3.544113
v -2.382255 0.255393 -2.496994
v -2.374735 0.258047 -2.496994
v -2.435926 0.258047 -2.496994
v -2.428406 0.255393 -2.496994
v -2.374735 0.258047 -3.415440
v -2.382255 0.255393 -3.544113
v -2.428406 0.255393 -3.544113
v -2.435926 0.258047 -3.544113
v -2.374735 0.274331 -2.496994
v -2.382255 0.276984 -2.496994
v -2.428406 0.276984 -2.496994
v -2.435926 0.274331 -2.496994
v -2.374735 0.274331 -3.415440
v -2.382255 0.274331 -3.544113
v -2.382255 0.276984 -3.415440
v -2.428406 0.276984 -3.415440
v -2.435926 0.274331 -3.544113
v -2.314945 0.255393 -2.496994
v -2.307426 0.258047 -2.496994
v -2.368616 0.258047 -2.496994
v -2.361097 0.255393 -2.496994
v -2.307426 0.258047 -3.415440
v -2.314945 0.255393 -3.544113
v -2.361097 0.255393 -3.544113
v -2.368616 0.258047 -3.544113
v -2.307426 0.274331 -2.496994
v -2.314945 0.276984 -2.496994
v -2.361097 0.276984 -2.496994
v -2.368616 0.274331 -2.496994
v -2.307426 0.274331 -3.415440
v -2.314945 0.274331 -3.544113
v -2.314945 0.276984 -3.415440
v -2.361097 0.276984 -3.415440
v -2.368616 0.274331 -3.544113
vn -0.0000 -0.0000 1.0000
vn -0.9962 -0.0872 -0.0000
vn 0.0872 -0.9962 -0.0000
vn 0.9962 0.0872 -0.0000
vn -0.0000 -0.0000 -1.0000
vn -0.9713 0.2369 -0.0195
vn 0.9156 0.4021 -0.0000
vn 0.9715 -0.2370 -0.0000
vn -0.0870 0.9944 -0.0607
vn -0.9960 -0.0871 -0.0206
vn -0.9715 0.2370 -0.0000
vn -0.9156 -0.4021 -0.0000
vn -0.0872 0.9962 -0.0000
vn -1.0000 -0.0000 -0.0000
vn 1.0000 -0.0000 -0.0000
vn 0.9994 0.0342 -0.0000
vn -0.9994 0.0342 -0.0000
vn -0.0429 0.9991 -0.0000
vn 0.9998 -0.0192 -0.0000
vn -0.0434 -0.9991 -0.0000
vn -0.9997 -0.0241 -0.0000
vn -0.0218 -0.9998 -0.0000
vn 0.0218 -0.9998 -0.0000
vn 0.3011 0.9536 -0.0000
vn 0.8786 0.4775 -0.0000
vn -0.0000 1.0000 -0.0000
vn -0.0000 -1.0000 -0.0000
vn -0.0650 0.7429 -0.6663
vn -0.0861 0.9847 -0.1515
vn -0.0861 0.9847 0.1515
vn -0.0650 0.7429 0.6663
vn 0.3327 0.9428 -0.0194
vn 0.3327 -0.9430 -0.0000
vn -0.3327 -0.9430 -0.0000
vn 0.9983 -0.0000 -0.0583
vn -0.0000 0.9998 -0.0206
vn 0.3327 0.9430 -0.0000
vn -0.3327 0.9430 -0.0000
vt 0.027835 0.944890
vt 0.027940 0.944551
vt 0.028342 0.942099
vt 0.028370 0.941636
vt 0.028146 0.941192
vt 0.028043 0.941513
vt 0.027631 0.943981
vt 0.027601 0.944462
vt 0.081022 0.943353
vt 0.080498 0.940879
vt 0.087888 0.940234
vt 0.088141 0.939770
vt 0.088289 0.940091
vt 0.088961 0.942585
vt 0.088654 0.943109
vt 0.081141 0.943693
vt 0.081343 0.943247
vt 0.027216 0.948650
vt 0.027326 0.948286
vt 0.027750 0.945704
vt 0.027780 0.945224
vt 0.027545 0.944797
vt 0.027437 0.945142
vt 0.027003 0.947742
vt 0.026971 0.948241
vt 0.081820 0.947125
vt 0.081268 0.944517
vt 0.088853 0.943859
vt 0.089120 0.943413
vt 0.089277 0.943758
vt 0.089985 0.946388
vt 0.089660 0.946889
vt 0.081946 0.947490
vt 0.082160 0.947064
vt 0.026564 0.952614
vt 0.026680 0.952223
vt 0.027127 0.949501
vt 0.027158 0.949001
vt 0.026912 0.948595
vt 0.026799 0.948966
vt 0.026341 0.951708
vt 0.026307 0.952228
vt 0.082661 0.951104
vt 0.082079 0.948353
vt 0.089871 0.947680
vt 0.090153 0.947254
vt 0.090319 0.947626
vt 0.091067 0.950403
vt 0.090722 0.950878
vt 0.082795 0.951497
vt 0.083023 0.951095
vt 0.025876 0.956799
vt 0.025998 0.956378
vt 0.026470 0.953505
vt 0.026503 0.952985
vt 0.026244 0.952601
vt 0.026125 0.953000
vt 0.025641 0.955897
vt 0.025605 0.956439
vt 0.083551 0.955309
vt 0.082936 0.952401
vt 0.090944 0.951714
vt 0.091244 0.951311
vt 0.091420 0.951712
vt 0.092211 0.954650
vt 0.091844 0.955094
vt 0.083692 0.955733
vt 0.083934 0.955356
vt 0.027610 0.937453
vt 0.025973 0.945182
vt 0.029037 0.945114
vt 0.030481 0.937381
vt 0.024995 0.922127
vt 0.023430 0.928093
vt 0.022987 0.929537
vt 0.023139 0.924691
vt 0.024361 0.920363
vt 0.019460 0.924799
vt 0.020837 0.920472
vt 0.027494 0.908318
vt 0.024372 0.908427
vt 0.030106 0.926472
vt 0.032685 0.926398
vt 0.027130 0.936248
vt 0.025739 0.942617
vt 0.030047 0.936173
vt 0.032306 0.925129
vt 0.024054 0.934505
vt 0.020449 0.934598
vt 0.028017 0.910198
vt 0.021539 0.922231
vt 0.024949 0.910303
vt 0.019774 0.928196
vt 0.019275 0.929640
vt 0.029687 0.925205
vt 0.028819 0.942546
vt 0.022891 0.929520
vt 0.019168 0.929623
vt 0.028223 0.934727
vt 0.027750 0.936961
vt 0.088096 0.935444
vt 0.087370 0.933195
vt 0.094593 0.919573
vt 0.093562 0.917248
vt 0.021765 0.921782
vt 0.022473 0.919460
vt 0.030369 0.933042
vt 0.085160 0.931594
vt 0.085855 0.933856
vt 0.029929 0.935292
vt 0.089366 0.919671
vt 0.090269 0.921993
vt 0.026458 0.921580
vt 0.025861 0.923898
vt 0.027028 0.937341
vt 0.027743 0.938797
vt 0.087944 0.937321
vt 0.088733 0.935797
vt 0.085705 0.939831
vt 0.089955 0.956753
vt 0.093299 0.959293
vt 0.093914 0.959241
vt 0.023068 0.959373
vt 0.024007 0.960445
vt 0.029448 0.939723
vt 0.026741 0.956752
vt 0.023675 0.959404
vt 0.086451 0.938345
vt 0.030117 0.941148
vt 0.090918 0.955568
vt 0.027566 0.957880
vt 0.094378 0.958162
vt 0.095012 0.958108
vt 0.093354 0.958809
vt 0.092301 0.959926
vt 0.025608 0.961060
vt 0.024710 0.960001
vt 0.024598 0.960475
vt 0.023499 0.959829
vt 0.024429 0.960891
vt 0.094605 0.958590
vt 0.093516 0.959713
vt 0.085165 0.936015
vt 0.087467 0.943807
vt 0.090659 0.943735
vt 0.088148 0.935941
vt 0.094720 0.920022
vt 0.097298 0.926012
vt 0.098013 0.927460
vt 0.097475 0.922510
vt 0.095483 0.918174
vt 0.093609 0.922624
vt 0.091787 0.918287
vt 0.090331 0.906129
vt 0.087074 0.906243
vt 0.081715 0.924993
vt 0.084384 0.924917
vt 0.085633 0.934763
vt 0.087577 0.941180
vt 0.088667 0.934686
vt 0.084820 0.923601
vt 0.096860 0.932612
vt 0.093075 0.932710
vt 0.089734 0.908088
vt 0.091099 0.920131
vt 0.086536 0.908197
vt 0.093456 0.926120
vt 0.094110 0.927568
vt 0.082108 0.923680
vt 0.090787 0.941105
vt 0.098146 0.927436
vt 0.094231 0.927544
vt 0.027563 0.932142
vt 0.027638 0.932532
vt 0.028247 0.934161
vt 0.028368 0.934303
vt 0.028519 0.933589
vt 0.028447 0.933214
vt 0.027849 0.931580
vt 0.027723 0.931423
vt 0.080650 0.931120
vt 0.080153 0.932807
vt 0.087428 0.932765
vt 0.087195 0.932048
vt 0.087260 0.931662
vt 0.087905 0.929961
vt 0.088188 0.930799
vt 0.080701 0.930720
vt 0.080507 0.929997
vt 0.026623 0.929621
vt 0.026703 0.930029
vt 0.027351 0.931762
vt 0.027480 0.931919
vt 0.027641 0.931200
vt 0.027566 0.930807
vt 0.026929 0.929070
vt 0.026795 0.928896
vt 0.081413 0.928525
vt 0.080884 0.930322
vt 0.088388 0.930284
vt 0.088141 0.929561
vt 0.088210 0.929157
vt 0.088897 0.927346
vt 0.089198 0.928191
vt 0.081468 0.928105
vt 0.081263 0.927378
vt 0.025622 0.926934
vt 0.025707 0.927362
vt 0.026397 0.929209
vt 0.026535 0.929384
vt 0.026707 0.928659
vt 0.026627 0.928248
vt 0.025949 0.926396
vt 0.025806 0.926205
vt 0.082228 0.925757
vt 0.081664 0.927675
vt 0.089410 0.927641
vt 0.089149 0.926913
vt 0.089223 0.926489
vt 0.089956 0.924557
vt 0.090275 0.925407
vt 0.082287 0.925316
vt 0.082069 0.924584
vt 0.024552 0.924064
vt 0.024643 0.924514
vt 0.025380 0.926488
vt 0.025527 0.926681
vt 0.025713 0.925951
vt 0.025628 0.925520
vt 0.024903 0.923543
vt 0.024750 0.923331
vt 0.083100 0.922797
vt 0.082496 0.924848
vt 0.090502 0.924820
vt 0.090224 0.924088
vt 0.090303 0.923642
vt 0.091086 0.921577
vt 0.091427 0.922430
vt 0.083163 0.922333
vt 0.082931 0.921598
s 0
usemtl Graident
f 9/1/1 10/2/1 11/3/1 12/4/1 3/5/1 4/6/1 1/7/1 2/8/1
f 15/9/2 16/10/2 11/3/2 10/2/2
f 17/11/3 8/12/3 3/5/3 12/4/3
f 1/7/4 4/6/4 7/13/4 6/14/4
f 6/14/5 7/13/5 8/12/5 17/11/5 14/15/5
f 13/16/6 14/15/6 15/9/6
f 5/17/7 2/8/7 1/7/7 6/14/7
f 3/5/8 8/12/8 7/13/8 4/6/8
f 13/16/9 5/17/9 6/14/9 14/15/9
f 16/10/10 15/9/10 14/15/10 17/11/10
f 9/1/11 13/16/11 15/9/11 10/2/11
f 17/11/12 12/4/12 11/3/12 16/10/12
f 5/17/13 13/16/13 9/1/13 2/8/13
f 26/18/1 27/19/1 28/20/1 29/21/1 20/22/1 21/23/1 18/24/1 19/25/1
f 32/26/2 33/27/2 28/20/2 27/19/2
f 34/28/3 25/29/3 20/22/3 29/21/3
f 18/24/4 21/23/4 24/30/4 23/31/4
f 23/31/5 24/30/5 25/29/5 34/28/5 31/32/5
f 30/33/6 31/32/6 32/26/6
f 22/34/7 19/25/7 18/24/7 23/31/7
f 20/22/8 25/29/8 24/30/8 21/23/8
f 30/33/9 22/34/9 23/31/9 31/32/9
f 33/27/10 32/26/10 31/32/10 34/28/10
f 26/18/11 30/33/11 32/26/11 27/19/11
f 34/28/12 29/21/12 28/20/12 33/27/12
f 22/34/13 30/33/13 26/18/13 19/25/13
f 43/35/1 44/36/1 45/37/1 46/38/1 37/39/1 38/40/1 35/41/1 36/42/1
f 49/43/2 50/44/2 45/37/2 44/36/2
f 51/45/3 42/46/3 37/39/3 46/38/3
f 35/41/4 38/40/4 41/47/4 40/48/4
f 40/48/5 41/47/5 42/46/5 51/45/5 48/49/5
f 47/50/6 48/49/6 49/43/6
f 39/51/7 36/42/7 35/41/7 40/48/7
f 37/39/8 42/46/8 41/47/8 38/40/8
f 47/50/9 39/51/9 40/48/9 48/49/9
f 50/44/10 49/43/10 48/49/10 51/45/10
f 43/35/11 47/50/11 49/43/11 44/36/11
f 51/45/12 46/38/12 45/37/12 50/44/12
f 39/51/13 47/50/13 43/35/13 36/42/13
f 60/52/1 61/53/1 62/54/1 63/55/1 54/56/1 55/57/1 52/58/1 53/59/1
f 66/60/2 67/61/2 62/54/2 61/53/2
f 68/62/3 59/63/3 54/56/3 63/55/3
f 52/58/4 55/57/4 58/64/4 57/65/4
f 57/65/5 58/64/5 59/63/5 68/62/5 65/66/5
f 64/67/6 65/66/6 66/60/6
f 56/68/7 53/59/7 52/58/7 57/65/7
f 54/56/8 59/63/8 58/64/8 55/57/8
f 64/67/9 56/68/9 57/65/9 65/66/9
f 67/61/10 66/60/10 65/66/10 68/62/10
f 60/52/11 64/67/11 66/60/11 61/53/11
f 68/62/12 63/55/12 62/54/12 67/61/12
f 56/68/13 64/67/13 60/52/13 53/59/13
f 81/69/14 82/70/14 86/71/14 83/72/14
f 79/73/5 76/74/5 93/75/5 92/76/5 87/77/5
f 87/77/15 92/76/15 95/78/15 88/79/15
f 85/80/16 87/77/16 88/79/16 89/81/16
f 90/82/17 81/69/17 83/72/17 84/83/17
f 77/84/1 70/85/1 82/70/1 81/69/1
f 78/86/5 71/87/5 84/83/5 83/72/5
f 91/88/18 86/71/18 82/70/18 96/89/18
f 75/90/5 79/73/5 87/77/5 85/80/5
f 80/91/1 73/92/1 89/81/1 88/79/1
f 74/93/1 80/91/1 88/79/1 95/78/1 97/94/1
f 69/95/1 77/84/1 81/69/1 90/82/1
f 72/96/5 78/86/5 83/72/5 86/71/5
f 70/85/1 74/93/1 97/94/1 96/89/1 82/70/1
f 70/85/19 69/95/19 71/87/19 72/96/19
f 72/96/20 76/74/20 74/93/20 70/85/20
f 73/92/21 74/93/21 76/74/21 75/90/21
f 85/80/22 89/81/22 73/92/22 75/90/22
f 84/83/23 71/87/23 69/95/23 90/82/23
f 91/88/5 94/97/5 93/75/5
f 94/97/5 92/76/5 93/75/5
f 95/78/1 98/98/1 97/94/1
f 98/98/1 96/89/1 97/94/1
f 91/88/24 96/89/24 98/98/24 94/97/24
f 94/97/25 98/98/25 95/78/25 92/76/25
f 76/74/5 72/96/5 86/71/5 91/88/5 93/75/5
f 99/99/14 100/100/14 102/101/14 101/102/14
f 101/102/5 102/101/5 106/103/5 105/104/5
f 105/104/15 106/103/15 104/105/15 103/106/15
f 103/106/1 104/105/1 100/100/1 99/99/1
f 108/107/15 107/108/15 110/109/15 109/110/15
f 107/108/1 111/111/1 112/112/1 110/109/1
f 111/111/14 113/113/14 114/114/14 112/112/14
f 113/113/5 108/107/5 109/110/5 114/114/5
f 104/105/26 114/114/26 109/110/26 100/100/26
f 101/102/27 107/108/27 108/107/27 99/99/27
f 103/106/27 113/113/27 111/111/27 105/104/27
f 102/101/26 110/109/26 112/112/26 106/103/26
f 99/99/27 108/107/27 113/113/27 103/106/27
f 106/103/26 112/112/26 114/114/26 104/105/26
f 105/104/27 111/111/27 107/108/27 101/102/27
f 100/100/26 109/110/26 110/109/26 102/101/26
f 115/115/3 116/116/3 118/117/3 117/118/3
f 118/117/2 122/119/2 124/120/2 141/121/2 139/122/2
f 127/123/1 132/124/1 116/116/1 115/115/1
f 115/115/4 120/125/4 125/126/4 129/127/4 127/123/4
f 120/125/13 119/128/13 122/119/13 121/129/13
f 119/128/1 123/130/1 124/120/1 122/119/1
f 123/130/3 125/126/3 126/131/3 124/120/3
f 125/126/5 120/125/5 121/129/5 126/131/5
f 137/132/4 123/130/4 119/128/4 117/118/4 136/133/4
f 117/118/4 119/128/4 120/125/4 115/115/4
f 135/134/13 140/135/13 131/136/13 128/137/13
f 141/121/2 124/120/2 126/131/2 133/138/2 131/136/2 140/135/2
f 133/138/2 126/131/2 121/129/2 116/116/2 132/124/2
f 117/118/5 118/117/5 139/122/5 136/133/5
f 116/116/2 121/129/2 122/119/2 118/117/2
f 127/123/4 129/127/4 130/139/4
f 130/139/4 129/127/4 128/137/4
f 131/136/2 133/138/2 134/140/2
f 134/140/2 133/138/2 132/124/2
f 135/134/4 137/132/4 138/141/4
f 138/141/4 137/132/4 136/133/4
f 139/122/2 141/121/2 142/142/2
f 142/142/2 141/121/2 140/135/2
f 139/122/28 142/142/28 138/141/28 136/133/28
f 142/142/29 140/135/29 135/134/29 138/141/29
f 131/136/30 134/140/30 130/139/30 128/137/30
f 134/140/31 132/124/31 127/123/31 130/139/31
f 129/127/4 125/126/4 123/130/4 137/132/4 135/134/4 128/137/4
f 155/143/14 156/144/14 160/145/14 157/146/14
f 153/147/5 150/148/5 167/149/5 166/150/5 161/151/5
f 161/151/15 166/150/15 169/152/15 162/153/15
f 159/154/16 161/151/16 162/153/16 163/155/16
f 164/156/17 155/143/17 157/146/17 158/157/17
f 151/158/1 144/159/1 156/144/1 155/143/1
f 152/160/5 145/161/5 158/157/5 157/146/5
f 165/162/18 160/145/18 156/144/18 170/163/18
f 149/164/5 153/147/5 161/151/5 159/154/5
f 154/165/1 147/166/1 163/155/1 162/153/1
f 148/167/1 154/165/1 162/153/1 169/152/1 171/168/1
f 143/169/1 151/158/1 155/143/1 164/156/1
f 146/170/5 152/160/5 157/146/5 160/145/5
f 144/159/1 148/167/1 171/168/1 170/163/1 156/144/1
f 144/159/19 143/169/19 145/161/19 146/170/19
f 146/170/20 150/148/20 148/167/20 144/159/20
f 147/166/21 148/167/21 150/148/21 149/164/21
f 159/154/22 163/155/22 147/166/22 149/164/22
f 158/157/23 145/161/23 143/169/23 164/156/23
f 165/162/5 168/171/5 167/149/5
f 168/171/5 166/150/5 167/149/5
f 169/152/1 172/172/1 171/168/1
f 172/172/1 170/163/1 171/168/1
f 165/162/24 170/163/24 172/172/24 168/171/24
f 168/171/25 172/172/25 169/152/25 166/150/25
f 150/148/5 146/170/5 160/145/5 165/162/5 167/149/5
f 181/173/1 182/174/1 183/175/1 184/176/1 175/177/1 176/178/1 173/179/1 174/180/1
f 187/181/26 188/182/26 183/175/26 182/174/26
f 189/183/14 180/184/14 175/177/14 184/176/14
f 173/179/27 176/178/27 179/185/27 178/186/27
f 178/186/5 179/185/5 180/184/5 189/183/5 186/187/5
f 185/188/32 186/187/32 187/181/32
f 177/189/33 174/180/33 173/179/33 178/186/33
f 175/177/34 180/184/34 179/185/34 176/178/34
f 185/188/35 177/189/35 178/186/35 186/187/35
f 188/182/36 187/181/36 186/187/36 189/183/36
f 181/173/37 185/188/37 187/181/37 182/174/37
f 189/183/38 184/176/38 183/175/38 188/182/38
f 177/189/15 185/188/15 181/173/15 174/180/15
f 198/190/1 199/191/1 200/192/1 201/193/1 192/194/1 193/195/1 190/196/1 191/197/1
f 204/198/26 205/199/26 200/192/26 199/191/26
f 206/200/14 197/201/14 192/194/14 201/193/14
f 190/196/27 193/195/27 196/202/27 195/203/27
f 195/203/5 196/202/5 197/201/5 206/200/5 203/204/5
f 202/205/32 203/204/32 204/198/32
f 194/206/33 191/197/33 190/196/33 195/203/33
f 192/194/34 197/201/34 196/202/34 193/195/34
f 202/205/35 194/206/35 195/203/35 203/204/35
f 205/199/36 204/198/36 203/204/36 206/200/36
f 198/190/37 202/205/37 204/198/37 199/191/37
f 206/200/38 201/193/38 200/192/38 205/199/38
f 194/206/15 202/205/15 198/190/15 191/197/15
f 215/207/1 216/208/1 217/209/1 218/210/1 209/211/1 210/212/1 207/213/1 208/214/1
f 221/215/26 222/216/26 217/209/26 216/208/26
f 223/217/14 214/218/14 209/211/14 218/210/14
f 207/213/27 210/212/27 213/219/27 212/220/27
f 212/220/5 213/219/5 214/218/5 223/217/5 220/221/5
f 219/222/32 220/221/32 221/215/32
f 211/223/33 208/214/33 207/213/33 212/220/33
f 209/211/34 214/218/34 213/219/34 210/212/34
f 219/222/35 211/223/35 212/220/35 220/221/35
f 222/216/36 221/215/36 220/221/36 223/217/36
f 215/207/37 219/222/37 221/215/37 216/208/37
f 223/217/38 218/210/38 217/209/38 222/216/38
f 211/223/15 219/222/15 215/207/15 208/214/15
f 232/224/1 233/225/1 234/226/1 235/227/1 226/228/1 227/229/1 224/230/1 225/231/1
f 238/232/26 239/233/26 234/226/26 233/225/26
f 240/234/14 231/235/14 226/228/14 235/227/14
f 224/230/27 227/229/27 230/236/27 229/237/27
f 229/237/5 230/236/5 231/235/5 240/234/5 237/238/5
f 236/239/32 237/238/32 238/232/32
f 228/240/33 225/231/33 224/230/33 229/237/33
f 226/228/34 231/235/34 230/236/34 227/229/34
f 236/239/35 228/240/35 229/237/35 237/238/35
f 239/233/36 238/232/36 237/238/36 240/234/36
f 232/224/37 236/239/37 238/232/37 233/225/37
f 240/234/38 235/227/38 234/226/38 239/233/38
f 228/240/15 236/239/15 232/224/15 225/231/15
