# Blender 4.0.2
# www.blender.org
mtllib Wood Bench.mtl
o Cube.002
v -1.714571 0.434541 -2.339301
v -1.717849 0.442006 -2.339301
v -1.712372 0.379405 -2.339301
v -1.710440 0.387326 -2.339301
v -1.717849 0.442006 -3.244983
v -1.714571 0.434541 -3.371868
v -1.710440 0.387326 -3.371868
v -1.712372 0.379405 -3.371868
v -1.733838 0.440607 -2.339301
v -1.735770 0.432687 -2.339301
v -1.731639 0.385471 -2.339301
v -1.728361 0.378006 -2.339301
v -1.733838 0.440607 -3.244983
v -1.733165 0.432915 -3.371868
v -1.735770 0.432687 -3.244983
v -1.731639 0.385471 -3.244983
v -1.728361 0.378006 -3.371868
v -1.720595 0.503402 -2.339301
v -1.723873 0.510867 -2.339301
v -1.718396 0.448266 -2.339301
v -1.716464 0.456187 -2.339301
v -1.723873 0.510867 -3.244983
v -1.720595 0.503402 -3.371868
v -1.716464 0.456187 -3.371868
v -1.718396 0.448266 -3.371868
v -1.739863 0.509468 -2.339301
v -1.741795 0.501547 -2.339301
v -1.737664 0.454332 -2.339301
v -1.734386 0.446867 -2.339301
v -1.739863 0.509468 -3.244983
v -1.739190 0.501775 -3.371868
v -1.741795 0.501547 -3.244983
v -1.737664 0.454332 -3.244983
v -1.734386 0.446867 -3.371868
v -1.726620 0.572263 -2.339301
v -1.729898 0.579728 -2.339301
v -1.724421 0.517127 -2.339301
v -1.722489 0.525047 -2.339301
v -1.729898 0.579728 -3.244983
v -1.726620 0.572263 -3.371868
v -1.722489 0.525047 -3.371868
v -1.724421 0.517127 -3.371868
v -1.745887 0.578329 -2.339301
v -1.747819 0.570408 -2.339301
v -1.743688 0.523193 -2.339301
v -1.740410 0.515728 -2.339301
v -1.745887 0.578329 -3.244983
v -1.745214 0.570636 -3.371868
v -1.747819 0.570408 -3.244983
v -1.743688 0.523193 -3.244983
v -1.740410 0.515728 -3.371868
v -1.732644 0.641124 -2.339301
v -1.735922 0.648589 -2.339301
v -1.730445 0.585988 -2.339301
v -1.728513 0.593908 -2.339301
v -1.735922 0.648589 -3.244983
v -1.732644 0.641124 -3.371868
v -1.728513 0.593908 -3.371868
v -1.730445 0.585988 -3.371868
v -1.751912 0.647190 -2.339301
v -1.753844 0.639269 -2.339301
v -1.749713 0.592054 -2.339301
v -1.746435 0.584589 -2.339301
v -1.751912 0.647190 -3.244983
v -1.751239 0.639497 -3.371868
v -1.753844 0.639269 -3.244983
v -1.749713 0.592054 -3.244983
v -1.746435 0.584589 -3.371868
v -1.707960 -0.001231 -2.306950
v -1.699955 0.415766 -2.306950
v -1.707960 -0.001231 -2.359945
v -1.699955 0.415766 -2.359945
v -1.337326 -0.001231 -2.306950
v -1.346989 0.400426 -2.306950
v -1.337326 -0.001231 -2.359945
v -1.346989 0.400426 -2.359945
v -1.699955 0.280623 -2.306950
v -1.699955 0.280623 -2.359945
v -1.345331 0.280623 -2.359945
v -1.345331 0.280623 -2.306950
v -1.736730 0.280623 -2.306950
v -1.736730 0.443795 -2.306950
v -1.736730 0.280623 -2.359945
v -1.746395 -0.002070 -2.359945
v -1.298890 -0.002070 -2.359945
v -1.736730 0.443795 -2.359945
v -1.308556 0.280623 -2.359945
v -1.308556 0.280623 -2.306950
v -1.298890 -0.002070 -2.306950
v -1.746395 -0.002070 -2.306950
v -1.423324 0.457249 -2.359945
v -1.308556 0.369776 -2.359945
v -1.345323 0.429226 -2.359945
v -1.342171 0.431629 -2.359945
v -1.308556 0.369776 -2.306950
v -1.423324 0.457249 -2.306950
v -1.345323 0.429226 -2.306950
v -1.342171 0.431629 -2.306950
v -1.714476 0.235148 -2.315750
v -1.714476 0.286113 -2.315750
v -1.714476 0.235148 -3.395419
v -1.714476 0.286113 -3.395419
v -1.330809 0.235148 -2.315750
v -1.330809 0.286113 -2.315750
v -1.330809 0.235148 -3.395419
v -1.330809 0.286113 -3.395419
v -1.666904 0.235148 -3.345261
v -1.666904 0.235148 -2.365909
v -1.666904 0.286113 -2.365909
v -1.666904 0.286113 -3.345261
v -1.378381 0.235148 -3.345261
v -1.378381 0.286113 -3.345261
v -1.378381 0.235148 -2.365909
v -1.378381 0.286113 -2.365909
v -1.688970 0.313092 -2.313531
v -1.739718 0.308653 -2.313531
v -1.688970 0.313092 -3.393199
v -1.739718 0.308653 -3.393199
v -1.693288 0.362447 -3.343041
v -1.693288 0.362447 -2.363689
v -1.744036 0.358007 -2.363689
v -1.744036 0.358007 -3.343041
v -1.719476 0.661781 -3.343041
v -1.770224 0.657341 -3.343041
v -1.719476 0.661781 -2.363689
v -1.770224 0.657341 -2.363689
v -1.722925 0.701204 -2.313531
v -1.723794 0.711135 -2.340468
v -1.722980 0.701836 -2.322982
v -1.723539 0.708227 -2.321420
v -1.774542 0.706695 -2.340468
v -1.773673 0.696765 -2.313531
v -1.773728 0.697396 -2.322982
v -1.774287 0.703787 -2.321420
v -1.723794 0.711135 -3.366263
v -1.722925 0.701204 -3.393199
v -1.722980 0.701836 -3.383748
v -1.723539 0.708227 -3.385310
v -1.773673 0.696765 -3.393199
v -1.774542 0.706695 -3.366263
v -1.773728 0.697396 -3.383748
v -1.774287 0.703787 -3.385310
v -1.707960 -0.001231 -3.350220
v -1.699955 0.415766 -3.350220
v -1.707960 -0.001231 -3.403215
v -1.699955 0.415766 -3.403215
v -1.337326 -0.001231 -3.350220
v -1.346989 0.400426 -3.350220
v -1.337326 -0.001231 -3.403215
v -1.346989 0.400426 -3.403215
v -1.699955 0.280623 -3.350220
v -1.699955 0.280623 -3.403215
v -1.345331 0.280623 -3.403215
v -1.345331 0.280623 -3.350220
v -1.736730 0.280623 -3.350220
v -1.736730 0.443795 -3.350220
v -1.736730 0.280623 -3.403215
v -1.746395 -0.002070 -3.403215
v -1.298890 -0.002070 -3.403215
v -1.736730 0.443795 -3.403215
v -1.308556 0.280623 -3.403215
v -1.308556 0.280623 -3.350220
v -1.298890 -0.002070 -3.350220
v -1.746395 -0.002070 -3.350220
v -1.423324 0.457249 -3.403215
v -1.308556 0.369776 -3.403215
v -1.345323 0.429226 -3.403215
v -1.342171 0.431629 -3.403215
v -1.308556 0.369776 -3.350220
v -1.423324 0.457249 -3.350220
v -1.345323 0.429226 -3.350220
v -1.342171 0.431629 -3.350220
v -1.599800 0.255449 -2.339302
v -1.592385 0.258066 -2.339302
v -1.652725 0.258066 -2.339302
v -1.645310 0.255449 -2.339302
v -1.592385 0.258066 -3.244983
v -1.599800 0.255449 -3.371868
v -1.645310 0.255449 -3.371868
v -1.652725 0.258066 -3.371868
v -1.592385 0.274123 -2.339302
v -1.599800 0.276740 -2.339302
v -1.645310 0.276740 -2.339302
v -1.652725 0.274123 -2.339302
v -1.592385 0.274123 -3.244983
v -1.599800 0.274123 -3.371868
v -1.599800 0.276740 -3.244983
v -1.645310 0.276740 -3.244983
v -1.652725 0.274123 -3.371868
v -1.533426 0.255449 -2.339302
v -1.526011 0.258066 -2.339302
v -1.586351 0.258066 -2.339302
v -1.578936 0.255449 -2.339302
v -1.526011 0.258066 -3.244983
v -1.533426 0.255449 -3.371868
v -1.578936 0.255449 -3.371868
v -1.586351 0.258066 -3.371868
v -1.526011 0.274123 -2.339302
v -1.533426 0.276740 -2.339302
v -1.578936 0.276740 -2.339302
v -1.586351 0.274123 -2.339302
v -1.526011 0.274123 -3.244983
v -1.533426 0.274123 -3.371868
v -1.533426 0.276740 -3.244983
v -1.578936 0.276740 -3.244983
v -1.586351 0.274123 -3.371868
v -1.467052 0.255449 -2.339302
v -1.459637 0.258066 -2.339302
v -1.519977 0.258066 -2.339302
v -1.512562 0.255449 -2.339302
v -1.459637 0.258066 -3.244983
v -1.467052 0.255449 -3.371868
v -1.512562 0.255449 -3.371868
v -1.519977 0.258066 -3.371868
v -1.459637 0.274123 -2.339302
v -1.467052 0.276740 -2.339302
v -1.512562 0.276740 -2.339302
v -1.519977 0.274123 -2.339302
v -1.459637 0.274123 -3.244983
v -1.467052 0.274123 -3.371868
v -1.467052 0.276740 -3.244983
v -1.512562 0.276740 -3.244983
v -1.519977 0.274123 -3.371868
v -1.400678 0.255449 -2.339302
v -1.393263 0.258066 -2.339302
v -1.453603 0.258066 -2.339302
v -1.446189 0.255449 -2.339302
v -1.393263 0.258066 -3.244983
v -1.400678 0.255449 -3.371868
v -1.446189 0.255449 -3.371868
v -1.453603 0.258066 -3.371868
v -1.393263 0.274123 -2.339302
v -1.400678 0.276740 -2.339302
v -1.446189 0.276740 -2.339302
v -1.453603 0.274123 -2.339302
v -1.393263 0.274123 -3.244983
v -1.400678 0.274123 -3.371868
v -1.400678 0.276740 -3.244983
v -1.446189 0.276740 -3.244983
v -1.453603 0.274123 -3.371868
vn -0.0000 -0.0000 1.0000
vn -0.9962 -0.0872 -0.0000
vn 0.0872 -0.9962 -0.0000
vn 0.9962 0.0872 -0.0000
vn -0.0000 -0.0000 -1.0000
vn -0.9713 0.2369 -0.0195
vn 0.9156 0.4021 -0.0000
vn 0.9715 -0.2370 -0.0000
vn -0.0870 0.9944 -0.0607
vn -0.9960 -0.0871 -0.0206
vn -0.9715 0.2370 -0.0000
vn -0.9156 -0.4021 -0.0000
vn -0.0872 0.9962 -0.0000
vn -1.0000 -0.0000 -0.0000
vn 1.0000 -0.0000 -0.0000
vn 0.9994 0.0342 -0.0000
vn -0.9994 0.0342 -0.0000
vn -0.0429 0.9991 -0.0000
vn 0.9998 -0.0192 -0.0000
vn -0.0434 -0.9991 -0.0000
vn -0.9997 -0.0241 -0.0000
vn -0.0218 -0.9998 -0.0000
vn 0.0218 -0.9998 -0.0000
vn 0.3011 0.9536 -0.0000
vn 0.8786 0.4775 -0.0000
vn -0.0000 1.0000 -0.0000
vn -0.0000 -1.0000 -0.0000
vn -0.0650 0.7429 -0.6663
vn -0.0861 0.9847 -0.1515
vn -0.0861 0.9847 0.1515
vn -0.0650 0.7429 0.6663
vn 0.3327 0.9428 -0.0194
vn 0.3327 -0.9430 -0.0000
vn -0.3327 -0.9430 -0.0000
vn 0.9983 -0.0000 -0.0583
vn -0.0000 0.9998 -0.0206
vn 0.3327 0.9430 -0.0000
vn -0.3327 0.9430 -0.0000
vt 0.906741 0.464421
vt 0.906846 0.464082
vt 0.907248 0.461630
vt 0.907276 0.461167
vt 0.907052 0.460723
vt 0.906950 0.461044
vt 0.906537 0.463512
vt 0.906507 0.463993
vt 0.959928 0.462885
vt 0.959405 0.460410
vt 0.966794 0.459765
vt 0.967047 0.459301
vt 0.967195 0.459623
vt 0.967867 0.462116
vt 0.967560 0.462641
vt 0.960048 0.463224
vt 0.960250 0.462778
vt 0.906122 0.468181
vt 0.906233 0.467817
vt 0.906656 0.465236
vt 0.906686 0.464755
vt 0.906451 0.464329
vt 0.906343 0.464673
vt 0.905909 0.467273
vt 0.905877 0.467773
vt 0.960726 0.466656
vt 0.960174 0.464049
vt 0.967759 0.463390
vt 0.968026 0.462944
vt 0.968183 0.463290
vt 0.968892 0.465919
vt 0.968566 0.466421
vt 0.960852 0.467021
vt 0.961066 0.466596
vt 0.905470 0.472145
vt 0.905586 0.471754
vt 0.906033 0.469032
vt 0.906065 0.468533
vt 0.905818 0.468126
vt 0.905705 0.468497
vt 0.905247 0.471239
vt 0.905213 0.471759
vt 0.961568 0.470635
vt 0.960985 0.467884
vt 0.968777 0.467211
vt 0.969060 0.466785
vt 0.969225 0.467158
vt 0.969973 0.469935
vt 0.969628 0.470410
vt 0.961701 0.471029
vt 0.961929 0.470626
vt 0.904782 0.476330
vt 0.904904 0.475909
vt 0.905376 0.473036
vt 0.905409 0.472516
vt 0.905151 0.472133
vt 0.905031 0.472531
vt 0.904547 0.475429
vt 0.904511 0.475970
vt 0.962457 0.474840
vt 0.961842 0.471932
vt 0.969850 0.471245
vt 0.970151 0.470842
vt 0.970326 0.471244
vt 0.971117 0.474181
vt 0.970750 0.474625
vt 0.962598 0.475264
vt 0.962841 0.474888
vt 0.906516 0.456984
vt 0.904880 0.464713
vt 0.907943 0.464645
vt 0.909387 0.456912
vt 0.903901 0.441658
vt 0.902336 0.447624
vt 0.901893 0.449069
vt 0.902045 0.444222
vt 0.903267 0.439895
vt 0.898366 0.444330
vt 0.899743 0.440003
vt 0.906400 0.427849
vt 0.903278 0.427958
vt 0.909012 0.446004
vt 0.911591 0.445930
vt 0.906036 0.455779
vt 0.904646 0.462148
vt 0.908953 0.455705
vt 0.911212 0.444660
vt 0.902960 0.454036
vt 0.899355 0.454130
vt 0.906923 0.429729
vt 0.900445 0.441762
vt 0.903855 0.429834
vt 0.898680 0.447727
vt 0.898181 0.449172
vt 0.908594 0.444736
vt 0.907725 0.462077
vt 0.901797 0.449051
vt 0.898074 0.449155
vt 0.907129 0.454258
vt 0.906657 0.456492
vt 0.967002 0.454975
vt 0.966276 0.452727
vt 0.973499 0.439105
vt 0.972468 0.436779
vt 0.900671 0.441314
vt 0.901379 0.438991
vt 0.909275 0.452574
vt 0.964066 0.451125
vt 0.964762 0.453387
vt 0.908836 0.454824
vt 0.968272 0.439202
vt 0.969175 0.441524
vt 0.905365 0.441111
vt 0.904768 0.443429
vt 0.905934 0.456872
vt 0.906649 0.458328
vt 0.966850 0.456852
vt 0.967639 0.455329
vt 0.964612 0.459362
vt 0.968861 0.476285
vt 0.972206 0.478825
vt 0.972821 0.478772
vt 0.901974 0.478904
vt 0.902913 0.479976
vt 0.908355 0.459255
vt 0.905648 0.476284
vt 0.902581 0.478935
vt 0.965357 0.457876
vt 0.909024 0.460679
vt 0.969824 0.475100
vt 0.906472 0.477411
vt 0.973285 0.477693
vt 0.973918 0.477639
vt 0.972261 0.478341
vt 0.971207 0.479458
vt 0.904514 0.480591
vt 0.903616 0.479532
vt 0.903504 0.480006
vt 0.902405 0.479361
vt 0.903335 0.480422
vt 0.973511 0.478122
vt 0.972422 0.479244
vt 0.964071 0.455547
vt 0.966373 0.463338
vt 0.969565 0.463266
vt 0.967055 0.455472
vt 0.973626 0.439553
vt 0.976204 0.445543
vt 0.976920 0.446991
vt 0.976381 0.442042
vt 0.974389 0.437705
vt 0.972515 0.442155
vt 0.970693 0.437819
vt 0.969237 0.425661
vt 0.965980 0.425774
vt 0.960621 0.444524
vt 0.963290 0.444448
vt 0.964539 0.454294
vt 0.966483 0.460711
vt 0.967573 0.454217
vt 0.963726 0.443132
vt 0.975766 0.452143
vt 0.971982 0.452241
vt 0.968640 0.427619
vt 0.970005 0.439663
vt 0.965443 0.427729
vt 0.972363 0.445651
vt 0.973017 0.447099
vt 0.961014 0.443211
vt 0.969694 0.460637
vt 0.977052 0.446967
vt 0.973137 0.447075
vt 0.906469 0.451673
vt 0.906544 0.452063
vt 0.907153 0.453692
vt 0.907274 0.453834
vt 0.907425 0.453121
vt 0.907354 0.452745
vt 0.906755 0.451111
vt 0.906629 0.450954
vt 0.959556 0.450651
vt 0.959059 0.452338
vt 0.966334 0.452296
vt 0.966101 0.451579
vt 0.966166 0.451193
vt 0.966811 0.449492
vt 0.967095 0.450331
vt 0.959607 0.450251
vt 0.959413 0.449529
vt 0.905529 0.449152
vt 0.905609 0.449561
vt 0.906257 0.451293
vt 0.906386 0.451451
vt 0.906547 0.450731
vt 0.906472 0.450339
vt 0.905835 0.448601
vt 0.905701 0.448428
vt 0.960320 0.448057
vt 0.959791 0.449853
vt 0.967294 0.449816
vt 0.967047 0.449092
vt 0.967117 0.448688
vt 0.967804 0.446877
vt 0.968104 0.447722
vt 0.960374 0.447637
vt 0.960169 0.446909
vt 0.904528 0.446465
vt 0.904613 0.446894
vt 0.905303 0.448741
vt 0.905441 0.448915
vt 0.905613 0.448190
vt 0.905534 0.447779
vt 0.904855 0.445927
vt 0.904712 0.445736
vt 0.961135 0.445288
vt 0.960570 0.447206
vt 0.968317 0.447173
vt 0.968055 0.446445
vt 0.968129 0.446020
vt 0.968862 0.444089
vt 0.969181 0.444938
vt 0.961193 0.444847
vt 0.960975 0.444116
vt 0.903458 0.443595
vt 0.903549 0.444046
vt 0.904286 0.446019
vt 0.904434 0.446212
vt 0.904619 0.445482
vt 0.904534 0.445051
vt 0.903810 0.443074
vt 0.903656 0.442862
vt 0.962006 0.442328
vt 0.961402 0.444379
vt 0.969408 0.444351
vt 0.969130 0.443619
vt 0.969209 0.443173
vt 0.969993 0.441108
vt 0.970333 0.441962
vt 0.962069 0.441864
vt 0.961837 0.441130
s 0
usemtl Graident
f 9/1/1 10/2/1 11/3/1 12/4/1 3/5/1 4/6/1 1/7/1 2/8/1
f 15/9/2 16/10/2 11/3/2 10/2/2
f 17/11/3 8/12/3 3/5/3 12/4/3
f 1/7/4 4/6/4 7/13/4 6/14/4
f 6/14/5 7/13/5 8/12/5 17/11/5 14/15/5
f 13/16/6 14/15/6 15/9/6
f 5/17/7 2/8/7 1/7/7 6/14/7
f 3/5/8 8/12/8 7/13/8 4/6/8
f 13/16/9 5/17/9 6/14/9 14/15/9
f 16/10/10 15/9/10 14/15/10 17/11/10
f 9/1/11 13/16/11 15/9/11 10/2/11
f 17/11/12 12/4/12 11/3/12 16/10/12
f 5/17/13 13/16/13 9/1/13 2/8/13
f 26/18/1 27/19/1 28/20/1 29/21/1 20/22/1 21/23/1 18/24/1 19/25/1
f 32/26/2 33/27/2 28/20/2 27/19/2
f 34/28/3 25/29/3 20/22/3 29/21/3
f 18/24/4 21/23/4 24/30/4 23/31/4
f 23/31/5 24/30/5 25/29/5 34/28/5 31/32/5
f 30/33/6 31/32/6 32/26/6
f 22/34/7 19/25/7 18/24/7 23/31/7
f 20/22/8 25/29/8 24/30/8 21/23/8
f 30/33/9 22/34/9 23/31/9 31/32/9
f 33/27/10 32/26/10 31/32/10 34/28/10
f 26/18/11 30/33/11 32/26/11 27/19/11
f 34/28/12 29/21/12 28/20/12 33/27/12
f 22/34/13 30/33/13 26/18/13 19/25/13
f 43/35/1 44/36/1 45/37/1 46/38/1 37/39/1 38/40/1 35/41/1 36/42/1
f 49/43/2 50/44/2 45/37/2 44/36/2
f 51/45/3 42/46/3 37/39/3 46/38/3
f 35/41/4 38/40/4 41/47/4 40/48/4
f 40/48/5 41/47/5 42/46/5 51/45/5 48/49/5
f 47/50/6 48/49/6 49/43/6
f 39/51/7 36/42/7 35/41/7 40/48/7
f 37/39/8 42/46/8 41/47/8 38/40/8
f 47/50/9 39/51/9 40/48/9 48/49/9
f 50/44/10 49/43/10 48/49/10 51/45/10
f 43/35/11 47/50/11 49/43/11 44/36/11
f 51/45/12 46/38/12 45/37/12 50/44/12
f 39/51/13 47/50/13 43/35/13 36/42/13
f 60/52/1 61/53/1 62/54/1 63/55/1 54/56/1 55/57/1 52/58/1 53/59/1
f 66/60/2 67/61/2 62/54/2 61/53/2
f 68/62/3 59/63/3 54/56/3 63/55/3
f 52/58/4 55/57/4 58/64/4 57/65/4
f 57/65/5 58/64/5 59/63/5 68/62/5 65/66/5
f 64/67/6 65/66/6 66/60/6
f 56/68/7 53/59/7 52/58/7 57/65/7
f 54/56/8 59/63/8 58/64/8 55/57/8
f 64/67/9 56/68/9 57/65/9 65/66/9
f 67/61/10 66/60/10 65/66/10 68/62/10
f 60/52/11 64/67/11 66/60/11 61/53/11
f 68/62/12 63/55/12 62/54/12 67/61/12
f 56/68/13 64/67/13 60/52/13 53/59/13
f 81/69/14 82/70/14 86/71/14 83/72/14
f 79/73/5 76/74/5 93/75/5 92/76/5 87/77/5
f 87/77/15 92/76/15 95/78/15 88/79/15
f 85/80/16 87/77/16 88/79/16 89/81/16
f 90/82/17 81/69/17 83/72/17 84/83/17
f 77/84/1 70/85/1 82/70/1 81/69/1
f 78/86/5 71/87/5 84/83/5 83/72/5
f 91/88/18 86/71/18 82/70/18 96/89/18
f 75/90/5 79/73/5 87/77/5 85/80/5
f 80/91/1 73/92/1 89/81/1 88/79/1
f 74/93/1 80/91/1 88/79/1 95/78/1 97/94/1
f 69/95/1 77/84/1 81/69/1 90/82/1
f 72/96/5 78/86/5 83/72/5 86/71/5
f 70/85/1 74/93/1 97/94/1 96/89/1 82/70/1
f 70/85/19 69/95/19 71/87/19 72/96/19
f 72/96/20 76/74/20 74/93/20 70/85/20
f 73/92/21 74/93/21 76/74/21 75/90/21
f 85/80/22 89/81/22 73/92/22 75/90/22
f 84/83/23 71/87/23 69/95/23 90/82/23
f 91/88/5 94/97/5 93/75/5
f 94/97/5 92/76/5 93/75/5
f 95/78/1 98/98/1 97/94/1
f 98/98/1 96/89/1 97/94/1
f 91/88/24 96/89/24 98/98/24 94/97/24
f 94/97/25 98/98/25 95/78/25 92/76/25
f 76/74/5 72/96/5 86/71/5 91/88/5 93/75/5
f 99/99/14 100/100/14 102/101/14 101/102/14
f 101/102/5 102/101/5 106/103/5 105/104/5
f 105/104/15 106/103/15 104/105/15 103/106/15
f 103/106/1 104/105/1 100/100/1 99/99/1
f 108/107/15 107/108/15 110/109/15 109/110/15
f 107/108/1 111/111/1 112/112/1 110/109/1
f 111/111/14 113/113/14 114/114/14 112/112/14
f 113/113/5 108/107/5 109/110/5 114/114/5
f 104/105/26 114/114/26 109/110/26 100/100/26
f 101/102/27 107/108/27 108/107/27 99/99/27
f 103/106/27 113/113/27 111/111/27 105/104/27
f 102/101/26 110/109/26 112/112/26 106/103/26
f 99/99/27 108/107/27 113/113/27 103/106/27
f 106/103/26 112/112/26 114/114/26 104/105/26
f 105/104/27 111/111/27 107/108/27 101/102/27
f 100/100/26 109/110/26 110/109/26 102/101/26
f 115/115/3 116/116/3 118/117/3 117/118/3
f 118/117/2 122/119/2 124/120/2 141/121/2 139/122/2
f 127/123/1 132/124/1 116/116/1 115/115/1
f 115/115/4 120/125/4 125/126/4 129/127/4 127/123/4
f 120/125/13 119/128/13 122/119/13 121/129/13
f 119/128/1 123/130/1 124/120/1 122/119/1
f 123/130/3 125/126/3 126/131/3 124/120/3
f 125/126/5 120/125/5 121/129/5 126/131/5
f 137/132/4 123/130/4 119/128/4 117/118/4 136/133/4
f 117/118/4 119/128/4 120/125/4 115/115/4
f 135/134/13 140/135/13 131/136/13 128/137/13
f 141/121/2 124/120/2 126/131/2 133/138/2 131/136/2 140/135/2
f 133/138/2 126/131/2 121/129/2 116/116/2 132/124/2
f 117/118/5 118/117/5 139/122/5 136/133/5
f 116/116/2 121/129/2 122/119/2 118/117/2
f 127/123/4 129/127/4 130/139/4
f 130/139/4 129/127/4 128/137/4
f 131/136/2 133/138/2 134/140/2
f 134/140/2 133/138/2 132/124/2
f 135/134/4 137/132/4 138/141/4
f 138/141/4 137/132/4 136/133/4
f 139/122/2 141/121/2 142/142/2
f 142/142/2 141/121/2 140/135/2
f 139/122/28 142/142/28 138/141/28 136/133/28
f 142/142/29 140/135/29 135/134/29 138/141/29
f 131/136/30 134/140/30 130/139/30 128/137/30
f 134/140/31 132/124/31 127/123/31 130/139/31
f 129/127/4 125/126/4 123/130/4 137/132/4 135/134/4 128/137/4
f 155/143/14 156/144/14 160/145/14 157/146/14
f 153/147/5 150/148/5 167/149/5 166/150/5 161/151/5
f 161/151/15 166/150/15 169/152/15 162/153/15
f 159/154/16 161/151/16 162/153/16 163/155/16
f 164/156/17 155/143/17 157/146/17 158/157/17
f 151/158/1 144/159/1 156/144/1 155/143/1
f 152/160/5 145/161/5 158/157/5 157/146/5
f 165/162/18 160/145/18 156/144/18 170/163/18
f 149/164/5 153/147/5 161/151/5 159/154/5
f 154/165/1 147/166/1 163/155/1 162/153/1
f 148/167/1 154/165/1 162/153/1 169/152/1 171/168/1
f 143/169/1 151/158/1 155/143/1 164/156/1
f 146/170/5 152/160/5 157/146/5 160/145/5
f 144/159/1 148/167/1 171/168/1 170/163/1 156/144/1
f 144/159/19 143/169/19 145/161/19 146/170/19
f 146/170/20 150/148/20 148/167/20 144/159/20
f 147/166/21 148/167/21 150/148/21 149/164/21
f 159/154/22 163/155/22 147/166/22 149/164/22
f 158/157/23 145/161/23 143/169/23 164/156/23
f 165/162/5 168/171/5 167/149/5
f 168/171/5 166/150/5 167/149/5
f 169/152/1 172/172/1 171/168/1
f 172/172/1 170/163/1 171/168/1
f 165/162/24 170/163/24 172/172/24 168/171/24
f 168/171/25 172/172/25 169/152/25 166/150/25
f 150/148/5 146/170/5 160/145/5 165/162/5 167/149/5
f 181/173/1 182/174/1 183/175/1 184/176/1 175/177/1 176/178/1 173/179/1 174/180/1
f 187/181/26 188/182/26 183/175/26 182/174/26
f 189/183/14 180/184/14 175/177/14 184/176/14
f 173/179/27 176/178/27 179/185/27 178/186/27
f 178/186/5 179/185/5 180/184/5 189/183/5 186/187/5
f 185/188/32 186/187/32 187/181/32
f 177/189/33 174/180/33 173/179/33 178/186/33
f 175/177/34 180/184/34 179/185/34 176/178/34
f 185/188/35 177/189/35 178/186/35 186/187/35
f 188/182/36 187/181/36 186/187/36 189/183/36
f 181/173/37 185/188/37 187/181/37 182/174/37
f 189/183/38 184/176/38 183/175/38 188/182/38
f 177/189/15 185/188/15 181/173/15 174/180/15
f 198/190/1 199/191/1 200/192/1 201/193/1 192/194/1 193/195/1 190/196/1 191/197/1
f 204/198/26 205/199/26 200/192/26 199/191/26
f 206/200/14 197/201/14 192/194/14 201/193/14
f 190/196/27 193/195/27 196/202/27 195/203/27
f 195/203/5 196/202/5 197/201/5 206/200/5 203/204/5
f 202/205/32 203/204/32 204/198/32
f 194/206/33 191/197/33 190/196/33 195/203/33
f 192/194/34 197/201/34 196/202/34 193/195/34
f 202/205/35 194/206/35 195/203/35 203/204/35
f 205/199/36 204/198/36 203/204/36 206/200/36
f 198/190/37 202/205/37 204/198/37 199/191/37
f 206/200/38 201/193/38 200/192/38 205/199/38
f 194/206/15 202/205/15 198/190/15 191/197/15
f 215/207/1 216/208/1 217/209/1 218/210/1 209/211/1 210/212/1 207/213/1 208/214/1
f 221/215/26 222/216/26 217/209/26 216/208/26
f 223/217/14 214/218/14 209/211/14 218/210/14
f 207/213/27 210/212/27 213/219/27 212/220/27
f 212/220/5 213/219/5 214/218/5 223/217/5 220/221/5
f 219/222/32 220/221/32 221/215/32
f 211/223/33 208/214/33 207/213/33 212/220/33
f 209/211/34 214/218/34 213/219/34 210/212/34
f 219/222/35 211/223/35 212/220/35 220/221/35
f 222/216/36 221/215/36 220/221/36 223/217/36
f 215/207/37 219/222/37 221/215/37 216/208/37
f 223/217/38 218/210/38 217/209/38 222/216/38
f 211/223/15 219/222/15 215/207/15 208/214/15
f 232/224/1 233/225/1 234/226/1 235/227/1 226/228/1 227/229/1 224/230/1 225/231/1
f 238/232/26 239/233/26 234/226/26 233/225/26
f 240/234/14 231/235/14 226/228/14 235/227/14
f 224/230/27 227/229/27 230/236/27 229/237/27
f 229/237/5 230/236/5 231/235/5 240/234/5 237/238/5
f 236/239/32 237/238/32 238/232/32
f 228/240/33 225/231/33 224/230/33 229/237/33
f 226/228/34 231/235/34 230/236/34 227/229/34
f 236/239/35 228/240/35 229/237/35 237/238/35
f 239/233/36 238/232/36 237/238/36 240/234/36
f 232/224/37 236/239/37 238/232/37 233/225/37
f 240/234/38 235/227/38 234/226/38 239/233/38
f 228/240/15 236/239/15 232/224/15 225/231/15
