# Blender 4.0.2
# www.blender.org
mtllib B-Umbrella.mtl
o Umbrella_Pole.002
v -1.204514 1.586645 -2.513788
v -1.207309 1.586645 -2.521845
v -1.197517 1.586645 -2.508913
v -1.188991 1.586645 -2.509081
v -1.182192 1.586645 -2.514229
v -1.179717 1.586645 -2.522390
v -1.182512 1.586645 -2.530447
v -1.189509 1.586645 -2.535322
v -1.198035 1.586645 -2.535154
v -1.204834 1.586645 -2.530006
v -1.204514 0.878638 -2.513788
v -1.207309 0.878638 -2.521845
v -1.198035 0.878638 -2.535154
v -1.189509 0.878638 -2.535322
v -1.179717 0.878638 -2.522390
v -1.182192 0.878638 -2.514229
v -1.197517 0.878638 -2.508913
v -1.204834 0.878638 -2.530006
v -1.182512 0.878638 -2.530447
v -1.188991 0.878638 -2.509081
v -1.205577 0.809872 -2.512983
v -1.208642 0.809872 -2.521819
v -1.197904 0.809872 -2.507636
v -1.188554 0.809872 -2.507821
v -1.181098 0.809872 -2.513466
v -1.178384 0.809872 -2.522416
v -1.181449 0.809872 -2.531252
v -1.189122 0.809872 -2.536598
v -1.198472 0.809872 -2.536414
v -1.205928 0.809872 -2.530768
v -1.209051 0.878638 -2.521811
v -1.189003 0.878638 -2.536990
v -1.180762 0.878638 -2.513232
v -1.205904 0.878638 -2.512736
v -1.198606 0.878638 -2.536800
v -1.177975 0.878638 -2.522424
v -1.198023 0.878638 -2.507245
v -1.206264 0.878638 -2.531002
v -1.181123 0.878638 -2.531499
v -1.188420 0.878638 -2.507434
v -1.259866 0.744502 -2.471878
v -1.276724 0.744502 -2.520474
v -1.217664 0.744502 -2.442471
v -1.166237 0.744502 -2.443487
v -1.125228 0.744502 -2.474536
v -1.110302 0.744502 -2.523761
v -1.127160 0.744502 -2.572357
v -1.169362 0.744502 -2.601764
v -1.220789 0.744502 -2.600748
v -1.261798 0.744502 -2.569698
vn -0.0000 1.0000 -0.0000
vn -0.9448 -0.0000 0.3277
vn -0.0197 -0.0000 -0.9998
vn 0.9570 -0.0000 0.2902
vn -0.5717 -0.0000 0.8205
vn -0.6036 -0.0000 -0.7973
vn 0.9448 -0.0000 -0.3277
vn 0.0197 -0.0000 0.9998
vn -0.9570 -0.0000 -0.2902
vn 0.5717 -0.0000 -0.8205
vn 0.6036 -0.0000 0.7973
vn 0.0140 0.7038 0.7103
vn 0.6036 -0.0057 0.7972
vn 0.5717 -0.0057 -0.8205
vn -0.9570 -0.0057 -0.2902
vn 0.0197 -0.0057 0.9998
vn 0.9448 -0.0057 -0.3277
vn -0.6036 -0.0057 -0.7972
vn -0.5717 -0.0057 0.8205
vn 0.9570 -0.0057 0.2902
vn -0.0197 -0.0057 -0.9998
vn -0.9448 -0.0057 0.3277
vn -0.0000 -1.0000 -0.0000
vn -0.6798 0.7038 -0.2061
vn 0.4061 0.7038 -0.5829
vn 0.4288 0.7038 0.5664
vn -0.6712 0.7038 0.2328
vn -0.0140 0.7038 -0.7103
vn 0.6798 0.7038 0.2061
vn -0.4061 0.7038 0.5829
vn -0.4288 0.7038 -0.5664
vn 0.6712 0.7038 -0.2328
vt 0.445606 0.974199
vt 0.446322 0.974199
vt 0.446765 0.974199
vt 0.444890 0.974199
vt 0.444447 0.974199
vt 0.445606 0.913972
vt 0.446322 0.913972
vt 0.444447 0.913972
vt 0.446765 0.913972
vt 0.444890 0.913972
vt 0.815508 0.991770
vt 0.817321 0.991770
vt 0.819134 0.991770
vt 0.819363 0.991770
vt 0.815279 0.991770
vt 0.814017 0.991770
vt 0.820625 0.991770
vt 0.820254 0.991770
vt 0.814387 0.991770
vt 0.444301 0.913972
vt 0.444800 0.913972
vt 0.814104 0.959319
vt 0.815333 0.959319
vt 0.819309 0.959319
vt 0.820538 0.959319
vt 0.817321 0.959319
vt 0.445606 0.901152
vt 0.444821 0.901152
vt 0.444335 0.901152
vt 0.446392 0.901152
vt 0.446877 0.901152
s 0
usemtl Gradient_Colour
f 2/1/1 1/2/1 3/3/1 4/3/1 5/2/1 6/1/1 7/4/1 8/5/1 9/5/1 10/4/1
f 12/6/2 11/7/2 1/2/2 2/1/2
f 14/8/3 13/8/3 9/5/3 8/5/3
f 16/7/4 15/6/4 6/1/4 5/2/4
f 11/7/5 17/9/5 3/3/5 1/2/5
f 13/8/6 18/10/6 10/4/6 9/5/6
f 15/6/7 19/10/7 7/4/7 6/1/7
f 17/9/8 20/9/8 4/3/8 3/3/8
f 18/10/9 12/6/9 2/1/9 10/4/9
f 19/10/10 14/8/10 8/5/10 7/4/10
f 20/9/11 16/7/11 5/2/11 4/3/11
f 11/11/1 12/12/1 18/13/1 38/14/1 31/12/1 34/15/1 37/16/1 40/16/1 33/15/1 36/12/1 39/14/1 32/17/1 35/17/1 13/18/1 14/18/1 19/13/1 15/12/1 16/11/1 20/19/1 17/19/1
f 18/10/1 13/8/1 35/20/1 38/21/1
f 24/22/12 23/22/12 43/22/12 44/22/12
f 24/22/13 25/23/13 33/15/13 40/16/13
f 27/24/14 28/25/14 32/17/14 39/14/14
f 30/24/15 22/26/15 31/12/15 38/14/15
f 23/22/16 24/22/16 40/16/16 37/16/16
f 26/26/17 27/24/17 39/14/17 36/12/17
f 29/25/18 30/24/18 38/14/18 35/17/18
f 21/23/19 23/22/19 37/16/19 34/15/19
f 25/23/20 26/26/20 36/12/20 33/15/20
f 28/25/21 29/25/21 35/17/21 32/17/21
f 22/26/22 21/23/22 34/15/22 31/12/22
f 42/27/23 50/28/23 49/29/23 48/29/23 47/28/23 46/27/23 45/30/23 44/31/23 43/31/23 41/30/23
f 22/26/24 30/24/24 50/24/24 42/26/24
f 28/25/25 27/24/25 47/24/25 48/25/25
f 25/23/26 24/22/26 44/22/26 45/23/26
f 21/23/27 22/26/27 42/26/27 41/23/27
f 29/25/28 28/25/28 48/25/28 49/25/28
f 26/26/29 25/23/29 45/23/29 46/26/29
f 23/22/30 21/23/30 41/23/30 43/22/30
f 30/24/31 29/25/31 49/25/31 50/24/31
f 27/24/32 26/26/32 46/26/32 47/24/32
o Umbrella_TopB
v -1.720140 1.270171 -2.515336
v -1.625890 1.270171 -2.826159
v -1.366942 1.270171 -3.022222
v -1.042207 1.270171 -3.028634
v -0.775721 1.270171 -2.842947
v -0.669274 1.270171 -2.536086
v -0.763524 1.270171 -2.225263
v -1.022472 1.270171 -2.029201
v -1.347207 1.270171 -2.022788
v -1.613693 1.270171 -2.208475
v -1.194707 1.598294 -2.525711
v -1.706041 1.267970 -2.515614
v -1.614320 1.267970 -2.818097
v -1.362321 1.267970 -3.008899
v -1.046299 1.267970 -3.015139
v -0.786964 1.267970 -2.834435
v -0.683373 1.267970 -2.535808
v -0.775094 1.267970 -2.233325
v -1.027093 1.267970 -2.042523
v -1.343115 1.267970 -2.036283
v -1.602450 1.267970 -2.216988
v -1.194707 1.593372 -2.525711
vn -0.5252 0.8360 -0.1593
vn -0.3313 0.8360 -0.4375
vn -0.0108 0.8360 -0.5487
vn 0.3137 0.8360 -0.4503
vn 0.5185 0.8360 -0.1799
vn 0.5252 0.8360 0.1593
vn 0.3313 0.8360 0.4375
vn 0.0108 0.8360 0.5487
vn -0.3137 0.8360 0.4503
vn -0.5185 0.8360 0.1799
vn 0.5321 -0.8312 0.1614
vn 0.3356 -0.8312 0.4433
vn 0.0110 -0.8312 0.5559
vn -0.3179 -0.8312 0.4562
vn -0.5253 -0.8312 0.1822
vn -0.5321 -0.8312 -0.1614
vn -0.3356 -0.8312 -0.4433
vn -0.0110 -0.8312 -0.5559
vn 0.3179 -0.8312 -0.4562
vn 0.5253 -0.8312 -0.1822
vn -0.1550 -0.9868 -0.0470
vn -0.0978 -0.9868 -0.1291
vn -0.0032 -0.9868 -0.1619
vn 0.0926 -0.9868 -0.1329
vn 0.1530 -0.9868 -0.0531
vn 0.1550 -0.9868 0.0470
vn 0.0978 -0.9868 0.1291
vn 0.0032 -0.9868 0.1619
vn -0.0926 -0.9868 0.1329
vn -0.1530 -0.9868 0.0531
vt 0.062279 0.984397
vt 0.062279 0.962927
vt 0.074898 0.980297
vt 0.452977 0.845371
vt 0.444990 0.834377
vt 0.457914 0.838576
vt 0.082698 0.969562
vt 0.082698 0.956293
vt 0.457914 0.830178
vt 0.452977 0.823384
vt 0.074898 0.945558
vt 0.062279 0.941458
vt 0.444990 0.820788
vt 0.437003 0.823384
vt 0.049659 0.945558
vt 0.041860 0.956293
vt 0.432066 0.830178
vt 0.432066 0.838576
vt 0.041860 0.969562
vt 0.049659 0.980297
vt 0.437003 0.845371
vt 0.444990 0.847966
vt 0.062279 0.983821
vt 0.074560 0.979831
vt 0.452763 0.845076
vt 0.457567 0.838464
vt 0.082150 0.969384
vt 0.082150 0.956471
vt 0.457567 0.830291
vt 0.452763 0.823679
vt 0.074560 0.946024
vt 0.062279 0.942034
vt 0.444990 0.821153
vt 0.437217 0.823679
vt 0.049998 0.946024
vt 0.042408 0.956471
vt 0.432413 0.830291
vt 0.432413 0.838464
vt 0.042408 0.969384
vt 0.049998 0.979831
vt 0.437217 0.845076
vt 0.444990 0.847602
vt 0.478254 0.324164
vt 0.478254 0.175836
s 0
usemtl Gradient_Colour
f 51/32/33 61/33/33 52/34/33
f 52/35/34 61/36/34 53/37/34
f 53/38/35 61/33/35 54/39/35
f 54/40/36 61/36/36 55/41/36
f 55/42/37 61/33/37 56/43/37
f 56/44/38 61/36/38 57/45/38
f 57/46/39 61/33/39 58/47/39
f 58/48/40 61/36/40 59/49/40
f 59/50/41 61/33/41 60/51/41
f 60/52/42 61/36/42 51/53/42
f 62/54/43 63/55/43 72/33/43
f 63/56/44 64/57/44 72/36/44
f 64/58/45 65/59/45 72/33/45
f 65/60/46 66/61/46 72/36/46
f 66/62/47 67/63/47 72/33/47
f 67/64/48 68/65/48 72/36/48
f 68/66/49 69/67/49 72/33/49
f 69/68/50 70/69/50 72/36/50
f 70/70/51 71/71/51 72/33/51
f 71/72/52 62/73/52 72/36/52
f 51/32/53 52/34/53 63/55/53 62/54/53
f 52/35/54 53/37/54 64/57/54 63/56/54
f 53/74/55 54/75/55 65/75/55 64/74/55
f 54/40/56 55/41/56 66/61/56 65/60/56
f 55/42/57 56/43/57 67/63/57 66/62/57
f 56/44/58 57/45/58 68/65/58 67/64/58
f 57/46/59 58/47/59 69/67/59 68/66/59
f 58/48/60 59/49/60 70/69/60 69/68/60
f 59/50/61 60/51/61 71/71/61 70/70/61
f 60/52/62 51/53/62 62/73/62 71/72/62
