# Blender 4.0.2
# www.blender.org
mtllib P-Umbrella.mtl
o Umbrella_Pole
v 1.054252 1.586645 -2.558390
v 1.051457 1.586645 -2.566447
v 1.061249 1.586645 -2.553515
v 1.069775 1.586645 -2.553683
v 1.076574 1.586645 -2.558831
v 1.079048 1.586645 -2.566992
v 1.076254 1.586645 -2.575049
v 1.069257 1.586645 -2.579924
v 1.060731 1.586645 -2.579756
v 1.053932 1.586645 -2.574608
v 1.054252 0.878638 -2.558390
v 1.051457 0.878638 -2.566447
v 1.060731 0.878638 -2.579756
v 1.069257 0.878638 -2.579924
v 1.079048 0.878638 -2.566992
v 1.076574 0.878638 -2.558831
v 1.061249 0.878638 -2.553515
v 1.053932 0.878638 -2.574608
v 1.076254 0.878638 -2.575049
v 1.069775 0.878638 -2.553683
v 1.053189 0.809872 -2.557585
v 1.050123 0.809872 -2.566421
v 1.060862 0.809872 -2.552238
v 1.070212 0.809872 -2.552423
v 1.077668 0.809872 -2.558069
v 1.080382 0.809872 -2.567018
v 1.077317 0.809872 -2.575854
v 1.069644 0.809872 -2.581201
v 1.060293 0.809872 -2.581016
v 1.052837 0.809872 -2.575371
v 1.049714 0.878638 -2.566413
v 1.069763 0.878638 -2.581592
v 1.078004 0.878638 -2.557835
v 1.052862 0.878638 -2.557338
v 1.060159 0.878638 -2.581403
v 1.080791 0.878638 -2.567026
v 1.060743 0.878638 -2.551847
v 1.052502 0.878638 -2.575604
v 1.077643 0.878638 -2.576101
v 1.070346 0.878638 -2.552037
v 0.998900 0.744502 -2.516481
v 0.982042 0.744502 -2.565077
v 1.041102 0.744502 -2.487074
v 1.092529 0.744502 -2.488090
v 1.133538 0.744502 -2.519140
v 1.148464 0.744502 -2.568363
v 1.131607 0.744502 -2.616960
v 1.089404 0.744502 -2.646367
v 1.037977 0.744502 -2.645351
v 0.996968 0.744502 -2.614301
vn -0.0000 1.0000 -0.0000
vn -0.9448 -0.0000 0.3277
vn -0.0197 -0.0000 -0.9998
vn 0.9570 -0.0000 0.2902
vn -0.5717 -0.0000 0.8205
vn -0.6036 -0.0000 -0.7973
vn 0.9448 -0.0000 -0.3277
vn 0.0197 -0.0000 0.9998
vn -0.9570 -0.0000 -0.2902
vn 0.5717 -0.0000 -0.8205
vn 0.6036 -0.0000 0.7973
vn -0.0140 0.7038 -0.7103
vn 0.6036 -0.0057 0.7972
vn 0.5717 -0.0057 -0.8205
vn -0.9570 -0.0057 -0.2902
vn 0.0197 -0.0057 0.9998
vn 0.9448 -0.0057 -0.3277
vn -0.6036 -0.0057 -0.7972
vn -0.5717 -0.0057 0.8205
vn 0.9570 -0.0057 0.2902
vn -0.0197 -0.0057 -0.9998
vn -0.9448 -0.0057 0.3277
vn -0.0000 -1.0000 -0.0000
vn 0.6798 0.7038 0.2061
vn -0.4061 0.7038 0.5829
vn -0.4288 0.7038 -0.5664
vn 0.6712 0.7038 -0.2328
vn 0.0140 0.7038 0.7103
vn -0.6798 0.7038 -0.2061
vn 0.4061 0.7038 -0.5829
vn 0.4288 0.7038 0.5664
vn -0.6712 0.7038 0.2328
vt 0.445606 0.974199
vt 0.446322 0.974199
vt 0.446765 0.974199
vt 0.444890 0.974199
vt 0.444447 0.974199
vt 0.445606 0.913972
vt 0.446322 0.913972
vt 0.444447 0.913972
vt 0.446765 0.913972
vt 0.444890 0.913972
vt 0.815508 0.991770
vt 0.817321 0.991770
vt 0.819134 0.991770
vt 0.819363 0.991770
vt 0.815279 0.991770
vt 0.814017 0.991770
vt 0.820625 0.991770
vt 0.820254 0.991770
vt 0.814387 0.991770
vt 0.444301 0.913972
vt 0.444800 0.913972
vt 0.820538 0.959319
vt 0.814104 0.959319
vt 0.815333 0.959319
vt 0.819309 0.959319
vt 0.817321 0.959319
vt 0.445606 0.901152
vt 0.444821 0.901152
vt 0.444335 0.901152
vt 0.446392 0.901152
vt 0.446877 0.901152
s 0
usemtl Gradient_Colour
f 2/1/1 1/2/1 3/3/1 4/3/1 5/2/1 6/1/1 7/4/1 8/5/1 9/5/1 10/4/1
f 12/6/2 11/7/2 1/2/2 2/1/2
f 14/8/3 13/8/3 9/5/3 8/5/3
f 16/7/4 15/6/4 6/1/4 5/2/4
f 11/7/5 17/9/5 3/3/5 1/2/5
f 13/8/6 18/10/6 10/4/6 9/5/6
f 15/6/7 19/10/7 7/4/7 6/1/7
f 17/9/8 20/9/8 4/3/8 3/3/8
f 18/10/9 12/6/9 2/1/9 10/4/9
f 19/10/10 14/8/10 8/5/10 7/4/10
f 20/9/11 16/7/11 5/2/11 4/3/11
f 11/11/1 12/12/1 18/13/1 38/14/1 31/12/1 34/15/1 37/16/1 40/16/1 33/15/1 36/12/1 39/14/1 32/17/1 35/17/1 13/18/1 14/18/1 19/13/1 15/12/1 16/11/1 20/19/1 17/19/1
f 18/10/1 13/8/1 35/20/1 38/21/1
f 29/22/12 28/22/12 48/22/12 49/22/12
f 24/23/13 25/24/13 33/15/13 40/16/13
f 27/25/14 28/22/14 32/17/14 39/14/14
f 30/25/15 22/26/15 31/12/15 38/14/15
f 23/23/16 24/23/16 40/16/16 37/16/16
f 26/26/17 27/25/17 39/14/17 36/12/17
f 29/22/18 30/25/18 38/14/18 35/17/18
f 21/24/19 23/23/19 37/16/19 34/15/19
f 25/24/20 26/26/20 36/12/20 33/15/20
f 28/22/21 29/22/21 35/17/21 32/17/21
f 22/26/22 21/24/22 34/15/22 31/12/22
f 42/27/23 50/28/23 49/29/23 48/29/23 47/28/23 46/27/23 45/30/23 44/31/23 43/31/23 41/30/23
f 26/26/24 25/24/24 45/24/24 46/26/24
f 23/23/25 21/24/25 41/24/25 43/23/25
f 30/25/26 29/22/26 49/22/26 50/25/26
f 27/25/27 26/26/27 46/26/27 47/25/27
f 24/23/28 23/23/28 43/23/28 44/23/28
f 22/26/29 30/25/29 50/25/29 42/26/29
f 28/22/30 27/25/30 47/25/30 48/22/30
f 25/24/31 24/23/31 44/23/31 45/24/31
f 21/24/32 22/26/32 42/26/32 41/24/32
o Umbrella_TopP
v 0.538626 1.270171 -2.559938
v 0.632876 1.270171 -2.870761
v 0.891824 1.270171 -3.066824
v 1.216559 1.270171 -3.073236
v 1.483045 1.270171 -2.887549
v 1.589492 1.270171 -2.580689
v 1.495242 1.270171 -2.269866
v 1.236294 1.270171 -2.073803
v 0.911559 1.270171 -2.067391
v 0.645073 1.270171 -2.253078
v 1.064059 1.598294 -2.570313
v 0.552725 1.267970 -2.560216
v 0.644446 1.267970 -2.862700
v 0.896445 1.267970 -3.053501
v 1.212467 1.267970 -3.059741
v 1.471802 1.267970 -2.879037
v 1.575393 1.267970 -2.580410
v 1.483672 1.267970 -2.277927
v 1.231673 1.267970 -2.087126
v 0.915651 1.267970 -2.080885
v 0.656316 1.267970 -2.261590
v 1.064059 1.593372 -2.570313
vn -0.5252 0.8360 -0.1593
vn -0.3313 0.8360 -0.4375
vn -0.0108 0.8360 -0.5487
vn 0.3137 0.8360 -0.4503
vn 0.5185 0.8360 -0.1799
vn 0.5252 0.8360 0.1593
vn 0.3313 0.8360 0.4375
vn 0.0108 0.8360 0.5487
vn -0.3137 0.8360 0.4503
vn -0.5185 0.8360 0.1799
vn 0.5321 -0.8312 0.1614
vn 0.3356 -0.8312 0.4433
vn 0.0110 -0.8312 0.5559
vn -0.3179 -0.8312 0.4562
vn -0.5253 -0.8312 0.1822
vn -0.5321 -0.8312 -0.1614
vn -0.3356 -0.8312 -0.4433
vn -0.0110 -0.8312 -0.5559
vn 0.3179 -0.8312 -0.4562
vn 0.5253 -0.8312 -0.1822
vn -0.1550 -0.9868 -0.0470
vn -0.0978 -0.9868 -0.1291
vn -0.0032 -0.9868 -0.1619
vn 0.0926 -0.9868 -0.1329
vn 0.1530 -0.9868 -0.0531
vn 0.1550 -0.9868 0.0470
vn 0.0978 -0.9868 0.1291
vn 0.0032 -0.9868 0.1619
vn -0.0926 -0.9868 0.1329
vn -0.1530 -0.9868 0.0531
vt 0.062279 0.984397
vt 0.062279 0.962927
vt 0.074898 0.980297
vt 0.297834 0.303855
vt 0.295309 0.289461
vt 0.304672 0.299578
vt 0.082698 0.969562
vt 0.082698 0.956293
vt 0.307677 0.292106
vt 0.305712 0.284303
vt 0.074898 0.945558
vt 0.062279 0.941458
vt 0.299538 0.279143
vt 0.291513 0.278583
vt 0.049659 0.945558
vt 0.041860 0.956293
vt 0.284687 0.282836
vt 0.281662 0.290289
vt 0.041860 0.969562
vt 0.049659 0.980297
vt 0.283603 0.298105
vt 0.289781 0.303292
vt 0.062279 0.983821
vt 0.074560 0.979831
vt 0.297742 0.303512
vt 0.304389 0.299354
vt 0.295297 0.289492
vt 0.082150 0.969384
vt 0.082150 0.956471
vt 0.307310 0.292090
vt 0.305400 0.284505
vt 0.074560 0.946024
vt 0.062279 0.942034
vt 0.299399 0.279488
vt 0.291597 0.278944
vt 0.049998 0.946024
vt 0.042408 0.956471
vt 0.284962 0.283079
vt 0.282021 0.290324
vt 0.042408 0.969384
vt 0.049998 0.979831
vt 0.283908 0.297922
vt 0.289914 0.302964
vt 0.478254 0.324164
vt 0.478254 0.175836
s 0
usemtl Gradient_Colour
f 51/32/33 61/33/33 52/34/33
f 52/35/34 61/36/34 53/37/34
f 53/38/35 61/33/35 54/39/35
f 54/40/36 61/36/36 55/41/36
f 55/42/37 61/33/37 56/43/37
f 56/44/38 61/36/38 57/45/38
f 57/46/39 61/33/39 58/47/39
f 58/48/40 61/36/40 59/49/40
f 59/50/41 61/33/41 60/51/41
f 60/52/42 61/36/42 51/53/42
f 62/54/43 63/55/43 72/33/43
f 63/56/44 64/57/44 72/58/44
f 64/59/45 65/60/45 72/33/45
f 65/61/46 66/62/46 72/58/46
f 66/63/47 67/64/47 72/33/47
f 67/65/48 68/66/48 72/58/48
f 68/67/49 69/68/49 72/33/49
f 69/69/50 70/70/50 72/58/50
f 70/71/51 71/72/51 72/33/51
f 71/73/52 62/74/52 72/58/52
f 51/32/53 52/34/53 63/55/53 62/54/53
f 52/35/54 53/37/54 64/57/54 63/56/54
f 53/75/55 54/76/55 65/76/55 64/75/55
f 54/40/56 55/41/56 66/62/56 65/61/56
f 55/42/57 56/43/57 67/64/57 66/63/57
f 56/44/58 57/45/58 68/66/58 67/65/58
f 57/46/59 58/47/59 69/68/59 68/67/59
f 58/48/60 59/49/60 70/70/60 69/69/60
f 59/50/61 60/51/61 71/72/61 70/71/61
f 60/52/62 51/53/62 62/74/62 71/73/62
